SourceCodePro_1.ufo
<glyph name="F" format="1">
  <advance width="600"/>
  <unicode hex="0046"/>
  <outline>
    <contour>
      <point x="133" y="0" type="line"/>
      <point x="216" y="0" type="line"/>
      <point x="216" y="294" type="line"/>
      <point x="487" y="294" type="line"/>
      <point x="487" y="364" type="line"/>
      <point x="216" y="364" type="line"/>
      <point x="216" y="586" type="line"/>
      <point x="536" y="586" type="line"/>
      <point x="536" y="656" type="line"/>
      <point x="133" y="656" type="line"/>
    </contour>
    <contour>
      <point x="342" y="676" type="move" name="aboveUC"/>
    </contour>
    <contour>
      <point x="170" y="0" type="move" name="baseLC"/>
    </contour>
    <contour>
      <point x="181" y="-20" type="move" name="belowLC"/>
    </contour>
  </outline>
</glyph>
<glyph name="L" format="1">
  <advance width="600"/>
  <unicode hex="004C"/>
  <outline>
    <contour>
      <point x="134" y="0" type="line"/>
      <point x="541" y="0" type="line"/>
      <point x="541" y="71" type="line"/>
      <point x="216" y="71" type="line"/>
      <point x="216" y="656" type="line"/>
      <point x="134" y="656" type="line"/>
    </contour>
    <contour>
      <point x="189" y="676" type="move" name="aboveUC"/>
    </contour>
    <contour>
      <point x="176" y="337" type="move" name="center"/>
    </contour>
    <contour>
      <point x="349" y="0" type="move" name="baseLC"/>
    </contour>
    <contour>
      <point x="349" y="-20" type="move" name="belowLC"/>
    </contour>
  </outline>
</glyph>
<glyph name="N" format="1">
  <advance width="600"/>
  <unicode hex="004E"/>
  <outline>
    <contour>
      <point x="82" y="0" type="line"/>
      <point x="162" y="0" type="line"/>
      <point x="162" y="343" type="line"/>
      <point x="162" y="411"/>
      <point x="154" y="481"/>
      <point x="151" y="548" type="curve"/>
      <point x="153" y="548" type="line"/>
      <point x="216" y="412" type="line"/>
      <point x="426" y="0" type="line"/>
      <point x="518" y="0" type="line"/>
      <point x="518" y="656" type="line"/>
      <point x="438" y="656" type="line"/>
      <point x="438" y="316" type="line"/>
      <point x="438" y="247"/>
      <point x="446" y="173"/>
      <point x="449" y="108" type="curve"/>
      <point x="447" y="108" type="line"/>
      <point x="384" y="244" type="line"/>
      <point x="174" y="656" type="line"/>
      <point x="82" y="656" type="line"/>
    </contour>
    <contour>
      <point x="310" y="676" type="move" name="aboveUC"/>
    </contour>
    <contour>
      <point x="473" y="0" type="move" name="baseLC"/>
    </contour>
    <contour>
      <point x="300" y="-20" type="move" name="belowLC"/>
    </contour>
  </outline>
</glyph>
<glyph name="X" format="1">
  <advance width="600"/>
  <unicode hex="0058"/>
  <outline>
    <contour>
      <point x="54" y="0" type="line"/>
      <point x="142" y="0" type="line"/>
      <point x="240" y="177" type="line"/>
      <point x="257" y="209"/>
      <point x="274" y="242"/>
      <point x="293" y="282" type="curve"/>
      <point x="297" y="282" type="line"/>
      <point x="319" y="242"/>
      <point x="337" y="209"/>
      <point x="355" y="177" type="curve" smooth="yes"/>
      <point x="454" y="0" type="line"/>
      <point x="546" y="0" type="line"/>
      <point x="350" y="335" type="line"/>
      <point x="533" y="656" type="line"/>
      <point x="445" y="656" type="line"/>
      <point x="355" y="488" type="line"/>
      <point x="339" y="458"/>
      <point x="326" y="431"/>
      <point x="308" y="393" type="curve"/>
      <point x="304" y="393" type="line"/>
      <point x="283" y="431"/>
      <point x="268" y="458"/>
      <point x="251" y="488" type="curve" smooth="yes"/>
      <point x="159" y="656" type="line"/>
      <point x="67" y="656" type="line"/>
      <point x="250" y="339" type="line"/>
    </contour>
    <contour>
      <point x="300" y="676" type="move" name="aboveUC"/>
    </contour>
    <contour>
      <point x="495" y="0" type="move" name="baseLC"/>
    </contour>
    <contour>
      <point x="300" y="-20" type="move" name="belowLC"/>
    </contour>
  </outline>
</glyph>
<glyph name="Y" format="1">
  <advance width="600"/>
  <unicode hex="0059"/>
  <outline>
    <contour>
      <point x="258" y="0" type="line"/>
      <point x="342" y="0" type="line"/>
      <point x="342" y="234" type="line"/>
      <point x="562" y="656" type="line"/>
      <point x="476" y="656" type="line"/>
      <point x="381" y="462" type="line"/>
      <point x="356" y="411"/>
      <point x="330" y="361"/>
      <point x="304" y="308" type="curve"/>
      <point x="300" y="308" type="line"/>
      <point x="273" y="361"/>
      <point x="250" y="411"/>
      <point x="225" y="461" type="curve" smooth="yes"/>
      <point x="126" y="656" type="line"/>
      <point x="38" y="656" type="line"/>
      <point x="258" y="234" type="line"/>
    </contour>
    <contour>
      <point x="300" y="676" type="move" name="aboveUC"/>
    </contour>
    <contour>
      <point x="300" y="0" type="move" name="ogonekUC"/>
    </contour>
    <contour>
      <point x="300" y="-20" type="move" name="belowLC"/>
    </contour>
  </outline>
</glyph>
<glyph name="Z" format="1">
  <advance width="600"/>
  <unicode hex="005A"/>
  <outline>
    <contour>
      <point x="65" y="0" type="line"/>
      <point x="539" y="0" type="line"/>
      <point x="539" y="71" type="line"/>
      <point x="167" y="71" type="line"/>
      <point x="534" y="607" type="line"/>
      <point x="534" y="657" type="line"/>
      <point x="97" y="657" type="line"/>
      <point x="97" y="587" type="line"/>
      <point x="431" y="587" type="line"/>
      <point x="65" y="50" type="line"/>
    </contour>
    <contour>
      <point x="317" y="676" type="move" name="aboveUC"/>
    </contour>
    <contour>
      <point x="320" y="0" type="move" name="baseLC"/>
    </contour>
    <contour>
      <point x="316" y="-20" type="move" name="belowLC"/>
    </contour>
  </outline>
</glyph>
<glyph name="asciicircum" format="1">
  <advance width="600"/>
  <unicode hex="005E"/>
  <outline>
    <contour>
      <point x="111" y="284" type="line"/>
      <point x="183" y="284" type="line"/>
      <point x="249" y="460" type="line"/>
      <point x="298" y="593" type="line"/>
      <point x="302" y="593" type="line"/>
      <point x="351" y="460" type="line"/>
      <point x="417" y="284" type="line"/>
      <point x="489" y="284" type="line"/>
      <point x="336" y="670" type="line"/>
      <point x="264" y="670" type="line"/>
    </contour>
  </outline>
</glyph>
<glyph name="a" format="1">
  <advance width="600"/>
  <unicode hex="0061"/>
  <outline>
    <contour>
      <point x="246" y="-12" type="curve" smooth="yes"/>
      <point x="315" y="-12"/>
      <point x="384" y="24"/>
      <point x="438" y="66" type="curve"/>
      <point x="441" y="66" type="line"/>
      <point x="448" y="0" type="line"/>
      <point x="515" y="0" type="line"/>
      <point x="515" y="298" type="line"/>
      <point x="515" y="419"/>
      <point x="451" y="498"/>
      <point x="318" y="498" type="curve" smooth="yes"/>
      <point x="233" y="498"/>
      <point x="151" y="460"/>
      <point x="102" y="428" type="curve"/>
      <point x="134" y="372" type="line"/>
      <point x="179" y="400"/>
      <point x="241" y="430"/>
      <point x="304" y="430" type="curve" smooth="yes"/>
      <point x="398" y="430"/>
      <point x="431" y="374"/>
      <point x="433" y="308" type="curve"/>
      <point x="182" y="288"/>
      <point x="81" y="235"/>
      <point x="81" y="126" type="curve" smooth="yes"/>
      <point x="81" y="39"/>
      <point x="155" y="-12"/>
    </contour>
    <contour>
      <point x="268" y="54" type="curve" smooth="yes"/>
      <point x="212" y="54"/>
      <point x="161" y="77"/>
      <point x="161" y="132" type="curve" smooth="yes"/>
      <point x="161" y="196"/>
      <point x="225" y="237"/>
      <point x="433" y="254" type="curve"/>
      <point x="433" y="126" type="line"/>
      <point x="378" y="80"/>
      <point x="323" y="54"/>
    </contour>
    <contour>
      <point x="436" y="0" type="move" name="ogonekLC"/>
    </contour>
    <contour>
      <point x="320" y="507" type="move" name="aboveLC"/>
    </contour>
    <contour>
      <point x="473" y="0" type="move" name="baseLC"/>
    </contour>
    <contour>
      <point x="300" y="-20" type="move" name="belowLC"/>
    </contour>
  </outline>
</glyph>
<glyph name="f" format="1">
  <advance width="600"/>
  <unicode hex="0066"/>
  <outline>
    <contour>
      <point x="242" y="0" type="line"/>
      <point x="323" y="0" type="line"/>
      <point x="323" y="530" type="line"/>
      <point x="323" y="609"/>
      <point x="359" y="657"/>
      <point x="446" y="657" type="curve" smooth="yes"/>
      <point x="488" y="657"/>
      <point x="519" y="652"/>
      <point x="559" y="634" type="curve"/>
      <point x="578" y="696" type="line"/>
      <point x="532" y="715"/>
      <point x="486" y="724"/>
      <point x="438" y="724" type="curve" smooth="yes"/>
      <point x="304" y="724"/>
      <point x="242" y="646"/>
      <point x="242" y="527" type="curve" smooth="yes"/>
    </contour>
    <contour>
      <point x="103" y="419" type="line"/>
      <point x="527" y="419" type="line"/>
      <point x="527" y="486" type="line"/>
      <point x="245" y="486" type="line"/>
      <point x="103" y="481" type="line"/>
    </contour>
    <contour>
      <point x="420" y="736" type="move" name="aboveUC"/>
    </contour>
    <contour>
      <point x="298" y="0" type="move" name="baseLC"/>
    </contour>
    <contour>
      <point x="291" y="-20" type="move" name="belowLC"/>
    </contour>
  </outline>
</glyph>
<glyph name="g" format="1">
  <advance width="600"/>
  <unicode hex="0067"/>
  <outline>
    <contour>
      <point x="296" y="-224" type="curve" smooth="yes"/>
      <point x="461" y="-224"/>
      <point x="566" y="-145"/>
      <point x="566" y="-54" type="curve" smooth="yes"/>
      <point x="566" y="28"/>
      <point x="506" y="60"/>
      <point x="381" y="60" type="curve" smooth="yes"/>
      <point x="272" y="60" type="line"/>
      <point x="208" y="60"/>
      <point x="171" y="78"/>
      <point x="171" y="116" type="curve" smooth="yes"/>
      <point x="171" y="139"/>
      <point x="185" y="157"/>
      <point x="209" y="172" type="curve"/>
      <point x="236" y="160"/>
      <point x="266" y="154"/>
      <point x="291" y="154" type="curve" smooth="yes"/>
      <point x="396" y="154"/>
      <point x="479" y="217"/>
      <point x="479" y="321" type="curve" smooth="yes"/>
      <point x="479" y="360"/>
      <point x="460" y="396"/>
      <point x="438" y="419" type="curve"/>
      <point x="564" y="419" type="line"/>
      <point x="564" y="486" type="line"/>
      <point x="363" y="486" type="line"/>
      <point x="342" y="494"/>
      <point x="319" y="498"/>
      <point x="291" y="498" type="curve" smooth="yes"/>
      <point x="188" y="498"/>
      <point x="100" y="430"/>
      <point x="100" y="324" type="curve" smooth="yes"/>
      <point x="100" y="266"/>
      <point x="127" y="223"/>
      <point x="160" y="198" type="curve"/>
      <point x="160" y="194" type="line"/>
      <point x="123" y="169"/>
      <point x="102" y="134"/>
      <point x="102" y="103" type="curve" smooth="yes"/>
      <point x="102" y="62"/>
      <point x="126" y="37"/>
      <point x="152" y="23" type="curve"/>
      <point x="152" y="19" type="line"/>
      <point x="100" y="-11"/>
      <point x="72" y="-50"/>
      <point x="72" y="-89" type="curve" smooth="yes"/>
      <point x="72" y="-175"/>
      <point x="154" y="-224"/>
    </contour>
    <contour>
      <point x="291" y="209" type="curve" smooth="yes"/>
      <point x="230" y="209"/>
      <point x="179" y="254"/>
      <point x="179" y="324" type="curve" smooth="yes"/>
      <point x="179" y="392"/>
      <point x="230" y="438"/>
      <point x="291" y="438" type="curve" smooth="yes"/>
      <point x="353" y="438"/>
      <point x="403" y="392"/>
      <point x="403" y="324" type="curve" smooth="yes"/>
      <point x="403" y="254"/>
      <point x="353" y="209"/>
    </contour>
    <contour>
      <point x="302" y="-164" type="curve" smooth="yes"/>
      <point x="198" y="-164"/>
      <point x="143" y="-132"/>
      <point x="143" y="-81" type="curve" smooth="yes"/>
      <point x="143" y="-53"/>
      <point x="159" y="-25"/>
      <point x="205" y="0" type="curve"/>
      <point x="226" y="-6"/>
      <point x="251" y="-8"/>
      <point x="279" y="-8" type="curve" smooth="yes"/>
      <point x="374" y="-8" type="line"/>
      <point x="448" y="-8"/>
      <point x="485" y="-21"/>
      <point x="485" y="-67" type="curve" smooth="yes"/>
      <point x="485" y="-117"/>
      <point x="415" y="-164"/>
    </contour>
    <contour>
      <point x="307" y="507" type="move" name="aboveLC"/>
    </contour>
    <contour>
      <point x="308" y="-219" type="move" name="belowLC"/>
    </contour>
  </outline>
</glyph>
<glyph name="i" format="1">
  <advance width="600"/>
  <unicode hex="0069"/>
  <outline>
    <component base="dotlessi"/>
    <component base="dotaccentcmb" xOffset="48"/>
    <contour>
      <point x="348" y="738" type="move" name="aboveUC"/>
    </contour>
    <contour>
      <point x="356" y="0" type="move" name="ogonekLC"/>
    </contour>
    <contour>
      <point x="354" y="0" type="move" name="baseLC"/>
    </contour>
    <contour>
      <point x="348" y="-20" type="move" name="belowLC"/>
    </contour>
  </outline>
</glyph>
<glyph name="j" format="1">
  <advance width="600"/>
  <unicode hex="006A"/>
  <outline>
    <component base="dotlessj"/>
    <component base="dotaccentcmb" xOffset="48"/>
    <contour>
      <point x="348" y="738" type="move" name="aboveUC"/>
    </contour>
    <contour>
      <point x="237" y="-219" type="move" name="belowLC"/>
    </contour>
  </outline>
</glyph>
<glyph name="m" format="1">
  <advance width="600"/>
  <unicode hex="006D"/>
  <outline>
    <contour>
      <point x="58" y="0" type="line"/>
      <point x="140" y="0" type="line"/>
      <point x="140" y="352" type="line"/>
      <point x="165" y="402"/>
      <point x="186" y="427"/>
      <point x="220" y="427" type="curve" smooth="yes"/>
      <point x="256" y="427"/>
      <point x="269" y="398"/>
      <point x="269" y="341" type="curve" smooth="yes"/>
      <point x="269" y="0" type="line"/>
      <point x="347" y="0" type="line"/>
      <point x="347" y="352" type="line"/>
      <point x="372" y="402"/>
      <point x="389" y="427"/>
      <point x="424" y="427" type="curve" smooth="yes"/>
      <point x="460" y="427"/>
      <point x="476" y="398"/>
      <point x="476" y="341" type="curve" smooth="yes"/>
      <point x="476" y="0" type="line"/>
      <point x="558" y="0" type="line"/>
      <point x="558" y="348" type="line"/>
      <point x="558" y="445"/>
      <point x="517" y="498"/>
      <point x="450" y="498" type="curve" smooth="yes"/>
      <point x="395" y="498"/>
      <point x="363" y="465"/>
      <point x="335" y="414" type="curve"/>
      <point x="322" y="470"/>
      <point x="292" y="498"/>
      <point x="243" y="498" type="curve" smooth="yes"/>
      <point x="187" y="498"/>
      <point x="158" y="467"/>
      <point x="133" y="422" type="curve"/>
      <point x="131" y="422" type="line"/>
      <point x="124" y="486" type="line"/>
      <point x="58" y="486" type="line"/>
    </contour>
    <contour>
      <point x="315" y="508" type="move" name="aboveLC"/>
    </contour>
    <contour>
      <point x="514" y="0" type="move" name="baseLC"/>
    </contour>
    <contour>
      <point x="308" y="-20" type="move" name="belowLC"/>
    </contour>
  </outline>
</glyph>
<glyph name="n" format="1">
  <advance width="600"/>
  <unicode hex="006E"/>
  <outline>
    <contour>
      <point x="93" y="0" type="line"/>
      <point x="175" y="0" type="line"/>
      <point x="175" y="339" type="line"/>
      <point x="232" y="398"/>
      <point x="271" y="427"/>
      <point x="329" y="427" type="curve" smooth="yes"/>
      <point x="409" y="427"/>
      <point x="441" y="383"/>
      <point x="441" y="291" type="curve" smooth="yes"/>
      <point x="441" y="0" type="line"/>
      <point x="523" y="0" type="line"/>
      <point x="523" y="302" type="line"/>
      <point x="523" y="430"/>
      <point x="470" y="498"/>
      <point x="355" y="498" type="curve" smooth="yes"/>
      <point x="279" y="498"/>
      <point x="223" y="457"/>
      <point x="172" y="403" type="curve"/>
      <point x="168" y="403" type="line"/>
      <point x="161" y="486" type="line"/>
      <point x="93" y="486" type="line"/>
    </contour>
    <contour>
      <point x="318" y="507" type="move" name="aboveLC"/>
    </contour>
    <contour>
      <point x="480" y="0" type="move" name="baseLC"/>
    </contour>
    <contour>
      <point x="313" y="-20" type="move" name="belowLC"/>
    </contour>
  </outline>
</glyph>
<glyph name="s" format="1">
  <advance width="600"/>
  <unicode hex="0073"/>
  <outline>
    <contour>
      <point x="310" y="-12" type="curve" smooth="yes"/>
      <point x="449" y="-12"/>
      <point x="526" y="54"/>
      <point x="526" y="133" type="curve" smooth="yes"/>
      <point x="526" y="212"/>
      <point x="478" y="252"/>
      <point x="328" y="282" type="curve" smooth="yes"/>
      <point x="226" y="302"/>
      <point x="184" y="321"/>
      <point x="184" y="364" type="curve" smooth="yes"/>
      <point x="184" y="401"/>
      <point x="213" y="434"/>
      <point x="296" y="434" type="curve" smooth="yes"/>
      <point x="358" y="434"/>
      <point x="414" y="414"/>
      <point x="459" y="383" type="curve"/>
      <point x="499" y="436" type="line"/>
      <point x="451" y="469"/>
      <point x="377" y="498"/>
      <point x="300" y="498" type="curve" smooth="yes"/>
      <point x="170" y="498"/>
      <point x="100" y="438"/>
      <point x="100" y="360" type="curve" smooth="yes"/>
      <point x="100" y="283"/>
      <point x="174" y="240"/>
      <point x="292" y="216" type="curve" smooth="yes"/>
      <point x="428" y="188"/>
      <point x="443" y="167"/>
      <point x="443" y="128" type="curve" smooth="yes"/>
      <point x="443" y="87"/>
      <point x="402" y="52"/>
      <point x="314" y="52" type="curve" smooth="yes"/>
      <point x="230" y="52"/>
      <point x="165" y="78"/>
      <point x="109" y="118" type="curve"/>
      <point x="71" y="64" type="line"/>
      <point x="130" y="23"/>
      <point x="215" y="-12"/>
    </contour>
    <contour>
      <point x="303.0" y="507.0" type="move" name="aboveLC"/>
    </contour>
    <contour>
      <point x="314.0" y="0.0" type="move" name="baseLC"/>
    </contour>
    <contour>
      <point x="309.0" y="-20.0" type="move" name="belowLC"/>
    </contour>
  </outline>
</glyph>
<glyph name="w" format="1">
  <advance width="600"/>
  <unicode hex="0077"/>
  <outline>
    <contour>
      <point x="114" y="0" type="line"/>
      <point x="220" y="0" type="line"/>
      <point x="274" y="232" type="line" smooth="yes"/>
      <point x="282" y="266"/>
      <point x="290" y="314"/>
      <point x="298" y="376" type="curve"/>
      <point x="302" y="376" type="line"/>
      <point x="310" y="314"/>
      <point x="318" y="266"/>
      <point x="326" y="232" type="curve" smooth="yes"/>
      <point x="382" y="0" type="line"/>
      <point x="488" y="0" type="line"/>
      <point x="592" y="486" type="line"/>
      <point x="516" y="486" type="line"/>
      <point x="458" y="204" type="line" smooth="yes"/>
      <point x="449" y="158"/>
      <point x="444" y="116"/>
      <point x="436" y="70" type="curve"/>
      <point x="432" y="70" type="line"/>
      <point x="426" y="116"/>
      <point x="413" y="158"/>
      <point x="402" y="204" type="curve" smooth="yes"/>
      <point x="344" y="456" type="line"/>
      <point x="262" y="456" type="line"/>
      <point x="202" y="204" type="line" smooth="yes"/>
      <point x="191" y="159"/>
      <point x="180" y="116"/>
      <point x="174" y="70" type="curve"/>
      <point x="170" y="70" type="line"/>
      <point x="164" y="116"/>
      <point x="157" y="158"/>
      <point x="148" y="204" type="curve" smooth="yes"/>
      <point x="90" y="486" type="line"/>
      <point x="8" y="486" type="line"/>
    </contour>
    <contour>
      <point x="300" y="507" type="move" name="aboveLC"/>
    </contour>
    <contour>
      <point x="300" y="-20" type="move" name="belowLC"/>
    </contour>
  </outline>
</glyph>
<glyph name="x" format="1">
  <advance width="600"/>
  <unicode hex="0078"/>
  <outline>
    <contour>
      <point x="64" y="0" type="line"/>
      <point x="152" y="0" type="line"/>
      <point x="232" y="112" type="line"/>
      <point x="252" y="143"/>
      <point x="272" y="171"/>
      <point x="292" y="200" type="curve"/>
      <point x="296" y="200" type="line"/>
      <point x="317" y="172"/>
      <point x="340" y="140"/>
      <point x="360" y="112" type="curve" smooth="yes"/>
      <point x="445" y="0" type="line"/>
      <point x="535" y="0" type="line"/>
      <point x="349" y="245" type="line"/>
      <point x="522" y="486" type="line"/>
      <point x="435" y="486" type="line"/>
      <point x="362" y="381" type="line"/>
      <point x="345" y="354"/>
      <point x="325" y="324"/>
      <point x="307" y="297" type="curve"/>
      <point x="303" y="297" type="line"/>
      <point x="283" y="324"/>
      <point x="263" y="353"/>
      <point x="246" y="379" type="curve" smooth="yes"/>
      <point x="169" y="486" type="line"/>
      <point x="78" y="486" type="line"/>
      <point x="249" y="252" type="line"/>
    </contour>
    <contour>
      <point x="300" y="507" type="move" name="aboveLC"/>
    </contour>
    <contour>
      <point x="480" y="0" type="move" name="baseLC"/>
    </contour>
    <contour>
      <point x="300" y="-20" type="move" name="belowLC"/>
    </contour>
  </outline>
</glyph>
<glyph name="bar" format="1">
  <advance width="600"/>
  <unicode hex="007C"/>
  <outline>
    <contour>
      <point x="263" y="-250" type="line"/>
      <point x="337" y="-250" type="line"/>
      <point x="337" y="750" type="line"/>
      <point x="263" y="750" type="line"/>
    </contour>
  </outline>
</glyph>
<glyph name="Aring" format="1">
  <advance width="600"/>
  <unicode hex="00C5"/>
  <outline>
    <component base="A"/>
    <component base="ringcmb.cap"/>
    <contour>
      <point x="494" y="0" type="move" name="ogonekUC"/>
    </contour>
  </outline>
</glyph>
<glyph name="Eacute" format="1">
  <advance width="600"/>
  <unicode hex="00C9"/>
  <outline>
    <component base="E"/>
    <component base="acutecmb.cap" xOffset="31"/>
    <contour>
      <point x="429" y="0" type="move" name="ogonekUC"/>
    </contour>
  </outline>
</glyph>
<glyph name="Eth" format="1">
  <advance width="600"/>
  <unicode hex="00D0"/>
  <outline>
    <contour>
      <point x="87" y="0" type="line"/>
      <point x="253" y="0" type="line"/>
      <point x="446" y="0"/>
      <point x="553" y="122"/>
      <point x="553" y="331" type="curve" smooth="yes"/>
      <point x="553" y="539"/>
      <point x="446" y="656"/>
      <point x="249" y="656" type="curve" smooth="yes"/>
      <point x="87" y="656" type="line"/>
      <point x="87" y="376" type="line"/>
      <point x="12" y="370" type="line"/>
      <point x="12" y="314" type="line"/>
      <point x="87" y="314" type="line"/>
    </contour>
    <contour>
      <point x="170" y="68" type="line"/>
      <point x="170" y="314" type="line"/>
      <point x="314" y="314" type="line"/>
      <point x="314" y="376" type="line"/>
      <point x="170" y="376" type="line"/>
      <point x="170" y="588" type="line"/>
      <point x="243" y="588" type="line"/>
      <point x="392" y="588"/>
      <point x="466" y="496"/>
      <point x="466" y="331" type="curve" smooth="yes"/>
      <point x="466" y="165"/>
      <point x="392" y="68"/>
      <point x="243" y="68" type="curve" smooth="yes"/>
    </contour>
    <contour>
      <point x="299" y="676" type="move" name="aboveUC"/>
    </contour>
    <contour>
      <point x="290" y="-20" type="move" name="belowLC"/>
    </contour>
  </outline>
</glyph>
<glyph name="Odieresis" format="1">
  <advance width="600"/>
  <unicode hex="00D6"/>
  <outline>
    <component base="O"/>
    <component base="dieresiscmb.cap"/>
    <contour>
      <point x="300" y="0" type="move" name="ogonekUC"/>
    </contour>
  </outline>
</glyph>
<glyph name="Oslash" format="1">
  <advance width="600"/>
  <unicode hex="00D8"/>
  <outline>
    <contour>
      <point x="41" y="2" type="line"/>
      <point x="88" y="-30" type="line"/>
      <point x="556" y="654" type="line"/>
      <point x="509" y="686" type="line"/>
    </contour>
    <component base="O"/>
    <contour>
      <point x="300" y="676" type="move" name="aboveUC"/>
    </contour>
    <contour>
      <point x="300" y="0" type="move" name="baseLC"/>
    </contour>
  </outline>
</glyph>
<glyph name="aacute" format="1">
  <advance width="600"/>
  <unicode hex="00E1"/>
  <outline>
    <component base="a"/>
    <component base="acutecmb" xOffset="20"/>
    <contour>
      <point x="436" y="0" type="move" name="ogonekLC"/>
    </contour>
  </outline>
</glyph>
<glyph name="adieresis" format="1">
  <advance width="600"/>
  <unicode hex="00E4"/>
  <outline>
    <component base="a"/>
    <component base="dieresiscmb" xOffset="20"/>
    <contour>
      <point x="436" y="0" type="move" name="ogonekLC"/>
    </contour>
  </outline>
</glyph>
<glyph name="aring" format="1">
  <advance width="600"/>
  <unicode hex="00E5"/>
  <outline>
    <component base="a"/>
    <component base="ringcmb" xOffset="20"/>
    <contour>
      <point x="436" y="0" type="move" name="ogonekLC"/>
    </contour>
  </outline>
</glyph>
<glyph name="ae" format="1">
  <advance width="600"/>
  <unicode hex="00E6"/>
  <outline>
    <contour>
      <point x="147" y="-12" type="curve" smooth="yes"/>
      <point x="198" y="-12"/>
      <point x="251" y="20"/>
      <point x="325" y="101" type="curve"/>
      <point x="290" y="105" type="line"/>
      <point x="337" y="22"/>
      <point x="384" y="-12"/>
      <point x="454" y="-12" type="curve" smooth="yes"/>
      <point x="504" y="-12"/>
      <point x="549" y="8"/>
      <point x="582" y="31" type="curve"/>
      <point x="553" y="85" type="line"/>
      <point x="525" y="68"/>
      <point x="494" y="54"/>
      <point x="457" y="54" type="curve" smooth="yes"/>
      <point x="379" y="54"/>
      <point x="339" y="122"/>
      <point x="334" y="253" type="curve"/>
      <point x="305" y="223" type="line"/>
      <point x="593" y="223" type="line"/>
      <point x="595" y="240"/>
      <point x="597" y="257"/>
      <point x="597" y="276" type="curve" smooth="yes"/>
      <point x="597" y="395"/>
      <point x="549" y="498"/>
      <point x="450" y="498" type="curve" smooth="yes"/>
      <point x="386" y="498"/>
      <point x="341" y="462"/>
      <point x="295" y="373" type="curve"/>
      <point x="318" y="371" type="line"/>
      <point x="291" y="456"/>
      <point x="251" y="498"/>
      <point x="188" y="498" type="curve" smooth="yes"/>
      <point x="128" y="498"/>
      <point x="73" y="472"/>
      <point x="33" y="446" type="curve"/>
      <point x="64" y="390" type="line"/>
      <point x="95" y="411"/>
      <point x="143" y="431"/>
      <point x="178" y="431" type="curve" smooth="yes"/>
      <point x="241" y="431"/>
      <point x="264" y="380"/>
      <point x="265" y="308" type="curve"/>
      <point x="101" y="283"/>
      <point x="17" y="226"/>
      <point x="17" y="129" type="curve" smooth="yes"/>
      <point x="17" y="42"/>
      <point x="68" y="-12"/>
    </contour>
    <contour>
      <point x="167" y="54" type="curve" smooth="yes"/>
      <point x="122" y="54"/>
      <point x="93" y="81"/>
      <point x="93" y="133" type="curve" smooth="yes"/>
      <point x="93" y="195"/>
      <point x="142" y="233"/>
      <point x="264" y="254" type="curve"/>
      <point x="265" y="229" type="line"/>
      <point x="266" y="191"/>
      <point x="271" y="154"/>
      <point x="281" y="125" type="curve"/>
      <point x="246" y="79"/>
      <point x="201" y="54"/>
    </contour>
    <contour>
      <point x="304" y="278" type="line"/>
      <point x="332" y="248" type="line"/>
      <point x="340" y="375"/>
      <point x="381" y="433"/>
      <point x="443" y="433" type="curve" smooth="yes"/>
      <point x="508" y="433"/>
      <point x="528" y="361"/>
      <point x="528" y="278" type="curve"/>
    </contour>
    <contour>
      <point x="316" y="507" type="move" name="aboveLC"/>
    </contour>
    <contour>
      <point x="449" y="0" type="move" name="baseLC"/>
    </contour>
    <contour>
      <point x="309" y="-20" type="move" name="belowLC"/>
    </contour>
  </outline>
</glyph>
<glyph name="eacute" format="1">
  <advance width="600"/>
  <unicode hex="00E9"/>
  <outline>
    <component base="e"/>
    <component base="acutecmb" xOffset="16"/>
    <contour>
      <point x="404" y="0" type="move" name="ogonekLC"/>
    </contour>
  </outline>
</glyph>
<glyph name="odieresis" format="1">
  <advance width="600"/>
  <unicode hex="00F6"/>
  <outline>
    <component base="o"/>
    <component base="dieresiscmb"/>
    <contour>
      <point x="300" y="0" type="move" name="ogonekLC"/>
    </contour>
  </outline>
</glyph>
<glyph name="oslash" format="1">
  <advance width="600"/>
  <unicode hex="00F8"/>
  <outline>
    <contour>
      <point x="300" y="-12" type="curve" smooth="yes"/>
      <point x="428" y="-12"/>
      <point x="540" y="81"/>
      <point x="540" y="242" type="curve" smooth="yes"/>
      <point x="540" y="405"/>
      <point x="428" y="498"/>
      <point x="300" y="498" type="curve" smooth="yes"/>
      <point x="172" y="498"/>
      <point x="60" y="405"/>
      <point x="60" y="242" type="curve" smooth="yes"/>
      <point x="60" y="81"/>
      <point x="172" y="-12"/>
    </contour>
    <contour>
      <point x="300" y="54" type="curve" smooth="yes"/>
      <point x="207" y="54"/>
      <point x="145" y="131"/>
      <point x="145" y="242" type="curve" smooth="yes"/>
      <point x="145" y="354"/>
      <point x="207" y="432"/>
      <point x="300" y="432" type="curve" smooth="yes"/>
      <point x="393" y="432"/>
      <point x="455" y="354"/>
      <point x="455" y="242" type="curve" smooth="yes"/>
      <point x="455" y="131"/>
      <point x="393" y="54"/>
    </contour>
    <contour>
      <point x="103" y="-23" type="line"/>
      <point x="534" y="480" type="line"/>
      <point x="497" y="509" type="line"/>
      <point x="66" y="6" type="line"/>
    </contour>
    <contour>
      <point x="300" y="507" type="move" name="aboveLC"/>
    </contour>
    <contour>
      <point x="300" y="0" type="move" name="baseLC"/>
    </contour>
    <contour>
      <point x="300" y="-20" type="move" name="belowLC"/>
    </contour>
  </outline>
</glyph>
<glyph name="Dcroat" format="1">
  <advance width="600"/>
  <unicode hex="0110"/>
  <outline>
    <component base="Eth"/>
    <contour>
      <point x="299" y="676" type="move" name="aboveUC"/>
    </contour>
    <contour>
      <point x="290" y="-20" type="move" name="belowLC"/>
    </contour>
  </outline>
</glyph>
<glyph name="eogonek" format="1">
  <advance width="600"/>
  <unicode hex="0119"/>
  <outline>
    <contour>
      <point x="422" y="-225" type="curve" smooth="yes"/>
      <point x="460" y="-225"/>
      <point x="492" y="-211"/>
      <point x="516" y="-189" type="curve"/>
      <point x="492" y="-150" type="line"/>
      <point x="479" y="-162"/>
      <point x="462" y="-171"/>
      <point x="439" y="-171" type="curve" smooth="yes"/>
      <point x="408" y="-171"/>
      <point x="380" y="-153"/>
      <point x="380" y="-116" type="curve" smooth="yes"/>
      <point x="380" y="-64"/>
      <point x="414" y="-27"/>
      <point x="517" y="45" type="curve"/>
      <point x="488" y="99" type="line"/>
      <point x="443" y="71"/>
      <point x="397" y="54"/>
      <point x="340" y="54" type="curve" smooth="yes"/>
      <point x="234" y="54"/>
      <point x="158" y="120"/>
      <point x="154" y="223" type="curve"/>
      <point x="534" y="223" type="line"/>
      <point x="536" y="235"/>
      <point x="537" y="253"/>
      <point x="537" y="270" type="curve" smooth="yes"/>
      <point x="537" y="407"/>
      <point x="455" y="498"/>
      <point x="316" y="498" type="curve" smooth="yes"/>
      <point x="190" y="498"/>
      <point x="69" y="401"/>
      <point x="69" y="242" type="curve" smooth="yes"/>
      <point x="69" y="83"/>
      <point x="186" y="-12"/>
      <point x="330" y="-12" type="curve" smooth="yes"/>
      <point x="353" y="-12"/>
      <point x="372" y="-11"/>
      <point x="396" y="-1" type="curve"/>
      <point x="362" y="-29"/>
      <point x="319" y="-72"/>
      <point x="319" y="-132" type="curve" smooth="yes"/>
      <point x="319" y="-195"/>
      <point x="362" y="-225"/>
    </contour>
    <contour>
      <point x="153" y="282" type="line"/>
      <point x="166" y="377"/>
      <point x="238" y="433"/>
      <point x="317" y="433" type="curve" smooth="yes"/>
      <point x="407" y="433"/>
      <point x="461" y="379"/>
      <point x="461" y="282" type="curve"/>
    </contour>
    <contour>
      <point x="314" y="507" type="move" name="aboveLC"/>
    </contour>
  </outline>
</glyph>
<glyph name="Hbar" format="1">
  <advance width="600"/>
  <unicode hex="0126"/>
  <outline>
    <contour>
      <point x="10" y="492" type="line"/>
      <point x="590" y="492" type="line"/>
      <point x="590" y="539" type="line"/>
      <point x="82" y="539" type="line"/>
      <point x="10" y="534" type="line"/>
    </contour>
    <component base="H"/>
  </outline>
</glyph>
<glyph name="hbar" format="1">
  <advance width="600"/>
  <unicode hex="0127"/>
  <outline>
    <contour>
      <point x="93" y="0" type="line"/>
      <point x="175" y="0" type="line"/>
      <point x="175" y="312" type="line"/>
      <point x="232" y="370"/>
      <point x="271" y="399"/>
      <point x="329" y="399" type="curve" smooth="yes"/>
      <point x="409" y="399"/>
      <point x="441" y="355"/>
      <point x="441" y="263" type="curve" smooth="yes"/>
      <point x="441" y="0" type="line"/>
      <point x="523" y="0" type="line"/>
      <point x="523" y="274" type="line"/>
      <point x="523" y="403"/>
      <point x="470" y="471"/>
      <point x="355" y="471" type="curve" smooth="yes"/>
      <point x="279" y="471"/>
      <point x="223" y="429"/>
      <point x="173" y="375" type="curve"/>
      <point x="170" y="375" type="line"/>
      <point x="175" y="490" type="line"/>
      <point x="175" y="712" type="line"/>
      <point x="93" y="712" type="line"/>
    </contour>
    <contour>
      <point x="20" y="571" type="line"/>
      <point x="387" y="571" type="line"/>
      <point x="387" y="619" type="line"/>
      <point x="97" y="619" type="line"/>
      <point x="20" y="614" type="line"/>
    </contour>
  </outline>
</glyph>
<glyph name="Eng" format="1">
  <advance width="600"/>
  <unicode hex="014A"/>
  <outline>
    <contour>
      <point x="354" y="-12" type="curve" smooth="yes"/>
      <point x="510.923076923" y="-12.0"/>
      <point x="558.0" y="105.0"/>
      <point x="558" y="330" type="curve" smooth="yes"/>
      <point x="558.0" y="572.0"/>
      <point x="473" y="662"/>
      <point x="359" y="662" type="curve" smooth="yes"/>
      <point x="304" y="662"/>
      <point x="263" y="641"/>
      <point x="224" y="594" type="curve"/>
      <point x="224" y="650" type="line"/>
      <point x="58" y="650" type="line"/>
      <point x="58" y="0" type="line"/>
      <point x="230" y="0" type="line"/>
      <point x="230" y="448" type="line"/>
      <point x="254" y="494"/>
      <point x="284" y="514"/>
      <point x="314" y="514" type="curve" smooth="yes"/>
      <point x="358" y="514"/>
      <point x="382.0" y="461.0"/>
      <point x="382" y="330" type="curve" smooth="yes"/>
      <point x="382.0" y="176.0"/>
      <point x="369.0" y="148.0"/>
      <point x="334" y="148" type="curve" smooth="yes"/>
      <point x="321.866666667" y="148.0"/>
      <point x="313.301783523" y="151.261831179"/>
      <point x="306" y="154" type="curve"/>
      <point x="270" y="6" type="line"/>
      <point x="288.105942422" y="-6.38827639391"/>
      <point x="325.674418605" y="-12.0"/>
    </contour>
    <contour>
      <point x="318" y="672" type="move" name="aboveUC"/>
    </contour>
  </outline>
</glyph>
<glyph name="oe" format="1">
  <advance width="600"/>
  <unicode hex="0153"/>
  <outline>
    <contour>
      <point x="183" y="-12" type="curve" smooth="yes"/>
      <point x="246" y="-12"/>
      <point x="290" y="26"/>
      <point x="318" y="100" type="curve"/>
      <point x="347" y="26"/>
      <point x="399" y="-12"/>
      <point x="462" y="-12" type="curve" smooth="yes"/>
      <point x="509" y="-12"/>
      <point x="551" y="7"/>
      <point x="582" y="31" type="curve"/>
      <point x="553" y="85" type="line"/>
      <point x="527" y="67"/>
      <point x="500" y="54"/>
      <point x="466" y="54" type="curve" smooth="yes"/>
      <point x="394" y="54"/>
      <point x="353" y="122"/>
      <point x="347" y="223" type="curve"/>
      <point x="593" y="223" type="line"/>
      <point x="596" y="244"/>
      <point x="596" y="257"/>
      <point x="596" y="276" type="curve" smooth="yes"/>
      <point x="596" y="396"/>
      <point x="548" y="498"/>
      <point x="453" y="498" type="curve" smooth="yes"/>
      <point x="389" y="498"/>
      <point x="345" y="454"/>
      <point x="318" y="381" type="curve"/>
      <point x="291" y="455"/>
      <point x="245" y="498"/>
      <point x="184" y="498" type="curve" smooth="yes"/>
      <point x="86" y="498"/>
      <point x="11" y="405"/>
      <point x="11" y="243" type="curve" smooth="yes"/>
      <point x="11" y="81"/>
      <point x="85" y="-12"/>
    </contour>
    <contour>
      <point x="188" y="55" type="curve" smooth="yes"/>
      <point x="123" y="55"/>
      <point x="88" y="131"/>
      <point x="88" y="243" type="curve" smooth="yes"/>
      <point x="88" y="355"/>
      <point x="123" y="431"/>
      <point x="188" y="431" type="curve" smooth="yes"/>
      <point x="246" y="431"/>
      <point x="284" y="354"/>
      <point x="284" y="243" type="curve" smooth="yes"/>
      <point x="284" y="132"/>
      <point x="246" y="55"/>
    </contour>
    <contour>
      <point x="346" y="278" type="line"/>
      <point x="354" y="373"/>
      <point x="386" y="433"/>
      <point x="447" y="433" type="curve" smooth="yes"/>
      <point x="509" y="433"/>
      <point x="528" y="360"/>
      <point x="528" y="278" type="curve"/>
    </contour>
    <contour>
      <point x="318" y="507" type="move" name="aboveLC"/>
    </contour>
    <contour>
      <point x="455" y="0" type="move" name="baseLC"/>
    </contour>
    <contour>
      <point x="309" y="-20" type="move" name="belowLC"/>
    </contour>
  </outline>
</glyph>
<glyph name="Tbar" format="1">
  <advance width="600"/>
  <unicode hex="0166"/>
  <outline>
    <contour>
      <point x="117" y="313" type="line"/>
      <point x="483" y="313" type="line"/>
      <point x="483" y="360" type="line"/>
      <point x="205" y="360" type="line"/>
      <point x="117" y="357" type="line"/>
    </contour>
    <component base="T"/>
    <contour>
      <point x="300" y="676" type="move" name="aboveUC"/>
    </contour>
    <contour>
      <point x="300" y="-20" type="move" name="belowLC"/>
    </contour>
  </outline>
</glyph>
<glyph name="tbar" format="1">
  <advance width="600"/>
  <unicode hex="0167"/>
  <outline>
    <contour>
      <point x="42" y="220" type="line"/>
      <point x="512" y="220" type="line"/>
      <point x="512" y="300" type="line"/>
      <point x="176" y="300" type="line"/>
      <point x="42" y="294" type="line"/>
    </contour>
    <component base="t"/>
    <contour>
      <point x="266" y="664" type="move" name="aboveLC"/>
    </contour>
    <contour>
      <point x="364" y="-22" type="move" name="belowLC"/>
    </contour>
  </outline>
</glyph>
<glyph name="Uogonek" format="1">
  <advance width="600"/>
  <unicode hex="0172"/>
  <outline>
    <contour>
      <point x="324" y="-225" type="curve" smooth="yes"/>
      <point x="362" y="-225"/>
      <point x="392" y="-209"/>
      <point x="415" y="-189" type="curve"/>
      <point x="390" y="-146" type="line"/>
      <point x="378" y="-157"/>
      <point x="362" y="-167"/>
      <point x="341" y="-167" type="curve" smooth="yes"/>
      <point x="313" y="-167"/>
      <point x="286" y="-151"/>
      <point x="286" y="-116" type="curve" smooth="yes"/>
      <point x="286" y="-76"/>
      <point x="309" y="-32"/>
      <point x="386" y="1" type="curve" smooth="yes"/>
      <point x="472" y="38"/>
      <point x="521" y="107"/>
      <point x="521" y="248" type="curve" smooth="yes"/>
      <point x="521" y="656" type="line"/>
      <point x="440" y="656" type="line"/>
      <point x="440" y="246" type="line"/>
      <point x="440" y="110"/>
      <point x="379" y="61"/>
      <point x="300" y="61" type="curve" smooth="yes"/>
      <point x="221" y="61"/>
      <point x="163" y="110"/>
      <point x="163" y="246" type="curve" smooth="yes"/>
      <point x="163" y="656" type="line"/>
      <point x="79" y="656" type="line"/>
      <point x="79" y="248" type="line"/>
      <point x="79" y="82"/>
      <point x="153" y="-7"/>
      <point x="289" y="-11" type="curve"/>
      <point x="261" y="-35"/>
      <point x="221" y="-77"/>
      <point x="221" y="-134" type="curve" smooth="yes"/>
      <point x="221" y="-195"/>
      <point x="265" y="-225"/>
    </contour>
    <contour>
      <point x="300" y="676" type="move" name="aboveUC"/>
    </contour>
  </outline>
</glyph>
<glyph name="Schwa" format="1">
  <advance width="600"/>
  <unicode hex="018F"/>
  <outline>
    <contour>
      <point x="302" y="-12" type="curve" smooth="yes"/>
      <point x="450" y="-12"/>
      <point x="550" y="120"/>
      <point x="550" y="330" type="curve" smooth="yes"/>
      <point x="550" y="540"/>
      <point x="457" y="668"/>
      <point x="306" y="668" type="curve" smooth="yes"/>
      <point x="229" y="668"/>
      <point x="172" y="637"/>
      <point x="131" y="595" type="curve"/>
      <point x="169" y="538" type="line"/>
      <point x="202" y="572"/>
      <point x="246" y="597"/>
      <point x="300" y="597" type="curve" smooth="yes"/>
      <point x="410" y="597"/>
      <point x="467" y="496"/>
      <point x="467" y="330" type="curve" smooth="yes"/>
      <point x="467" y="164"/>
      <point x="402" y="59"/>
      <point x="302" y="59" type="curve" smooth="yes"/>
      <point x="208" y="59"/>
      <point x="155" y="153"/>
      <point x="147" y="284" type="curve"/>
      <point x="486" y="284" type="line"/>
      <point x="486" y="347" type="line"/>
      <point x="64" y="347" type="line"/>
      <point x="63" y="340"/>
      <point x="62" y="332"/>
      <point x="62" y="325" type="curve" smooth="yes"/>
      <point x="62" y="123"/>
      <point x="155" y="-12"/>
    </contour>
    <contour>
      <point x="317" y="676" type="move" name="aboveUC"/>
    </contour>
    <contour>
      <point x="310" y="0" type="move" name="ogonekUC"/>
    </contour>
    <contour>
      <point x="310" y="0" type="move" name="baseLC"/>
    </contour>
    <contour>
      <point x="304" y="-20" type="move" name="belowLC"/>
    </contour>
  </outline>
</glyph>
<glyph name="ohorn" format="1">
  <advance width="600"/>
  <unicode hex="01A1"/>
  <outline>
    <contour>
      <point x="441" y="442" type="line"/>
      <point x="500" y="459"/>
      <point x="556" y="498"/>
      <point x="556" y="578" type="curve" smooth="yes"/>
      <point x="556" y="607"/>
      <point x="545" y="635"/>
      <point x="532" y="657" type="curve"/>
      <point x="468" y="627" type="line"/>
      <point x="478" y="611"/>
      <point x="483" y="591"/>
      <point x="483" y="572" type="curve" smooth="yes"/>
      <point x="483" y="515"/>
      <point x="451" y="485"/>
      <point x="393" y="475" type="curve"/>
    </contour>
    <component base="o"/>
    <contour>
      <point x="300" y="507" type="move" name="aboveLC"/>
    </contour>
    <contour>
      <point x="300" y="-20" type="move" name="belowLC"/>
    </contour>
  </outline>
</glyph>
<glyph name="Bstroke" format="1">
  <advance width="600"/>
  <unicode hex="0243"/>
  <outline>
    <contour>
      <point x="105" y="0" type="line"/>
      <point x="306" y="0" type="line"/>
      <point x="453" y="0"/>
      <point x="553" y="63"/>
      <point x="553" y="192" type="curve" smooth="yes"/>
      <point x="553" y="282"/>
      <point x="497" y="334"/>
      <point x="401" y="349" type="curve"/>
      <point x="401" y="353" type="line"/>
      <point x="479" y="373"/>
      <point x="516" y="431"/>
      <point x="516" y="496" type="curve" smooth="yes"/>
      <point x="516" y="611"/>
      <point x="425" y="656"/>
      <point x="291" y="656" type="curve" smooth="yes"/>
      <point x="105" y="656" type="line"/>
    </contour>
    <contour>
      <point x="26" y="162" type="line"/>
      <point x="330" y="162" type="line"/>
      <point x="330" y="224" type="line"/>
      <point x="105" y="224" type="line"/>
      <point x="26" y="218" type="line"/>
    </contour>
    <contour>
      <point x="188" y="70" type="line"/>
      <point x="188" y="310" type="line"/>
      <point x="294" y="310" type="line"/>
      <point x="409" y="310"/>
      <point x="471" y="277"/>
      <point x="471" y="196" type="curve" smooth="yes"/>
      <point x="471" y="107"/>
      <point x="406" y="70"/>
      <point x="294" y="70" type="curve" smooth="yes"/>
    </contour>
    <contour>
      <point x="188" y="380" type="line"/>
      <point x="188" y="586" type="line"/>
      <point x="281" y="586" type="line"/>
      <point x="382" y="586"/>
      <point x="434" y="560"/>
      <point x="434" y="489" type="curve" smooth="yes"/>
      <point x="434" y="416"/>
      <point x="389" y="380"/>
      <point x="277" y="380" type="curve" smooth="yes"/>
    </contour>
  </outline>
</glyph>
<glyph name="eopenreversed" format="1">
  <advance width="600"/>
  <unicode hex="025C"/>
  <outline>
    <component base="ze"/>
    <contour>
      <point x="301" y="507" type="move" name="aboveLC"/>
    </contour>
    <contour>
      <point x="287" y="-20" type="move" name="belowLC"/>
    </contour>
  </outline>
</glyph>
<glyph name="eopenreversedclosed" format="1">
  <advance width="600"/>
  <unicode hex="025E"/>
  <outline>
    <contour>
      <point x="327" y="-12" type="curve" smooth="yes"/>
      <point x="455" y="-12"/>
      <point x="537" y="41"/>
      <point x="537" y="134" type="curve" smooth="yes"/>
      <point x="537" y="203"/>
      <point x="487" y="242"/>
      <point x="428" y="255" type="curve"/>
      <point x="428" y="259" type="line"/>
      <point x="483" y="277"/>
      <point x="512" y="319"/>
      <point x="512" y="367" type="curve" smooth="yes"/>
      <point x="512" y="456"/>
      <point x="429" y="498"/>
      <point x="321" y="498" type="curve" smooth="yes"/>
      <point x="185" y="498"/>
      <point x="61" y="410"/>
      <point x="61" y="241" type="curve" smooth="yes"/>
      <point x="61" y="75"/>
      <point x="175" y="-12"/>
    </contour>
    <contour>
      <point x="328" y="54" type="curve" smooth="yes"/>
      <point x="215" y="54"/>
      <point x="144" y="118"/>
      <point x="144" y="241" type="curve" smooth="yes"/>
      <point x="144" y="362"/>
      <point x="222" y="433"/>
      <point x="324" y="433" type="curve" smooth="yes"/>
      <point x="389" y="433"/>
      <point x="432" y="408"/>
      <point x="432" y="358" type="curve" smooth="yes"/>
      <point x="432" y="313"/>
      <point x="391" y="284"/>
      <point x="322" y="284" type="curve" smooth="yes"/>
      <point x="295" y="284" type="line"/>
      <point x="295" y="220" type="line"/>
      <point x="330" y="220" type="line"/>
      <point x="402" y="220"/>
      <point x="455" y="194"/>
      <point x="455" y="141" type="curve" smooth="yes"/>
      <point x="455" y="85"/>
      <point x="409" y="54"/>
    </contour>
    <contour>
      <point x="320" y="507" type="move" name="aboveLC"/>
    </contour>
    <contour>
      <point x="301" y="-20" type="move" name="belowLC"/>
    </contour>
  </outline>
</glyph>
<glyph name="dotlessjstroke" format="1">
  <advance width="600"/>
  <unicode hex="025F"/>
  <outline>
    <contour>
      <point x="133" y="217" type="line"/>
      <point x="564" y="217" type="line"/>
      <point x="564" y="264" type="line"/>
      <point x="301" y="264" type="line"/>
      <point x="133" y="259" type="line"/>
    </contour>
    <component base="dotlessj"/>
    <contour>
      <point x="348" y="507" type="move" name="aboveLC"/>
    </contour>
    <contour>
      <point x="237" y="-219" type="move" name="belowLC"/>
    </contour>
  </outline>
</glyph>
<glyph name="lmiddletilde" format="1">
  <advance width="600"/>
  <unicode hex="026B"/>
  <outline>
    <component base="l"/>
    <component base="tildeoverlaycmb" xOffset="-12" yOffset="142"/>
    <contour>
      <point x="285" y="736" type="move" name="aboveUC"/>
    </contour>
    <contour>
      <point x="385" y="-20" type="move" name="belowLC"/>
    </contour>
  </outline>
</glyph>
<glyph name="mturned" format="1">
  <advance width="600"/>
  <unicode hex="026F"/>
  <outline>
    <contour>
      <point x="153" y="-12" type="curve" smooth="yes"/>
      <point x="207" y="-12"/>
      <point x="239" y="21"/>
      <point x="267" y="72" type="curve"/>
      <point x="279" y="16"/>
      <point x="310" y="-12"/>
      <point x="359" y="-12" type="curve" smooth="yes"/>
      <point x="415" y="-12"/>
      <point x="444" y="19"/>
      <point x="468" y="64" type="curve"/>
      <point x="471" y="64" type="line"/>
      <point x="478" y="0" type="line"/>
      <point x="542" y="0" type="line"/>
      <point x="542" y="486" type="line"/>
      <point x="464" y="486" type="line"/>
      <point x="464" y="134" type="line"/>
      <point x="439" y="84"/>
      <point x="416" y="59"/>
      <point x="382" y="59" type="curve" smooth="yes"/>
      <point x="346" y="59"/>
      <point x="328" y="88"/>
      <point x="328" y="145" type="curve" smooth="yes"/>
      <point x="328" y="486" type="line"/>
      <point x="261" y="486" type="line"/>
      <point x="261" y="134" type="line"/>
      <point x="236" y="84"/>
      <point x="213" y="59"/>
      <point x="178" y="59" type="curve" smooth="yes"/>
      <point x="142" y="59"/>
      <point x="125" y="88"/>
      <point x="125" y="145" type="curve" smooth="yes"/>
      <point x="125" y="486" type="line"/>
      <point x="46" y="486" type="line"/>
      <point x="46" y="138" type="line"/>
      <point x="46" y="41"/>
      <point x="85" y="-12"/>
    </contour>
    <contour>
      <point x="295" y="508" type="move" name="aboveLC"/>
    </contour>
    <contour>
      <point x="298" y="-20" type="move" name="belowLC"/>
    </contour>
  </outline>
</glyph>
<glyph name="mlonglegturned" format="1">
  <advance width="600"/>
  <unicode hex="0270"/>
  <outline>
    <contour>
      <point x="464" y="-205" type="line"/>
      <point x="542" y="-205" type="line"/>
      <point x="542" y="486" type="line"/>
      <point x="464" y="486" type="line"/>
      <point x="464" y="134" type="line"/>
      <point x="439" y="84"/>
      <point x="416" y="59"/>
      <point x="382" y="59" type="curve" smooth="yes"/>
      <point x="346" y="59"/>
      <point x="328" y="88"/>
      <point x="328" y="145" type="curve" smooth="yes"/>
      <point x="328" y="486" type="line"/>
      <point x="261" y="486" type="line"/>
      <point x="261" y="134" type="line"/>
      <point x="236" y="84"/>
      <point x="213" y="59"/>
      <point x="178" y="59" type="curve" smooth="yes"/>
      <point x="142" y="59"/>
      <point x="125" y="88"/>
      <point x="125" y="145" type="curve" smooth="yes"/>
      <point x="125" y="486" type="line"/>
      <point x="46" y="486" type="line"/>
      <point x="46" y="138" type="line"/>
      <point x="46" y="41"/>
      <point x="85" y="-12"/>
      <point x="153" y="-12" type="curve" smooth="yes"/>
      <point x="207" y="-12"/>
      <point x="239" y="21"/>
      <point x="267" y="72" type="curve"/>
      <point x="279" y="16"/>
      <point x="310" y="-12"/>
      <point x="359" y="-12" type="curve" smooth="yes"/>
      <point x="411" y="-12"/>
      <point x="440" y="19"/>
      <point x="466" y="67" type="curve"/>
      <point x="470" y="67" type="line"/>
      <point x="464" y="-33" type="line"/>
    </contour>
    <contour>
      <point x="301" y="507" type="move" name="aboveLC"/>
    </contour>
    <contour>
      <point x="374" y="-226" type="move" name="belowLC"/>
    </contour>
  </outline>
</glyph>
<glyph name="mhook" format="1">
  <advance width="600"/>
  <unicode hex="0271"/>
  <outline>
    <contour>
      <point x="435" y="-217" type="curve" smooth="yes"/>
      <point x="522" y="-217"/>
      <point x="556" y="-160"/>
      <point x="556" y="-66" type="curve"/>
      <point x="556" y="348" type="line"/>
      <point x="556" y="445"/>
      <point x="517" y="498"/>
      <point x="450" y="498" type="curve" smooth="yes"/>
      <point x="396" y="498"/>
      <point x="363" y="465"/>
      <point x="335" y="414" type="curve"/>
      <point x="322" y="470"/>
      <point x="292" y="498"/>
      <point x="243" y="498" type="curve" smooth="yes"/>
      <point x="187" y="498"/>
      <point x="158" y="467"/>
      <point x="133" y="422" type="curve"/>
      <point x="131" y="422" type="line"/>
      <point x="124" y="486" type="line"/>
      <point x="60" y="486" type="line"/>
      <point x="60" y="0" type="line"/>
      <point x="139" y="0" type="line"/>
      <point x="139" y="352" type="line"/>
      <point x="164" y="402"/>
      <point x="186" y="427"/>
      <point x="220" y="427" type="curve" smooth="yes"/>
      <point x="256" y="427"/>
      <point x="275" y="398"/>
      <point x="275" y="341" type="curve" smooth="yes"/>
      <point x="275" y="0" type="line"/>
      <point x="341" y="0" type="line"/>
      <point x="341" y="352" type="line"/>
      <point x="366" y="402"/>
      <point x="389" y="427"/>
      <point x="424" y="427" type="curve" smooth="yes"/>
      <point x="460" y="427"/>
      <point x="477" y="398"/>
      <point x="477" y="341" type="curve" smooth="yes"/>
      <point x="477" y="-62" type="line"/>
      <point x="477" y="-115"/>
      <point x="469" y="-150"/>
      <point x="426" y="-150" type="curve" smooth="yes"/>
      <point x="411" y="-150"/>
      <point x="396" y="-146"/>
      <point x="385" y="-142" type="curve"/>
      <point x="369" y="-205" type="line"/>
      <point x="385" y="-212"/>
      <point x="409" y="-217"/>
    </contour>
    <contour>
      <point x="304" y="507" type="move" name="aboveLC"/>
    </contour>
  </outline>
</glyph>
<glyph name="obar" format="1">
  <advance width="600"/>
  <unicode hex="0275"/>
  <outline>
    <contour>
      <point x="300" y="-12" type="curve" smooth="yes"/>
      <point x="429" y="-12"/>
      <point x="540" y="75"/>
      <point x="540" y="242" type="curve" smooth="yes"/>
      <point x="540" y="411"/>
      <point x="429" y="498"/>
      <point x="300" y="498" type="curve" smooth="yes"/>
      <point x="171" y="498"/>
      <point x="60" y="411"/>
      <point x="60" y="242" type="curve" smooth="yes"/>
      <point x="60" y="75"/>
      <point x="171" y="-12"/>
    </contour>
    <contour>
      <point x="300" y="53" type="curve" smooth="yes"/>
      <point x="204" y="53"/>
      <point x="138" y="123"/>
      <point x="138" y="242" type="curve" smooth="yes"/>
      <point x="138" y="362"/>
      <point x="204" y="434"/>
      <point x="300" y="434" type="curve" smooth="yes"/>
      <point x="396" y="434"/>
      <point x="462" y="362"/>
      <point x="462" y="242" type="curve" smooth="yes"/>
      <point x="462" y="123"/>
      <point x="396" y="53"/>
    </contour>
    <contour>
      <point x="120" y="220" type="line"/>
      <point x="476" y="220" type="line"/>
      <point x="476" y="284" type="line"/>
      <point x="120" y="284" type="line"/>
    </contour>
    <contour>
      <point x="300" y="507" type="move" name="aboveLC"/>
    </contour>
    <contour>
      <point x="300" y="-20" type="move" name="belowLC"/>
    </contour>
  </outline>
</glyph>
<glyph name="rhookturned" format="1">
  <advance width="600"/>
  <unicode hex="027B"/>
  <outline>
    <contour>
      <point x="426" y="-183" type="curve" smooth="yes"/>
      <point x="457" y="-183"/>
      <point x="489" y="-175"/>
      <point x="509" y="-165" type="curve"/>
      <point x="491" y="-103" type="line"/>
      <point x="474" y="-109"/>
      <point x="454" y="-116"/>
      <point x="435" y="-116" type="curve" smooth="yes"/>
      <point x="386" y="-116"/>
      <point x="370" y="-86"/>
      <point x="370" y="-15" type="curve"/>
      <point x="370" y="486" type="line"/>
      <point x="287" y="486" type="line"/>
      <point x="287" y="181" type="line"/>
      <point x="252" y="93"/>
      <point x="208" y="62"/>
      <point x="159" y="62" type="curve" smooth="yes"/>
      <point x="127" y="62"/>
      <point x="111" y="67"/>
      <point x="82" y="79" type="curve"/>
      <point x="56" y="8" type="line"/>
      <point x="86" y="-7"/>
      <point x="117" y="-12"/>
      <point x="150" y="-12" type="curve" smooth="yes"/>
      <point x="215" y="-12"/>
      <point x="258" y="28"/>
      <point x="292" y="92" type="curve"/>
      <point x="295" y="92" type="line"/>
      <point x="295" y="-25" type="line"/>
      <point x="295" y="-125"/>
      <point x="330" y="-183"/>
    </contour>
    <contour>
      <point x="318" y="507" type="move" name="aboveLC"/>
    </contour>
    <contour>
      <point x="300" y="-219" type="move" name="belowLC"/>
    </contour>
  </outline>
</glyph>
<glyph name="rsmall" format="1">
  <advance width="600"/>
  <unicode hex="0280"/>
  <outline>
    <contour>
      <point x="99" y="0" type="line"/>
      <point x="182" y="0" type="line"/>
      <point x="182" y="190" type="line"/>
      <point x="343" y="190" type="line"/>
      <point x="434" y="190"/>
      <point x="523" y="235"/>
      <point x="523" y="342" type="curve" smooth="yes"/>
      <point x="523" y="449"/>
      <point x="444" y="486"/>
      <point x="339" y="486" type="curve" smooth="yes"/>
      <point x="99" y="486" type="line"/>
    </contour>
    <contour>
      <point x="182" y="254" type="line"/>
      <point x="182" y="420" type="line"/>
      <point x="325" y="420" type="line" smooth="yes"/>
      <point x="398" y="420"/>
      <point x="441" y="398"/>
      <point x="441" y="340" type="curve" smooth="yes"/>
      <point x="441" y="283"/>
      <point x="398" y="254"/>
      <point x="325" y="254" type="curve" smooth="yes"/>
    </contour>
    <contour>
      <point x="452" y="0" type="line"/>
      <point x="545" y="0" type="line"/>
      <point x="372" y="234" type="line"/>
      <point x="301" y="210" type="line"/>
    </contour>
    <contour>
      <point x="316" y="507" type="move" name="aboveLC"/>
    </contour>
    <contour>
      <point x="316" y="-20" type="move" name="belowLC"/>
    </contour>
  </outline>
</glyph>
<glyph name="tturned" format="1">
  <advance width="600"/>
  <unicode hex="0287"/>
  <outline>
    <component base="t" xScale="-1" yScale="-1" xOffset="600" yOffset="486"/>
    <contour>
      <point x="235" y="507" type="move" name="aboveLC"/>
    </contour>
    <contour>
      <point x="352" y="-72" type="move" name="belowLC"/>
    </contour>
  </outline>
</glyph>
<glyph name="ubar" format="1">
  <advance width="600"/>
  <unicode hex="0289"/>
  <outline>
    <contour>
      <point x="246" y="-12" type="curve" smooth="yes"/>
      <point x="313" y="-12"/>
      <point x="362" y="22"/>
      <point x="408" y="76" type="curve"/>
      <point x="410" y="76" type="line"/>
      <point x="416" y="0" type="line"/>
      <point x="484" y="0" type="line"/>
      <point x="484" y="486" type="line"/>
      <point x="402" y="486" type="line"/>
      <point x="402" y="142" type="line"/>
      <point x="356" y="84"/>
      <point x="322" y="60"/>
      <point x="272" y="60" type="curve" smooth="yes"/>
      <point x="208" y="60"/>
      <point x="180" y="98"/>
      <point x="180" y="188" type="curve" smooth="yes"/>
      <point x="180" y="486" type="line"/>
      <point x="98" y="486" type="line"/>
      <point x="98" y="178" type="line" smooth="yes"/>
      <point x="98" y="54"/>
      <point x="144" y="-12"/>
    </contour>
    <contour>
      <point x="2" y="254" type="line"/>
      <point x="586" y="254" type="line"/>
      <point x="586" y="316" type="line"/>
      <point x="98" y="316" type="line"/>
      <point x="2" y="310" type="line"/>
    </contour>
    <contour>
      <point x="295.0" y="507.0" type="move" name="aboveLC"/>
    </contour>
    <contour>
      <point x="443.0" y="0.0" type="move" name="baseLC"/>
    </contour>
    <contour>
      <point x="300.0" y="-20.0" type="move" name="belowLC"/>
    </contour>
  </outline>
</glyph>
<glyph name="vturned" format="1">
  <advance width="600"/>
  <unicode hex="028C"/>
  <outline>
    <component base="v" xScale="-1" yScale="-1" xOffset="600" yOffset="486"/>
    <contour>
      <point x="300" y="507" type="move" name="aboveLC"/>
    </contour>
    <contour>
      <point x="300" y="-20" type="move" name="belowLC"/>
    </contour>
  </outline>
</glyph>
<glyph name="ysmall" format="1">
  <advance width="600"/>
  <unicode hex="028F"/>
  <outline>
    <contour>
      <point x="260" y="0" type="line"/>
      <point x="342" y="0" type="line"/>
      <point x="342" y="164" type="line"/>
      <point x="545" y="486" type="line"/>
      <point x="457" y="486" type="line"/>
      <point x="373" y="348" type="line"/>
      <point x="347" y="305"/>
      <point x="326" y="270"/>
      <point x="304" y="226" type="curve"/>
      <point x="300" y="226" type="line"/>
      <point x="278" y="270"/>
      <point x="254" y="306"/>
      <point x="231" y="348" type="curve" smooth="yes"/>
      <point x="146" y="486" type="line"/>
      <point x="57" y="486" type="line"/>
      <point x="260" y="164" type="line"/>
    </contour>
    <contour>
      <point x="300" y="507" type="move" name="aboveLC"/>
    </contour>
    <contour>
      <point x="300" y="-20" type="move" name="belowLC"/>
    </contour>
  </outline>
</glyph>
<glyph name="zcurl" format="1">
  <advance width="600"/>
  <unicode hex="0291"/>
  <outline>
    <contour>
      <point x="354" y="-81" type="line"/>
      <point x="386" y="89"/>
      <point x="440" y="162"/>
      <point x="486" y="162" type="curve" smooth="yes"/>
      <point x="515" y="162"/>
      <point x="527" y="145"/>
      <point x="527" y="122" type="curve" smooth="yes"/>
      <point x="527" y="92"/>
      <point x="498" y="63"/>
      <point x="445" y="63" type="curve" smooth="yes"/>
      <point x="356" y="63"/>
      <point x="269" y="65"/>
      <point x="180" y="67" type="curve"/>
      <point x="503" y="442" type="line"/>
      <point x="503" y="486" type="line"/>
      <point x="108" y="486" type="line"/>
      <point x="108" y="419" type="line"/>
      <point x="395" y="419" type="line"/>
      <point x="71" y="44" type="line"/>
      <point x="71" y="0" type="line"/>
      <point x="424" y="0" type="line"/>
      <point x="530" y="0"/>
      <point x="579" y="54"/>
      <point x="579" y="120" type="curve" smooth="yes"/>
      <point x="579" y="179"/>
      <point x="544" y="212"/>
      <point x="487" y="212" type="curve" smooth="yes"/>
      <point x="405" y="212"/>
      <point x="344" y="105"/>
      <point x="306" y="-71" type="curve"/>
    </contour>
    <contour>
      <point x="311" y="507" type="move" name="aboveLC"/>
    </contour>
  </outline>
</glyph>
<glyph name="bsmall" format="1">
  <advance width="600"/>
  <unicode hex="0299"/>
  <outline>
    <component base="ve" xOffset="11"/>
    <contour>
      <point x="320" y="507" type="move" name="aboveLC"/>
    </contour>
    <contour>
      <point x="320" y="-20" type="move" name="belowLC"/>
    </contour>
  </outline>
</glyph>
<glyph name="hsmall" format="1">
  <advance width="600"/>
  <unicode hex="029C"/>
  <outline>
    <component base="en"/>
    <contour>
      <point x="300" y="507" type="move" name="aboveLC"/>
    </contour>
    <contour>
      <point x="300" y="-20" type="move" name="belowLC"/>
    </contour>
  </outline>
</glyph>
<glyph name="kturned" format="1">
  <advance width="600"/>
  <unicode hex="029E"/>
  <outline>
    <contour>
      <point x="0" y="0" type="line"/>
      <point x="600" y="0" type="line"/>
      <point x="600" y="20" type="line"/>
      <point x="0" y="20" type="line"/>
    </contour>
  </outline>
</glyph>
<glyph name="lsmall" format="1">
  <advance width="600"/>
  <unicode hex="029F"/>
  <outline>
    <contour>
      <point x="148" y="0" type="line"/>
      <point x="532" y="0" type="line"/>
      <point x="532" y="67" type="line"/>
      <point x="230" y="67" type="line"/>
      <point x="230" y="486" type="line"/>
      <point x="148" y="486" type="line"/>
    </contour>
    <contour>
      <point x="191" y="507" type="move" name="aboveLC"/>
    </contour>
    <contour>
      <point x="343" y="-20" type="move" name="belowLC"/>
    </contour>
  </outline>
</glyph>
<glyph name="dezh" format="1">
  <advance width="600"/>
  <unicode hex="02A4"/>
  <outline>
    <contour>
      <point x="155" y="-12" type="curve" smooth="yes"/>
      <point x="202" y="-12"/>
      <point x="238" y="23"/>
      <point x="259" y="61" type="curve"/>
      <point x="262" y="61" type="line"/>
      <point x="269" y="0" type="line"/>
      <point x="323" y="0" type="line"/>
      <point x="323" y="712" type="line"/>
      <point x="256" y="712" type="line"/>
      <point x="256" y="535" type="line"/>
      <point x="260" y="438" type="line"/>
      <point x="258" y="438" type="line"/>
      <point x="237" y="471"/>
      <point x="205" y="498"/>
      <point x="164" y="498" type="curve" smooth="yes"/>
      <point x="77" y="498"/>
      <point x="3" y="398"/>
      <point x="3" y="242" type="curve" smooth="yes"/>
      <point x="3" y="82"/>
      <point x="65" y="-12"/>
    </contour>
    <contour>
      <point x="172" y="57" type="curve" smooth="yes"/>
      <point x="113" y="57"/>
      <point x="77" y="128"/>
      <point x="77" y="243" type="curve" smooth="yes"/>
      <point x="77" y="353"/>
      <point x="121" y="429"/>
      <point x="178" y="429" type="curve" smooth="yes"/>
      <point x="210" y="429"/>
      <point x="234" y="407"/>
      <point x="256" y="372" type="curve"/>
      <point x="256" y="132" type="line"/>
      <point x="236" y="89"/>
      <point x="207" y="57"/>
    </contour>
    <contour>
      <point x="455" y="-217" type="curve" smooth="yes"/>
      <point x="548" y="-217"/>
      <point x="618" y="-137"/>
      <point x="618" y="0" type="curve" smooth="yes"/>
      <point x="618" y="124"/>
      <point x="544" y="219"/>
      <point x="419" y="184" type="curve"/>
      <point x="434" y="160" type="line"/>
      <point x="597" y="442" type="line"/>
      <point x="597" y="486" type="line"/>
      <point x="305" y="486" type="line"/>
      <point x="305" y="419" type="line"/>
      <point x="514" y="419" type="line"/>
      <point x="366" y="167" type="line"/>
      <point x="397" y="117" type="line"/>
      <point x="415" y="127"/>
      <point x="426" y="132"/>
      <point x="447" y="132" type="curve" smooth="yes"/>
      <point x="505" y="132"/>
      <point x="544" y="84"/>
      <point x="544" y="0" type="curve" smooth="yes"/>
      <point x="544" y="-99"/>
      <point x="502" y="-149"/>
      <point x="449" y="-149" type="curve" smooth="yes"/>
      <point x="401" y="-149"/>
      <point x="373" y="-129"/>
      <point x="347" y="-102" type="curve"/>
      <point x="310" y="-157" type="line"/>
      <point x="345" y="-191"/>
      <point x="385" y="-217"/>
    </contour>
    <contour>
      <point x="280.0" y="730.0" type="move" name="aboveUC"/>
    </contour>
    <contour>
      <point x="330.0" y="-219.0" type="move" name="belowLC"/>
    </contour>
  </outline>
</glyph>
<glyph name="verticallinemod" format="1">
  <advance width="600"/>
  <unicode hex="02C8"/>
  <outline>
    <contour>
      <point x="272" y="397" type="line"/>
      <point x="328" y="397" type="line"/>
      <point x="351" y="716" type="line"/>
      <point x="249" y="716" type="line"/>
    </contour>
  </outline>
</glyph>
<glyph name="colontriangularhalfmod" format="1">
  <advance width="600"/>
  <unicode hex="02D1"/>
  <outline>
    <contour>
      <point x="295" y="343" type="line"/>
      <point x="305" y="343" type="line"/>
      <point x="398" y="503" type="line"/>
      <point x="202" y="503" type="line"/>
    </contour>
  </outline>
</glyph>
<glyph name="gravecmb" format="1">
  <advance width="600"/>
  <unicode hex="0300"/>
  <outline>
    <contour>
      <point x="321" y="568" type="line"/>
      <point x="364" y="609" type="line"/>
      <point x="222" y="777" type="line"/>
      <point x="164" y="721" type="line"/>
    </contour>
    <contour>
      <point x="300" y="507" type="move" name="_aboveLC"/>
    </contour>
    <contour>
      <point x="300" y="618" type="move" name="aboveLC"/>
    </contour>
  </outline>
</glyph>
<glyph name="tildecmb" format="1">
  <advance width="600"/>
  <unicode hex="0303"/>
  <outline>
    <contour>
      <point x="372" y="577" type="curve" smooth="yes"/>
      <point x="441" y="577"/>
      <point x="470" y="635"/>
      <point x="473" y="712" type="curve"/>
      <point x="418" y="716" type="line"/>
      <point x="415" y="670"/>
      <point x="401" y="637"/>
      <point x="372" y="637" type="curve" smooth="yes"/>
      <point x="325" y="637"/>
      <point x="299" y="721"/>
      <point x="228" y="721" type="curve" smooth="yes"/>
      <point x="159" y="721"/>
      <point x="130" y="663"/>
      <point x="127" y="585" type="curve"/>
      <point x="182" y="582" type="line"/>
      <point x="185" y="629"/>
      <point x="199" y="661"/>
      <point x="229" y="661" type="curve" smooth="yes"/>
      <point x="275" y="661"/>
      <point x="301" y="577"/>
    </contour>
    <contour>
      <point x="300" y="507" type="move" name="_aboveLC"/>
    </contour>
    <contour>
      <point x="300" y="588" type="move" name="aboveLC"/>
    </contour>
  </outline>
</glyph>
<glyph name="macroncmb" format="1">
  <advance width="600"/>
  <unicode hex="0304"/>
  <outline>
    <contour>
      <point x="167" y="601" type="line"/>
      <point x="433" y="601" type="line"/>
      <point x="433" y="658" type="line"/>
      <point x="167" y="658" type="line"/>
    </contour>
    <contour>
      <point x="300" y="507" type="move" name="_aboveLC"/>
    </contour>
    <contour>
      <point x="300" y="574" type="move" name="aboveLC"/>
    </contour>
  </outline>
</glyph>
<glyph name="brevecmb" format="1">
  <advance width="600"/>
  <unicode hex="0306"/>
  <outline>
    <contour>
      <point x="300" y="571" type="curve" smooth="yes"/>
      <point x="407" y="571"/>
      <point x="451" y="648"/>
      <point x="456" y="722" type="curve"/>
      <point x="405" y="730" type="line"/>
      <point x="397" y="679"/>
      <point x="365" y="626"/>
      <point x="300" y="626" type="curve" smooth="yes"/>
      <point x="235" y="626"/>
      <point x="203" y="679"/>
      <point x="195" y="730" type="curve"/>
      <point x="144" y="722" type="line"/>
      <point x="149" y="648"/>
      <point x="193" y="571"/>
    </contour>
    <contour>
      <point x="300" y="507" type="move" name="_aboveLC"/>
    </contour>
    <contour>
      <point x="300" y="588" type="move" name="aboveLC"/>
    </contour>
  </outline>
</glyph>
<glyph name="dotbelowcmb" format="1">
  <advance width="600"/>
  <unicode hex="0323"/>
  <outline>
    <component base="dotaccentcmb" yOffset="-803"/>
    <contour>
      <point x="300" y="-20" type="move" name="_belowLC"/>
    </contour>
  </outline>
</glyph>
<glyph name="dieresisbelowcmb" format="1">
  <advance width="600"/>
  <unicode hex="0324"/>
  <outline>
    <component base="dieresiscmb" yOffset="-796"/>
    <contour>
      <point x="300" y="-20" type="move" name="_belowLC"/>
    </contour>
  </outline>
</glyph>
<glyph name="ringbelowcmb" format="1">
  <advance width="600"/>
  <unicode hex="0325"/>
  <outline>
    <component base="ringcmb" yOffset="-813"/>
    <contour>
      <point x="300" y="-20" type="move" name="_belowLC"/>
    </contour>
  </outline>
</glyph>
<glyph name="ogonekcmb" format="1">
  <advance width="600"/>
  <unicode hex="0328"/>
  <outline>
    <contour>
      <point x="318" y="-225" type="curve" smooth="yes"/>
      <point x="358" y="-225"/>
      <point x="390" y="-210"/>
      <point x="413" y="-189" type="curve"/>
      <point x="389" y="-150" type="line"/>
      <point x="377" y="-161"/>
      <point x="359" y="-171"/>
      <point x="335" y="-171" type="curve" smooth="yes"/>
      <point x="307" y="-171"/>
      <point x="277" y="-154"/>
      <point x="277" y="-116" type="curve" smooth="yes"/>
      <point x="277" y="-72"/>
      <point x="310" y="-33"/>
      <point x="359" y="3" type="curve"/>
      <point x="301" y="3" type="line"/>
      <point x="263" y="-25"/>
      <point x="217" y="-71"/>
      <point x="217" y="-132" type="curve" smooth="yes"/>
      <point x="217" y="-195"/>
      <point x="260" y="-225"/>
    </contour>
    <contour>
      <point x="300" y="0" type="move" name="_ogonekLC"/>
    </contour>
  </outline>
</glyph>
<glyph name="caronbelowcmb" format="1">
  <advance width="600"/>
  <unicode hex="032C"/>
  <outline>
    <component base="caroncmb" yOffset="-798"/>
    <contour>
      <point x="300" y="-20" type="move" name="_belowLC"/>
    </contour>
  </outline>
</glyph>
<glyph name="brevebelowcmb" format="1">
  <advance width="600"/>
  <unicode hex="032E"/>
  <outline>
    <component base="brevecmb" yOffset="-802"/>
    <contour>
      <point x="300" y="-20" type="move" name="_belowLC"/>
    </contour>
  </outline>
</glyph>
<glyph name="breveinvertedbelowcmb" format="1">
  <advance width="600"/>
  <unicode hex="032F"/>
  <outline>
    <component base="breveinvertedcmb" yOffset="-805"/>
    <contour>
      <point x="300" y="-20" type="move" name="_belowLC"/>
    </contour>
  </outline>
</glyph>
<glyph name="macronbelowcmb" format="1">
  <advance width="600"/>
  <unicode hex="0331"/>
  <outline>
    <component base="macroncmb" yOffset="-771"/>
    <contour>
      <point x="300" y="-20" type="move" name="_belowLC"/>
    </contour>
  </outline>
</glyph>
<glyph name="tildeoverlaycmb" format="1">
  <advance width="600"/>
  <unicode hex="0334"/>
  <outline>
    <contour>
      <point x="385" y="173" type="curve" smooth="yes"/>
      <point x="452" y="173"/>
      <point x="479" y="231"/>
      <point x="482" y="308" type="curve"/>
      <point x="427" y="312" type="line"/>
      <point x="424" y="265"/>
      <point x="410" y="233"/>
      <point x="381" y="233" type="curve" smooth="yes"/>
      <point x="327" y="233"/>
      <point x="295" y="317"/>
      <point x="216" y="317" type="curve" smooth="yes"/>
      <point x="148" y="317"/>
      <point x="121" y="259"/>
      <point x="118" y="181" type="curve"/>
      <point x="173" y="178" type="line"/>
      <point x="176" y="225"/>
      <point x="190" y="257"/>
      <point x="220" y="257" type="curve" smooth="yes"/>
      <point x="273" y="257"/>
      <point x="305" y="173"/>
    </contour>
    <contour>
      <point x="300" y="244" type="move" name="_center"/>
    </contour>
  </outline>
</glyph>
<glyph name="xabovecmb" format="1">
  <advance width="600"/>
  <unicode hex="033D"/>
  <outline>
    <contour>
      <point x="238" y="565" type="line"/>
      <point x="300" y="623" type="line"/>
      <point x="362" y="565" type="line"/>
      <point x="394" y="595" type="line"/>
      <point x="333" y="652" type="line"/>
      <point x="394" y="709" type="line"/>
      <point x="362" y="739" type="line"/>
      <point x="300" y="681" type="line"/>
      <point x="238" y="739" type="line"/>
      <point x="206" y="709" type="line"/>
      <point x="267" y="652" type="line"/>
      <point x="206" y="595" type="line"/>
    </contour>
    <contour>
      <point x="300" y="507" type="move" name="_aboveLC"/>
    </contour>
  </outline>
</glyph>
<glyph name="iotasubscript" format="1">
  <advance width="600"/>
  <unicode hex="037A"/>
  <outline>
    <component base="iotasubscriptcmb"/>
    <contour>
      <point x="300" y="-20" type="move" name="_belowLC"/>
    </contour>
  </outline>
</glyph>
<glyph name="tonos" format="1">
  <advance width="600"/>
  <unicode hex="0384"/>
  <outline>
    <component base="tonoscmb"/>
    <contour>
      <point x="300" y="507" type="move" name="_aboveLC"/>
    </contour>
  </outline>
</glyph>
<glyph name="dieresistonos" format="1">
  <advance width="600"/>
  <unicode hex="0385"/>
  <outline>
    <component base="dieresistonoscmb"/>
    <contour>
      <point x="300" y="507" type="move" name="_aboveLC"/>
    </contour>
  </outline>
</glyph>
<glyph name="Alphatonos" format="1">
  <advance width="600"/>
  <unicode hex="0386"/>
  <outline>
    <contour>
      <point x="54" y="0" type="line"/>
      <point x="139" y="0" type="line"/>
      <point x="248" y="367" type="line"/>
      <point x="269" y="440"/>
      <point x="287" y="501"/>
      <point x="308" y="580" type="curve"/>
      <point x="312" y="580" type="line"/>
      <point x="332" y="501"/>
      <point x="351" y="440"/>
      <point x="372" y="367" type="curve" smooth="yes"/>
      <point x="480" y="0" type="line"/>
      <point x="568" y="0" type="line"/>
      <point x="358" y="656" type="line"/>
      <point x="264" y="656" type="line"/>
    </contour>
    <contour>
      <point x="170" y="200" type="line"/>
      <point x="449" y="200" type="line"/>
      <point x="449" y="267" type="line"/>
      <point x="170" y="267" type="line"/>
    </contour>
    <component base="tonos.cap" xOffset="-204"/>
  </outline>
</glyph>
<glyph name="Delta" format="1">
  <advance width="600"/>
  <unicode hex="0394"/>
  <outline>
    <contour>
      <point x="26" y="0" type="line"/>
      <point x="574" y="0" type="line"/>
      <point x="574" y="104" type="line"/>
      <point x="404" y="650" type="line"/>
      <point x="196" y="650" type="line"/>
      <point x="26" y="104" type="line"/>
    </contour>
    <contour>
      <point x="210" y="144" type="line"/>
      <point x="254" y="334" type="line"/>
      <point x="294" y="522" type="line"/>
      <point x="298" y="522" type="line"/>
      <point x="340" y="334" type="line"/>
      <point x="386" y="144" type="line"/>
    </contour>
  </outline>
</glyph>
<glyph name="Epsilon" format="1">
  <advance width="600"/>
  <unicode hex="0395"/>
  <outline>
    <component base="E"/>
    <contour>
      <point x="331" y="676" type="move" name="aboveUC"/>
    </contour>
  </outline>
</glyph>
<glyph name="Eta" format="1">
  <advance width="600"/>
  <unicode hex="0397"/>
  <outline>
    <component base="H"/>
    <contour>
      <point x="300" y="676" type="move" name="aboveUC"/>
    </contour>
    <contour>
      <point x="300" y="-20" type="move" name="belowLC"/>
    </contour>
  </outline>
</glyph>
<glyph name="Omicron" format="1">
  <advance width="600"/>
  <unicode hex="039F"/>
  <outline>
    <component base="O"/>
    <contour>
      <point x="300" y="676" type="move" name="aboveUC"/>
    </contour>
  </outline>
</glyph>
<glyph name="Rho" format="1">
  <advance width="600"/>
  <unicode hex="03A1"/>
  <outline>
    <component base="P"/>
    <contour>
      <point x="320" y="676" type="move" name="aboveUC"/>
    </contour>
  </outline>
</glyph>
<glyph name="Phi" format="1">
  <advance width="600"/>
  <unicode hex="03A6"/>
  <outline>
    <contour>
      <point x="284" y="65" type="curve"/>
      <point x="316" y="65" type="line"/>
      <point x="471" y="65"/>
      <point x="574" y="165"/>
      <point x="574" y="331" type="curve" smooth="yes"/>
      <point x="574" y="496"/>
      <point x="471" y="592"/>
      <point x="316" y="592" type="curve" smooth="yes"/>
      <point x="284" y="592" type="line"/>
      <point x="129" y="592"/>
      <point x="26" y="496"/>
      <point x="26" y="331" type="curve" smooth="yes"/>
      <point x="26" y="165"/>
      <point x="129" y="65"/>
    </contour>
    <contour>
      <point x="280" y="130" type="line"/>
      <point x="172" y="130"/>
      <point x="104" y="210"/>
      <point x="104" y="331" type="curve" smooth="yes"/>
      <point x="104" y="451"/>
      <point x="172" y="527"/>
      <point x="280" y="527" type="curve" smooth="yes"/>
      <point x="320" y="527" type="line"/>
      <point x="427" y="527"/>
      <point x="496" y="451"/>
      <point x="496" y="331" type="curve" smooth="yes"/>
      <point x="496" y="210"/>
      <point x="427" y="130"/>
      <point x="320" y="130" type="curve" smooth="yes"/>
    </contour>
    <contour>
      <point x="267" y="-22" type="line"/>
      <point x="333" y="-22" type="line"/>
      <point x="333" y="678" type="line"/>
      <point x="267" y="678" type="line"/>
    </contour>
  </outline>
</glyph>
<glyph name="iota" format="1">
  <advance width="600"/>
  <unicode hex="03B9"/>
  <outline>
    <contour>
      <point x="368" y="-12" type="curve" smooth="yes"/>
      <point x="415" y="-12"/>
      <point x="445" y="-2"/>
      <point x="470" y="9" type="curve"/>
      <point x="453" y="72" type="line"/>
      <point x="432" y="62"/>
      <point x="405" y="56"/>
      <point x="386" y="56" type="curve" smooth="yes"/>
      <point x="344" y="56"/>
      <point x="319" y="77"/>
      <point x="319" y="125" type="curve" smooth="yes"/>
      <point x="319" y="234"/>
      <point x="322" y="365"/>
      <point x="324" y="486" type="curve"/>
      <point x="241" y="486" type="line"/>
      <point x="241" y="131" type="line"/>
      <point x="241" y="39"/>
      <point x="277" y="-12"/>
    </contour>
    <contour>
      <point x="276" y="507" type="move" name="aboveLC"/>
    </contour>
  </outline>
</glyph>
<glyph name="psi" format="1">
  <advance width="600"/>
  <unicode hex="03C8"/>
  <outline>
    <contour>
      <point x="269" y="-12" type="curve"/>
      <point x="267" y="55" type="line"/>
      <point x="176" y="55"/>
      <point x="137" y="116"/>
      <point x="137" y="211" type="curve" smooth="yes"/>
      <point x="137" y="244"/>
      <point x="139" y="317"/>
      <point x="139" y="373" type="curve" smooth="yes"/>
      <point x="139" y="416"/>
      <point x="138" y="452"/>
      <point x="133" y="486" type="curve"/>
      <point x="53" y="486" type="line"/>
      <point x="59" y="435"/>
      <point x="60" y="391"/>
      <point x="60" y="353" type="curve" smooth="yes"/>
      <point x="60" y="215" type="line"/>
      <point x="60" y="80"/>
      <point x="125" y="-12"/>
    </contour>
    <contour>
      <point x="324" y="-12" type="line"/>
      <point x="468" y="-12"/>
      <point x="553" y="85"/>
      <point x="553" y="258" type="curve" smooth="yes"/>
      <point x="553" y="345"/>
      <point x="540" y="415"/>
      <point x="510" y="498" type="curve"/>
      <point x="434" y="479" type="line"/>
      <point x="466" y="391"/>
      <point x="474" y="331"/>
      <point x="474" y="256" type="curve" smooth="yes"/>
      <point x="474" y="119"/>
      <point x="420" y="55"/>
      <point x="325" y="55" type="curve"/>
    </contour>
    <contour>
      <point x="262" y="-179" type="line"/>
      <point x="342" y="-179" type="line"/>
      <point x="342" y="622" type="line"/>
      <point x="262" y="622" type="line"/>
    </contour>
  </outline>
</glyph>
<glyph name="Ie" format="1">
  <advance width="600"/>
  <unicode hex="0415"/>
  <outline>
    <component base="E"/>
    <contour>
      <point x="331" y="676" type="move" name="aboveUC"/>
    </contour>
  </outline>
</glyph>
<glyph name="Ocyr" format="1">
  <advance width="600"/>
  <unicode hex="041E"/>
  <outline>
    <component base="O"/>
    <contour>
      <point x="300" y="676" type="move" name="aboveUC"/>
    </contour>
  </outline>
</glyph>
<glyph name="acyr" format="1">
  <advance width="600"/>
  <unicode hex="0430"/>
  <outline>
    <component base="a"/>
    <contour>
      <point x="320" y="507" type="move" name="aboveLC"/>
    </contour>
  </outline>
</glyph>
<glyph name="ve" format="1">
  <advance width="600"/>
  <unicode hex="0432"/>
  <outline>
    <contour>
      <point x="104" y="0" type="line"/>
      <point x="337" y="0" type="line"/>
      <point x="455" y="0"/>
      <point x="539" y="43"/>
      <point x="539" y="139" type="curve" smooth="yes"/>
      <point x="539" y="209"/>
      <point x="490" y="242"/>
      <point x="433" y="256" type="curve"/>
      <point x="433" y="259" type="line"/>
      <point x="485" y="275"/>
      <point x="518" y="309"/>
      <point x="518" y="363" type="curve" smooth="yes"/>
      <point x="518" y="451"/>
      <point x="441" y="486"/>
      <point x="329" y="486" type="curve" smooth="yes"/>
      <point x="104" y="486" type="line"/>
    </contour>
    <contour>
      <point x="185" y="284" type="line"/>
      <point x="185" y="422" type="line"/>
      <point x="321" y="422" type="line"/>
      <point x="403" y="422"/>
      <point x="438" y="400"/>
      <point x="438" y="355" type="curve" smooth="yes"/>
      <point x="438" y="310"/>
      <point x="403" y="284"/>
      <point x="315" y="284" type="curve" smooth="yes"/>
    </contour>
    <contour>
      <point x="185" y="64" type="line"/>
      <point x="185" y="220" type="line"/>
      <point x="323" y="220" type="line"/>
      <point x="411" y="220"/>
      <point x="457" y="193"/>
      <point x="457" y="144" type="curve" smooth="yes"/>
      <point x="457" y="90"/>
      <point x="416" y="64"/>
      <point x="328" y="64" type="curve" smooth="yes"/>
    </contour>
    <contour>
      <point x="320" y="507" type="move" name="aboveLC"/>
    </contour>
  </outline>
</glyph>
<glyph name="ie" format="1">
  <advance width="600"/>
  <unicode hex="0435"/>
  <outline>
    <component base="e"/>
    <contour>
      <point x="316" y="507" type="move" name="aboveLC"/>
    </contour>
  </outline>
</glyph>
<glyph name="em" format="1">
  <advance width="600"/>
  <unicode hex="043C"/>
  <outline>
    <contour>
      <point x="64" y="0" type="line"/>
      <point x="142" y="0" type="line"/>
      <point x="142" y="218" type="line"/>
      <point x="142" y="261"/>
      <point x="136" y="336"/>
      <point x="132" y="386" type="curve"/>
      <point x="136" y="386" type="line"/>
      <point x="150" y="348"/>
      <point x="163" y="306"/>
      <point x="178" y="270" type="curve" smooth="yes"/>
      <point x="270" y="46" type="line"/>
      <point x="332" y="46" type="line"/>
      <point x="420" y="270" type="line"/>
      <point x="434" y="306"/>
      <point x="450" y="348"/>
      <point x="464" y="386" type="curve"/>
      <point x="468" y="386" type="line"/>
      <point x="464" y="336"/>
      <point x="458" y="261"/>
      <point x="458" y="218" type="curve" smooth="yes"/>
      <point x="458" y="0" type="line"/>
      <point x="536" y="0" type="line"/>
      <point x="536" y="486" type="line"/>
      <point x="436" y="486" type="line"/>
      <point x="346" y="258" type="line"/>
      <point x="333" y="218"/>
      <point x="318" y="180"/>
      <point x="303" y="140" type="curve"/>
      <point x="299" y="140" type="line"/>
      <point x="286" y="180"/>
      <point x="271" y="218"/>
      <point x="256" y="258" type="curve"/>
      <point x="164" y="486" type="line"/>
      <point x="64" y="486" type="line"/>
    </contour>
    <contour>
      <point x="300" y="507" type="move" name="aboveLC"/>
    </contour>
  </outline>
</glyph>
<glyph name="ocyr" format="1">
  <advance width="600"/>
  <unicode hex="043E"/>
  <outline>
    <component base="o" xOffset="-3"/>
    <contour>
      <point x="300" y="507" type="move" name="aboveLC"/>
    </contour>
  </outline>
</glyph>
<glyph name="er" format="1">
  <advance width="600"/>
  <unicode hex="0440"/>
  <outline>
    <component base="p"/>
    <contour>
      <point x="321" y="507" type="move" name="aboveLC"/>
    </contour>
  </outline>
</glyph>
<glyph name="es" format="1">
  <advance width="600"/>
  <unicode hex="0441"/>
  <outline>
    <component base="c"/>
    <contour>
      <point x="346" y="507" type="move" name="aboveLC"/>
    </contour>
  </outline>
</glyph>
<glyph name="ucyr" format="1">
  <advance width="600"/>
  <unicode hex="0443"/>
  <outline>
    <component base="y"/>
    <contour>
      <point x="304" y="507" type="move" name="aboveLC"/>
    </contour>
  </outline>
</glyph>
<glyph name="ef" format="1">
  <advance width="600"/>
  <unicode hex="0444"/>
  <outline>
    <contour>
      <point x="260" y="-205" type="line"/>
      <point x="340" y="-205" type="line"/>
      <point x="340" y="-50" type="line"/>
      <point x="338" y="24" type="line"/>
      <point x="362" y="4"/>
      <point x="390" y="-12"/>
      <point x="417" y="-12" type="curve" smooth="yes"/>
      <point x="497" y="-12"/>
      <point x="568" y="85"/>
      <point x="568" y="250" type="curve" smooth="yes"/>
      <point x="568" y="401"/>
      <point x="516" y="498"/>
      <point x="426" y="498" type="curve" smooth="yes"/>
      <point x="394" y="498"/>
      <point x="362" y="482"/>
      <point x="338" y="460" type="curve"/>
      <point x="340" y="536" type="line"/>
      <point x="340" y="712" type="line"/>
      <point x="260" y="712" type="line"/>
      <point x="260" y="536" type="line"/>
      <point x="262" y="462" type="line"/>
      <point x="240" y="482"/>
      <point x="215" y="498"/>
      <point x="182" y="498" type="curve" smooth="yes"/>
      <point x="103" y="498"/>
      <point x="32" y="400"/>
      <point x="32" y="242" type="curve" smooth="yes"/>
      <point x="32" y="80"/>
      <point x="92" y="-12"/>
      <point x="182" y="-12" type="curve" smooth="yes"/>
      <point x="215" y="-12"/>
      <point x="240" y="6"/>
      <point x="262" y="24" type="curve"/>
      <point x="260" y="-50" type="line"/>
    </contour>
    <contour>
      <point x="201" y="57" type="curve" smooth="yes"/>
      <point x="142" y="57"/>
      <point x="114" y="127"/>
      <point x="114" y="242" type="curve" smooth="yes"/>
      <point x="114" y="354"/>
      <point x="147" y="429"/>
      <point x="197" y="429" type="curve" smooth="yes"/>
      <point x="221" y="429"/>
      <point x="242" y="418"/>
      <point x="262" y="396" type="curve"/>
      <point x="262" y="92" type="line"/>
      <point x="242" y="68"/>
      <point x="224" y="57"/>
    </contour>
    <contour>
      <point x="401" y="57" type="curve" smooth="yes"/>
      <point x="384" y="57"/>
      <point x="360" y="66"/>
      <point x="338" y="90" type="curve"/>
      <point x="338" y="395" type="line"/>
      <point x="360" y="418"/>
      <point x="382" y="429"/>
      <point x="404" y="429" type="curve" smooth="yes"/>
      <point x="466" y="429"/>
      <point x="486" y="357"/>
      <point x="486" y="250" type="curve" smooth="yes"/>
      <point x="486" y="130"/>
      <point x="455" y="57"/>
    </contour>
  </outline>
</glyph>
<glyph name="tse" format="1">
  <advance width="600"/>
  <unicode hex="0446"/>
  <outline>
    <contour>
      <point x="94" y="0" type="line"/>
      <point x="497" y="0" type="line"/>
      <point x="497" y="486" type="line"/>
      <point x="415" y="486" type="line"/>
      <point x="415" y="67" type="line"/>
      <point x="176" y="67" type="line"/>
      <point x="176" y="486" type="line"/>
      <point x="94" y="486" type="line"/>
    </contour>
    <contour>
      <point x="489" y="-172" type="line"/>
      <point x="560" y="-172" type="line"/>
      <point x="568" y="15" type="line"/>
      <point x="568" y="67" type="line"/>
      <point x="451" y="67" type="line"/>
      <point x="451" y="0" type="line"/>
      <point x="489" y="0" type="line"/>
    </contour>
    <contour>
      <point x="296" y="507" type="move" name="aboveLC"/>
    </contour>
  </outline>
</glyph>
<glyph name="shcha" format="1">
  <advance width="600"/>
  <unicode hex="0449"/>
  <outline>
    <contour>
      <point x="60" y="0" type="line"/>
      <point x="533" y="0" type="line"/>
      <point x="533" y="486" type="line"/>
      <point x="460" y="486" type="line"/>
      <point x="460" y="67" type="line"/>
      <point x="329" y="67" type="line"/>
      <point x="329" y="486" type="line"/>
      <point x="263" y="486" type="line"/>
      <point x="263" y="67" type="line"/>
      <point x="133" y="67" type="line"/>
      <point x="133" y="486" type="line"/>
      <point x="60" y="486" type="line"/>
    </contour>
    <contour>
      <point x="521" y="-172" type="line"/>
      <point x="586" y="-172" type="line"/>
      <point x="594" y="15" type="line"/>
      <point x="594" y="67" type="line"/>
      <point x="483" y="67" type="line"/>
      <point x="483" y="0" type="line"/>
      <point x="521" y="0" type="line"/>
    </contour>
    <contour>
      <point x="300" y="507" type="move" name="aboveLC"/>
    </contour>
  </outline>
</glyph>
<glyph name="yu" format="1">
  <advance width="600"/>
  <unicode hex="044E"/>
  <outline>
    <contour>
      <point x="44" y="0" type="line"/>
      <point x="126" y="0" type="line"/>
      <point x="126" y="213" type="line"/>
      <point x="225" y="213" type="line"/>
      <point x="227" y="286" type="line"/>
      <point x="126" y="286" type="line"/>
      <point x="126" y="486" type="line"/>
      <point x="44" y="486" type="line"/>
    </contour>
    <contour>
      <point x="384" y="-12" type="curve" smooth="yes"/>
      <point x="489" y="-12"/>
      <point x="564" y="71"/>
      <point x="564" y="242" type="curve" smooth="yes"/>
      <point x="564" y="415"/>
      <point x="489" y="498"/>
      <point x="384" y="498" type="curve" smooth="yes"/>
      <point x="282" y="498"/>
      <point x="206" y="413"/>
      <point x="206" y="242" type="curve" smooth="yes"/>
      <point x="206" y="73"/>
      <point x="282" y="-12"/>
    </contour>
    <contour>
      <point x="382" y="56" type="curve" smooth="yes"/>
      <point x="320" y="56"/>
      <point x="280" y="116"/>
      <point x="280" y="242" type="curve" smooth="yes"/>
      <point x="280" y="369"/>
      <point x="320" y="430"/>
      <point x="382" y="430" type="curve" smooth="yes"/>
      <point x="441" y="430"/>
      <point x="480" y="369"/>
      <point x="480" y="242" type="curve" smooth="yes"/>
      <point x="480" y="116"/>
      <point x="441" y="56"/>
    </contour>
    <contour>
      <point x="287" y="507" type="move" name="aboveLC"/>
    </contour>
  </outline>
</glyph>
<glyph name="dje" format="1">
  <advance width="600"/>
  <unicode hex="0452"/>
  <outline>
    <contour>
      <point x="334" y="-217" type="curve" smooth="yes"/>
      <point x="460" y="-217"/>
      <point x="538" y="-130"/>
      <point x="538" y="171" type="curve" smooth="yes"/>
      <point x="538" y="370"/>
      <point x="469" y="459"/>
      <point x="344" y="459" type="curve" smooth="yes"/>
      <point x="274" y="459"/>
      <point x="221" y="417"/>
      <point x="173" y="364" type="curve"/>
      <point x="170" y="364" type="line"/>
      <point x="175" y="478" type="line"/>
      <point x="175" y="712" type="line"/>
      <point x="93" y="712" type="line"/>
      <point x="93" y="0" type="line"/>
      <point x="175" y="0" type="line"/>
      <point x="175" y="300" type="line"/>
      <point x="231" y="358"/>
      <point x="268" y="387"/>
      <point x="318" y="387" type="curve" smooth="yes"/>
      <point x="408" y="387"/>
      <point x="453" y="333"/>
      <point x="453" y="162" type="curve" smooth="yes"/>
      <point x="453" y="-86"/>
      <point x="399" y="-150"/>
      <point x="329" y="-150" type="curve" smooth="yes"/>
      <point x="314" y="-150"/>
      <point x="300" y="-146"/>
      <point x="289" y="-142" type="curve"/>
      <point x="273" y="-204" type="line"/>
      <point x="287" y="-211"/>
      <point x="309" y="-217"/>
    </contour>
    <contour>
      <point x="20" y="571" type="line"/>
      <point x="387" y="571" type="line"/>
      <point x="387" y="619" type="line"/>
      <point x="97" y="619" type="line"/>
      <point x="20" y="614" type="line"/>
    </contour>
  </outline>
</glyph>
<glyph name="ieukran" format="1">
  <advance width="600"/>
  <unicode hex="0454"/>
  <outline>
    <contour>
      <point x="346" y="-12" type="curve" smooth="yes"/>
      <point x="418" y="-12"/>
      <point x="486" y="13"/>
      <point x="539" y="60" type="curve"/>
      <point x="505" y="112" type="line"/>
      <point x="466" y="79"/>
      <point x="414" y="54"/>
      <point x="353" y="54" type="curve" smooth="yes"/>
      <point x="234" y="54"/>
      <point x="159" y="117"/>
      <point x="159" y="242" type="curve" smooth="yes"/>
      <point x="159" y="367"/>
      <point x="239" y="433"/>
      <point x="351" y="433" type="curve" smooth="yes"/>
      <point x="407" y="433"/>
      <point x="452" y="412"/>
      <point x="490" y="379" type="curve"/>
      <point x="529" y="431" type="line"/>
      <point x="487" y="469"/>
      <point x="431" y="498"/>
      <point x="351" y="498" type="curve" smooth="yes"/>
      <point x="204" y="498"/>
      <point x="80" y="414"/>
      <point x="80" y="242" type="curve" smooth="yes"/>
      <point x="80" y="72"/>
      <point x="193" y="-12"/>
    </contour>
    <contour>
      <point x="129" y="220" type="line"/>
      <point x="425" y="220" type="line"/>
      <point x="425" y="284" type="line"/>
      <point x="129" y="284" type="line"/>
    </contour>
  </outline>
</glyph>
<glyph name="nje" format="1">
  <advance width="600"/>
  <unicode hex="045A"/>
  <outline>
    <contour>
      <point x="61" y="0" type="line"/>
      <point x="135" y="0" type="line"/>
      <point x="135" y="216" type="line"/>
      <point x="268" y="216" type="line"/>
      <point x="268" y="0" type="line"/>
      <point x="342" y="0" type="line"/>
      <point x="342" y="486" type="line"/>
      <point x="268" y="486" type="line"/>
      <point x="268" y="289" type="line"/>
      <point x="135" y="289" type="line"/>
      <point x="135" y="486" type="line"/>
      <point x="61" y="486" type="line"/>
    </contour>
    <contour>
      <point x="268" y="0" type="line"/>
      <point x="373" y="0" type="line"/>
      <point x="483" y="0"/>
      <point x="551" y="47"/>
      <point x="551" y="155" type="curve" smooth="yes"/>
      <point x="551" y="261"/>
      <point x="483" y="307"/>
      <point x="373" y="307" type="curve" smooth="yes"/>
      <point x="342" y="307" type="line"/>
      <point x="342" y="486" type="line"/>
      <point x="268" y="486" type="line"/>
    </contour>
    <contour>
      <point x="342" y="66" type="line"/>
      <point x="342" y="243" type="line"/>
      <point x="364" y="243" type="line"/>
      <point x="442" y="243"/>
      <point x="478" y="217"/>
      <point x="478" y="155" type="curve" smooth="yes"/>
      <point x="478" y="93"/>
      <point x="442" y="66"/>
      <point x="364" y="66" type="curve" smooth="yes"/>
    </contour>
  </outline>
</glyph>
<glyph name="fita" format="1">
  <advance width="600"/>
  <unicode hex="0473"/>
  <outline>
    <component base="obar"/>
    <contour>
      <point x="300" y="507" type="move" name="aboveLC"/>
    </contour>
  </outline>
</glyph>
<glyph name="Ghestroke" format="1">
  <advance width="600"/>
  <unicode hex="0492"/>
  <outline>
    <contour>
      <point x="152" y="0" type="line"/>
      <point x="235" y="0" type="line"/>
      <point x="235" y="586" type="line"/>
      <point x="530" y="586" type="line"/>
      <point x="530" y="656" type="line"/>
      <point x="152" y="656" type="line"/>
    </contour>
    <contour>
      <point x="73" y="307" type="line"/>
      <point x="384" y="307" type="line"/>
      <point x="384" y="354" type="line"/>
      <point x="154" y="354" type="line"/>
      <point x="73" y="351" type="line"/>
    </contour>
  </outline>
</glyph>
<glyph name="esdescender" format="1">
  <advance width="600"/>
  <unicode hex="04AB"/>
  <outline>
    <contour>
      <point x="303" y="-172" type="line"/>
      <point x="372" y="-172" type="line"/>
      <point x="382" y="10" type="line"/>
      <point x="300" y="10" type="line"/>
    </contour>
    <component base="es"/>
  </outline>
</glyph>
<glyph name="Ustraight" format="1">
  <advance width="600"/>
  <unicode hex="04AE"/>
  <outline>
    <component base="Y"/>
    <contour>
      <point x="300" y="676" type="move" name="aboveUC"/>
    </contour>
  </outline>
</glyph>
<glyph name="ustraight" format="1">
  <advance width="600"/>
  <unicode hex="04AF"/>
  <outline>
    <contour>
      <point x="262" y="-205" type="line"/>
      <point x="344" y="-205" type="line"/>
      <point x="344" y="-6" type="line"/>
      <point x="549" y="486" type="line"/>
      <point x="469" y="486" type="line"/>
      <point x="359" y="217" type="line"/>
      <point x="339" y="168"/>
      <point x="322" y="117"/>
      <point x="305" y="72" type="curve"/>
      <point x="301" y="72" type="line"/>
      <point x="284" y="117"/>
      <point x="265" y="168"/>
      <point x="245" y="217" type="curve"/>
      <point x="135" y="486" type="line"/>
      <point x="51" y="486" type="line"/>
      <point x="262" y="-6" type="line"/>
    </contour>
  </outline>
</glyph>
<glyph name="Ustraightstroke" format="1">
  <advance width="600"/>
  <unicode hex="04B0"/>
  <outline>
    <contour>
      <point x="106" y="228" type="line"/>
      <point x="494" y="228" type="line"/>
      <point x="494" y="275" type="line"/>
      <point x="195" y="275" type="line"/>
      <point x="106" y="272" type="line"/>
    </contour>
    <component base="Ustraight"/>
    <contour>
      <point x="300" y="676" type="move" name="aboveUC"/>
    </contour>
  </outline>
</glyph>
<glyph name="ustraightstroke" format="1">
  <advance width="600"/>
  <unicode hex="04B1"/>
  <outline>
    <contour>
      <point x="101" y="0" type="line"/>
      <point x="499" y="0" type="line"/>
      <point x="499" y="47" type="line"/>
      <point x="178" y="47" type="line"/>
      <point x="101" y="42" type="line"/>
    </contour>
    <component base="ustraight"/>
  </outline>
</glyph>
<glyph name="Obarcyr" format="1">
  <advance width="600"/>
  <unicode hex="04E8"/>
  <outline>
    <component base="Fita"/>
    <contour>
      <point x="300" y="676" type="move" name="aboveUC"/>
    </contour>
  </outline>
</glyph>
<glyph name="lenis" format="1">
  <advance width="600"/>
  <unicode hex="1FBD"/>
  <outline>
    <component base="leniscmb"/>
    <contour>
      <point x="300" y="507" type="move" name="_aboveLC"/>
    </contour>
  </outline>
</glyph>
<glyph name="psili" format="1">
  <advance width="600"/>
  <unicode hex="1FBF"/>
  <outline>
    <component base="leniscmb"/>
    <contour>
      <point x="300" y="507" type="move" name="_aboveLC"/>
    </contour>
  </outline>
</glyph>
<glyph name="lenisacute" format="1">
  <advance width="600"/>
  <unicode hex="1FCE"/>
  <outline>
    <component base="lenisacutecmb"/>
    <contour>
      <point x="300" y="507" type="move" name="_aboveLC"/>
    </contour>
  </outline>
</glyph>
<glyph name="lenistilde" format="1">
  <advance width="600"/>
  <unicode hex="1FCF"/>
  <outline>
    <component base="lenistildecmb"/>
    <contour>
      <point x="300" y="507" type="move" name="_aboveLC"/>
    </contour>
  </outline>
</glyph>
<glyph name="dialytikaacute" format="1">
  <advance width="600"/>
  <unicode hex="1FEE"/>
  <outline>
    <component base="dieresistonoscmb"/>
    <contour>
      <point x="300" y="507" type="move" name="_aboveLC"/>
    </contour>
  </outline>
</glyph>
<glyph name="varia" format="1">
  <advance width="600"/>
  <unicode hex="1FEF"/>
  <outline>
    <component base="variacmb"/>
    <contour>
      <point x="300" y="507" type="move" name="_aboveLC"/>
    </contour>
  </outline>
</glyph>
<glyph name="asper" format="1">
  <advance width="600"/>
  <unicode hex="1FFE"/>
  <outline>
    <component base="aspercmb"/>
    <contour>
      <point x="300" y="507" type="move" name="_aboveLC"/>
    </contour>
  </outline>
</glyph>
<glyph name="interrobang" format="1">
  <advance width="600"/>
  <unicode hex="203D"/>
  <outline>
    <contour>
      <point x="276" y="232" type="curve"/>
      <point x="312" y="232" type="line"/>
      <point x="295" y="347"/>
      <point x="484" y="367"/>
      <point x="484" y="525" type="curve" smooth="yes"/>
      <point x="484" y="616"/>
      <point x="406" y="682"/>
      <point x="289" y="682" type="curve" smooth="yes"/>
      <point x="211" y="682"/>
      <point x="141" y="649"/>
      <point x="94" y="598" type="curve"/>
      <point x="142" y="554" type="line"/>
      <point x="182" y="595"/>
      <point x="228" y="617"/>
      <point x="283" y="617" type="curve" smooth="yes"/>
      <point x="364" y="617"/>
      <point x="407" y="572"/>
      <point x="407" y="512" type="curve" smooth="yes"/>
      <point x="407" y="389"/>
      <point x="247" y="375"/>
    </contour>
    <contour>
      <point x="254" y="232" type="line"/>
      <point x="304" y="232" type="line"/>
      <point x="308" y="456" type="line"/>
      <point x="309" y="532" type="line"/>
      <point x="239" y="532" type="line"/>
      <point x="243" y="456" type="line"/>
    </contour>
    <contour>
      <point x="282" y="-12" type="curve" smooth="yes"/>
      <point x="320" y="-12"/>
      <point x="352" y="18"/>
      <point x="352" y="63" type="curve" smooth="yes"/>
      <point x="352" y="108"/>
      <point x="320" y="138"/>
      <point x="282" y="138" type="curve" smooth="yes"/>
      <point x="245" y="138"/>
      <point x="213" y="108"/>
      <point x="213" y="63" type="curve" smooth="yes"/>
      <point x="213" y="18"/>
      <point x="245" y="-12"/>
    </contour>
  </outline>
</glyph>
<glyph name="colonmonetary" format="1">
  <advance width="600"/>
  <unicode hex="20A1"/>
  <outline>
    <contour>
      <point x="354" y="-12" type="curve" smooth="yes"/>
      <point x="436" y="-12"/>
      <point x="496" y="23"/>
      <point x="546" y="81" type="curve"/>
      <point x="497" y="125" type="line"/>
      <point x="457" y="79"/>
      <point x="416" y="54"/>
      <point x="359" y="54" type="curve" smooth="yes"/>
      <point x="246" y="54"/>
      <point x="181" y="157"/>
      <point x="181" y="321" type="curve" smooth="yes"/>
      <point x="181" y="482"/>
      <point x="247" y="584"/>
      <point x="365" y="584" type="curve" smooth="yes"/>
      <point x="416" y="584"/>
      <point x="454" y="560"/>
      <point x="488" y="525" type="curve"/>
      <point x="537" y="572" type="line"/>
      <point x="497" y="616"/>
      <point x="436" y="650"/>
      <point x="370" y="650" type="curve" smooth="yes"/>
      <point x="204" y="650"/>
      <point x="96" y="524"/>
      <point x="96" y="318" type="curve" smooth="yes"/>
      <point x="96" y="112"/>
      <point x="202" y="-12"/>
    </contour>
    <contour>
      <point x="218" y="-104" type="line"/>
      <point x="264" y="-110" type="line"/>
      <point x="364" y="742" type="line"/>
      <point x="318" y="748" type="line"/>
    </contour>
    <contour>
      <point x="326" y="-104" type="line"/>
      <point x="372" y="-110" type="line"/>
      <point x="472" y="742" type="line"/>
      <point x="426" y="748" type="line"/>
    </contour>
  </outline>
</glyph>
<glyph name="naira" format="1">
  <advance width="600"/>
  <unicode hex="20A6"/>
  <outline>
    <contour>
      <point x="121" y="0" type="line"/>
      <point x="186" y="0" type="line"/>
      <point x="186" y="321" type="line"/>
      <point x="170" y="563" type="line"/>
      <point x="174" y="563" type="line"/>
      <point x="257" y="342" type="line"/>
      <point x="395" y="0" type="line"/>
      <point x="479" y="0" type="line"/>
      <point x="479" y="638" type="line"/>
      <point x="414" y="638" type="line"/>
      <point x="414" y="317" type="line"/>
      <point x="430" y="74" type="line"/>
      <point x="426" y="74" type="line"/>
      <point x="343" y="297" type="line"/>
      <point x="205" y="638" type="line"/>
      <point x="121" y="638" type="line"/>
    </contour>
    <contour>
      <point x="46" y="350" type="line"/>
      <point x="552" y="350" type="line"/>
      <point x="552" y="398" type="line"/>
      <point x="121" y="398" type="line"/>
      <point x="46" y="393" type="line"/>
    </contour>
    <contour>
      <point x="46" y="234" type="line"/>
      <point x="552" y="234" type="line"/>
      <point x="552" y="282" type="line"/>
      <point x="121" y="282" type="line"/>
      <point x="46" y="277" type="line"/>
    </contour>
  </outline>
</glyph>
<glyph name="won" format="1">
  <advance width="600"/>
  <unicode hex="20A9"/>
  <outline>
    <contour>
      <point x="140" y="0" type="line"/>
      <point x="246" y="0" type="line"/>
      <point x="286" y="372" type="line"/>
      <point x="298" y="528" type="line"/>
      <point x="302" y="528" type="line"/>
      <point x="314" y="372" type="line"/>
      <point x="356" y="0" type="line"/>
      <point x="468" y="0" type="line"/>
      <point x="538" y="638" type="line"/>
      <point x="467" y="638" type="line"/>
      <point x="424" y="198" type="line"/>
      <point x="412" y="68" type="line"/>
      <point x="408" y="68" type="line"/>
      <point x="396" y="198" type="line"/>
      <point x="352" y="598" type="line"/>
      <point x="254" y="598" type="line"/>
      <point x="210" y="198" type="line"/>
      <point x="198" y="68" type="line"/>
      <point x="194" y="68" type="line"/>
      <point x="184" y="198" type="line"/>
      <point x="139" y="638" type="line"/>
      <point x="63" y="638" type="line"/>
    </contour>
    <contour>
      <point x="28" y="296" type="line"/>
      <point x="570" y="296" type="line"/>
      <point x="570" y="354" type="line"/>
      <point x="102" y="354" type="line"/>
      <point x="28" y="348" type="line"/>
    </contour>
  </outline>
</glyph>
<glyph name="numero" format="1">
  <advance width="600"/>
  <unicode hex="2116"/>
  <outline>
    <contour>
      <point x="35" y="-12" type="curve" smooth="yes"/>
      <point x="81" y="-12"/>
      <point x="104" y="21"/>
      <point x="104" y="86" type="curve" smooth="yes"/>
      <point x="104" y="240" type="line"/>
      <point x="104" y="335"/>
      <point x="94" y="414"/>
      <point x="84" y="540" type="curve"/>
      <point x="88" y="540" type="line"/>
      <point x="98" y="503"/>
      <point x="114" y="441"/>
      <point x="125" y="403" type="curve" smooth="yes"/>
      <point x="138" y="356"/>
      <point x="230" y="45"/>
      <point x="242" y="0" type="curve"/>
      <point x="330" y="0" type="line"/>
      <point x="330" y="540" type="line"/>
      <point x="330" y="573"/>
      <point x="340" y="582"/>
      <point x="359" y="582" type="curve"/>
      <point x="354" y="647" type="line"/>
      <point x="345" y="649"/>
      <point x="333" y="650"/>
      <point x="326" y="650" type="curve" smooth="yes"/>
      <point x="280" y="650"/>
      <point x="258" y="617"/>
      <point x="258" y="551" type="curve" smooth="yes"/>
      <point x="258" y="398" type="line"/>
      <point x="258" y="303"/>
      <point x="268" y="224"/>
      <point x="277" y="98" type="curve"/>
      <point x="273" y="98" type="line"/>
      <point x="262" y="136"/>
      <point x="248" y="198"/>
      <point x="236" y="236" type="curve" smooth="yes"/>
      <point x="225" y="283"/>
      <point x="132" y="593"/>
      <point x="118" y="638" type="curve"/>
      <point x="32" y="638" type="line"/>
      <point x="32" y="98" type="line"/>
      <point x="32" y="65"/>
      <point x="22" y="56"/>
      <point x="2" y="56" type="curve"/>
      <point x="8" y="-9" type="line"/>
      <point x="16" y="-12"/>
      <point x="29" y="-12"/>
    </contour>
    <contour>
      <point x="494" y="276" type="curve" smooth="yes"/>
      <point x="555" y="276"/>
      <point x="606" y="327"/>
      <point x="606" y="438" type="curve" smooth="yes"/>
      <point x="606" y="548"/>
      <point x="555" y="598"/>
      <point x="494" y="598" type="curve" smooth="yes"/>
      <point x="433" y="598"/>
      <point x="380" y="548"/>
      <point x="380" y="438" type="curve" smooth="yes"/>
      <point x="380" y="327"/>
      <point x="433" y="276"/>
    </contour>
    <contour>
      <point x="494" y="331" type="curve" smooth="yes"/>
      <point x="460" y="331"/>
      <point x="442" y="366"/>
      <point x="442" y="438" type="curve" smooth="yes"/>
      <point x="442" y="509"/>
      <point x="460" y="544"/>
      <point x="494" y="544" type="curve" smooth="yes"/>
      <point x="527" y="544"/>
      <point x="544" y="509"/>
      <point x="544" y="438" type="curve" smooth="yes"/>
      <point x="544" y="366"/>
      <point x="527" y="331"/>
    </contour>
    <contour>
      <point x="408" y="168" type="line"/>
      <point x="580" y="168" type="line"/>
      <point x="580" y="222" type="line"/>
      <point x="408" y="222" type="line"/>
    </contour>
  </outline>
</glyph>
<glyph name="arrowdblleft" format="1">
  <advance width="600"/>
  <unicode hex="21D0"/>
  <outline>
    <contour>
      <point x="289" y="-15" type="line"/>
      <point x="332" y="31" type="line"/>
      <point x="94" y="250" type="line"/>
      <point x="94" y="254" type="line"/>
      <point x="332" y="473" type="line"/>
      <point x="289" y="519" type="line"/>
      <point x="17" y="254" type="line"/>
      <point x="17" y="250" type="line"/>
    </contour>
    <contour>
      <point x="146" y="316" type="line"/>
      <point x="569" y="316" type="line"/>
      <point x="569" y="370" type="line"/>
      <point x="146" y="370" type="line"/>
    </contour>
    <contour>
      <point x="146" y="134" type="line"/>
      <point x="569" y="134" type="line"/>
      <point x="569" y="188" type="line"/>
      <point x="146" y="188" type="line"/>
    </contour>
  </outline>
</glyph>
<glyph name="product" format="1">
  <advance width="600"/>
  <unicode hex="220F"/>
  <outline>
    <contour>
      <point x="52" y="-120" type="line"/>
      <point x="135" y="-120" type="line"/>
      <point x="135" y="565" type="line"/>
      <point x="463" y="565" type="line"/>
      <point x="463" y="-120" type="line"/>
      <point x="548" y="-120" type="line"/>
      <point x="548" y="638" type="line"/>
      <point x="52" y="638" type="line"/>
    </contour>
  </outline>
</glyph>
<glyph name="ceilingleft" format="1">
  <advance width="600"/>
  <unicode hex="231C"/>
  <outline>
    <contour>
      <point x="225" y="0" type="line"/>
      <point x="291" y="0" type="line"/>
      <point x="291" y="648" type="line"/>
      <point x="502" y="648" type="line"/>
      <point x="502" y="695" type="line"/>
      <point x="225" y="695" type="line"/>
    </contour>
  </outline>
</glyph>
<glyph name="lighttrpldashhorzbxd" format="1">
  <advance width="600"/>
  <unicode hex="2504"/>
  <outline>
    <contour>
      <point x="33" y="261" type="line"/>
      <point x="167" y="261" type="line"/>
      <point x="167" y="339" type="line"/>
      <point x="33" y="339" type="line"/>
    </contour>
    <contour>
      <point x="233" y="261" type="line"/>
      <point x="367" y="261" type="line"/>
      <point x="367" y="339" type="line"/>
      <point x="233" y="339" type="line"/>
    </contour>
    <contour>
      <point x="433" y="261" type="line"/>
      <point x="567" y="261" type="line"/>
      <point x="567" y="339" type="line"/>
      <point x="433" y="339" type="line"/>
    </contour>
  </outline>
</glyph>
<glyph name="heavytrpldashvertbxd" format="1">
  <advance width="600"/>
  <unicode hex="2507"/>
  <outline>
    <contour>
      <point x="222" y="-145" type="line"/>
      <point x="378" y="-145" type="line"/>
      <point x="378" y="77" type="line"/>
      <point x="222" y="77" type="line"/>
    </contour>
    <contour>
      <point x="222" y="188" type="line"/>
      <point x="378" y="188" type="line"/>
      <point x="378" y="410" type="line"/>
      <point x="222" y="410" type="line"/>
    </contour>
    <contour>
      <point x="222" y="521" type="line"/>
      <point x="378" y="521" type="line"/>
      <point x="378" y="743" type="line"/>
      <point x="222" y="743" type="line"/>
    </contour>
  </outline>
</glyph>
<glyph name="lightdnrightbxd" format="1">
  <advance width="600"/>
  <unicode hex="250C"/>
  <outline>
    <contour>
      <point x="261" y="-400" type="line"/>
      <point x="339" y="-400" type="line"/>
      <point x="339" y="261" type="line"/>
      <point x="639" y="261" type="line"/>
      <point x="639" y="339" type="line"/>
      <point x="261" y="339" type="line"/>
    </contour>
  </outline>
</glyph>
<glyph name="dnlightrightheavybxd" format="1">
  <advance width="600"/>
  <unicode hex="250D"/>
  <outline>
    <contour>
      <point x="261" y="-400" type="line"/>
      <point x="339" y="-400" type="line"/>
      <point x="339" y="222" type="line"/>
      <point x="639" y="222" type="line"/>
      <point x="639" y="378" type="line"/>
      <point x="261" y="378" type="line"/>
    </contour>
  </outline>
</glyph>
<glyph name="lightuprightbxd" format="1">
  <advance width="600"/>
  <unicode hex="2514"/>
  <outline>
    <contour>
      <point x="261" y="261" type="line"/>
      <point x="639" y="261" type="line"/>
      <point x="639" y="339" type="line"/>
      <point x="339" y="339" type="line"/>
      <point x="339" y="1000" type="line"/>
      <point x="261" y="1000" type="line"/>
    </contour>
  </outline>
</glyph>
<glyph name="leftlightrightdnheavybxd" format="1">
  <advance width="600"/>
  <unicode hex="2532"/>
  <outline>
    <contour>
      <point x="-39" y="261" type="line"/>
      <point x="222" y="261" type="line"/>
      <point x="222" y="-400" type="line"/>
      <point x="378" y="-400" type="line"/>
      <point x="378" y="222" type="line"/>
      <point x="639" y="222" type="line"/>
      <point x="639" y="378" type="line"/>
      <point x="222" y="378" type="line"/>
      <point x="222" y="339" type="line"/>
      <point x="-39" y="339" type="line"/>
    </contour>
  </outline>
</glyph>
<glyph name="heavyuphorzbxd" format="1">
  <advance width="600"/>
  <unicode hex="253B"/>
  <outline>
    <contour>
      <point x="-39" y="222" type="line"/>
      <point x="639" y="222" type="line"/>
      <point x="639" y="378" type="line"/>
      <point x="378" y="378" type="line"/>
      <point x="378" y="1000" type="line"/>
      <point x="222" y="1000" type="line"/>
      <point x="222" y="378" type="line"/>
      <point x="-39" y="378" type="line"/>
    </contour>
  </outline>
</glyph>
<glyph name="heavyupbxd" format="1">
  <advance width="600"/>
  <unicode hex="2579"/>
  <outline>
    <contour>
      <point x="222" y="261" type="line"/>
      <point x="378" y="261" type="line"/>
      <point x="378" y="1000" type="line"/>
      <point x="222" y="1000" type="line"/>
    </contour>
  </outline>
</glyph>
<glyph name="heavyuplightdnbxd" format="1">
  <advance width="600"/>
  <unicode hex="257F"/>
  <outline>
    <contour>
      <point x="222" y="261" type="line"/>
      <point x="261" y="261" type="line"/>
      <point x="261" y="-400" type="line"/>
      <point x="339" y="-400" type="line"/>
      <point x="339" y="261" type="line"/>
      <point x="378" y="261" type="line"/>
      <point x="378" y="1000" type="line"/>
      <point x="222" y="1000" type="line"/>
    </contour>
  </outline>
</glyph>
<glyph name="dnquarterblock" format="1">
  <advance width="600"/>
  <unicode hex="2582"/>
  <outline>
    <contour>
      <point x="0" y="-200" type="line"/>
      <point x="600" y="-200" type="line"/>
      <point x="600" y="50" type="line"/>
      <point x="0" y="50" type="line"/>
    </contour>
  </outline>
</glyph>
<glyph name="dnseveneighthsblock" format="1">
  <advance width="600"/>
  <unicode hex="2587"/>
  <outline>
    <contour>
      <point x="0" y="-200" type="line"/>
      <point x="600" y="-200" type="line"/>
      <point x="600" y="675" type="line"/>
      <point x="0" y="675" type="line"/>
    </contour>
  </outline>
</glyph>
<glyph name="dnleftquadrant" format="1">
  <advance width="600"/>
  <unicode hex="2596"/>
  <outline>
    <contour>
      <point x="0" y="-200" type="line"/>
      <point x="300" y="-200" type="line"/>
      <point x="300" y="300" type="line"/>
      <point x="0" y="300" type="line"/>
    </contour>
  </outline>
</glyph>
<glyph name="upleftuprightdnrightquadrant" format="1">
  <advance width="600"/>
  <unicode hex="259C"/>
  <outline>
    <contour>
      <point x="0" y="300" type="line"/>
      <point x="300" y="300" type="line"/>
      <point x="300" y="-200" type="line"/>
      <point x="600" y="-200" type="line"/>
      <point x="600" y="800" type="line"/>
      <point x="0" y="800" type="line"/>
    </contour>
  </outline>
</glyph>
<glyph name="trianglewhiteup" format="1">
  <advance width="600"/>
  <unicode hex="25B3"/>
  <outline>
    <contour>
      <point x="62" y="105" type="line"/>
      <point x="538" y="105" type="line"/>
      <point x="538" y="107" type="line"/>
      <point x="301" y="600" type="line"/>
      <point x="299" y="600" type="line"/>
      <point x="62" y="107" type="line"/>
    </contour>
    <contour>
      <point x="139" y="151" type="line"/>
      <point x="300" y="493" type="line"/>
      <point x="461" y="151" type="line"/>
    </contour>
  </outline>
</glyph>
<glyph name="trianglewhitedown" format="1">
  <advance width="600"/>
  <unicode hex="25BD"/>
  <outline>
    <contour>
      <point x="299" y="85" type="line"/>
      <point x="301" y="85" type="line"/>
      <point x="538" y="578" type="line"/>
      <point x="538" y="580" type="line"/>
      <point x="62" y="580" type="line"/>
      <point x="62" y="578" type="line"/>
    </contour>
    <contour>
      <point x="300" y="192" type="line"/>
      <point x="139" y="535" type="line"/>
      <point x="461" y="535" type="line"/>
    </contour>
  </outline>
</glyph>
<glyph name="lozenge" format="1">
  <advance width="600"/>
  <unicode hex="25CA"/>
  <outline>
    <contour>
      <point x="262" y="-10" type="line"/>
      <point x="338" y="-10" type="line"/>
      <point x="502" y="330" type="line"/>
      <point x="338" y="670" type="line"/>
      <point x="262" y="670" type="line"/>
      <point x="98" y="330" type="line"/>
    </contour>
    <contour>
      <point x="298" y="59" type="line"/>
      <point x="235" y="192" type="line"/>
      <point x="171" y="330" type="line"/>
      <point x="235" y="467" type="line"/>
      <point x="298" y="601" type="line"/>
      <point x="302" y="601" type="line"/>
      <point x="365" y="467" type="line"/>
      <point x="429" y="330" type="line"/>
      <point x="365" y="192" type="line"/>
      <point x="302" y="59" type="line"/>
    </contour>
  </outline>
</glyph>
<glyph name="eighthnote" format="1">
  <advance width="600"/>
  <unicode hex="266A"/>
  <outline>
    <contour>
      <point x="178" y="-24" type="curve" smooth="yes"/>
      <point x="270" y="-24"/>
      <point x="351" y="33"/>
      <point x="351" y="143" type="curve" smooth="yes"/>
      <point x="351" y="550" type="line"/>
      <point x="431" y="525"/>
      <point x="475" y="463"/>
      <point x="475" y="400" type="curve" smooth="yes"/>
      <point x="475" y="364"/>
      <point x="472" y="340"/>
      <point x="462" y="308" type="curve"/>
      <point x="497" y="295" type="line"/>
      <point x="513" y="326"/>
      <point x="529" y="374"/>
      <point x="529" y="426" type="curve" smooth="yes"/>
      <point x="529" y="502"/>
      <point x="506" y="558"/>
      <point x="416" y="622" type="curve" smooth="yes"/>
      <point x="366" y="658"/>
      <point x="356" y="667"/>
      <point x="345" y="694" type="curve"/>
      <point x="296" y="694" type="line"/>
      <point x="296" y="157" type="line"/>
      <point x="286" y="163"/>
      <point x="261" y="169"/>
      <point x="235" y="169" type="curve" smooth="yes"/>
      <point x="142" y="169"/>
      <point x="77" y="113"/>
      <point x="77" y="52" type="curve" smooth="yes"/>
      <point x="77" y="2"/>
      <point x="125" y="-24"/>
    </contour>
  </outline>
</glyph>
<glyph name="uniE0A0" format="1">
  <advance width="600"/>
  <unicode hex="E0A0"/>
  <outline>
    <contour>
      <point x="218" y="-280" type="line"/>
      <point x="218" y="-42" type="line" smooth="yes"/>
      <point x="218" y="230"/>
      <point x="532" y="118"/>
      <point x="532" y="466" type="curve" smooth="yes"/>
      <point x="532" y="705" type="line"/>
      <point x="642" y="705" type="line"/>
      <point x="448" y="940" type="line"/>
      <point x="252" y="705" type="line"/>
      <point x="362" y="705" type="line"/>
      <point x="362" y="512" type="line" smooth="yes"/>
      <point x="362" y="236"/>
      <point x="48" y="348"/>
      <point x="48" y="4" type="curve" smooth="yes"/>
      <point x="48" y="-280" type="line"/>
    </contour>
    <contour>
      <point x="218" y="418" type="line"/>
      <point x="218" y="1060" type="line"/>
      <point x="48" y="1060" type="line"/>
      <point x="48" y="320" type="line"/>
    </contour>
  </outline>
</glyph>
<glyph name="uniE0A1" format="1">
  <advance width="600"/>
  <unicode hex="E0A1"/>
  <outline>
    <contour>
      <point x="98" y="360" type="line"/>
      <point x="379" y="360" type="line"/>
      <point x="379" y="396" type="line"/>
      <point x="140" y="396" type="line"/>
      <point x="140" y="840" type="line"/>
      <point x="98" y="840" type="line"/>
    </contour>
    <contour>
      <point x="196" y="-247" type="line"/>
      <point x="240" y="-247" type="line"/>
      <point x="240" y="-14" type="line"/>
      <point x="228" y="172" type="line"/>
      <point x="453" y="-247" type="line"/>
      <point x="502" y="-247" type="line"/>
      <point x="502" y="233" type="line"/>
      <point x="458" y="233" type="line"/>
      <point x="458" y="18" type="line"/>
      <point x="470" y="-192" type="line"/>
      <point x="244" y="233" type="line"/>
      <point x="196" y="233" type="line"/>
    </contour>
  </outline>
</glyph>
<glyph name="uniE0A2" format="1">
  <advance width="600"/>
  <unicode hex="E0A2"/>
  <outline>
    <contour>
      <point x="580" y="-150" type="line"/>
      <point x="580" y="440" type="line"/>
      <point x="494" y="440" type="line"/>
      <point x="494" y="580" type="line" smooth="yes"/>
      <point x="494" y="704.727272727"/>
      <point x="423.454545455" y="776.0"/>
      <point x="300" y="776" type="curve" smooth="yes"/>
      <point x="176.545454545" y="776.0"/>
      <point x="106.0" y="704.727272727"/>
      <point x="106" y="580" type="curve"/>
      <point x="106" y="440" type="line"/>
      <point x="20" y="440" type="line"/>
      <point x="20" y="-150" type="line"/>
    </contour>
    <contour>
      <point x="250" y="-22" type="line"/>
      <point x="282" y="158" type="line"/>
      <point x="246.788059088" y="170.427743851"/>
      <point x="230.0" y="195.0"/>
      <point x="230" y="224" type="curve" smooth="yes"/>
      <point x="230.0" y="259.096774194"/>
      <point x="262.0" y="288.0"/>
      <point x="300" y="288" type="curve" smooth="yes"/>
      <point x="338.088235294" y="288.0"/>
      <point x="370.0" y="259.0"/>
      <point x="370" y="224" type="curve" smooth="yes"/>
      <point x="370.0" y="195.0"/>
      <point x="353.211940912" y="170.427743851"/>
      <point x="318" y="158" type="curve"/>
      <point x="350" y="-22" type="line"/>
    </contour>
    <contour>
      <point x="236" y="440" type="line"/>
      <point x="236" y="560" type="line" smooth="yes"/>
      <point x="236" y="615.636363636"/>
      <point x="257.0" y="650.0"/>
      <point x="300" y="650" type="curve" smooth="yes"/>
      <point x="343.0" y="650.0"/>
      <point x="364" y="615.636363636"/>
      <point x="364" y="560" type="curve" smooth="yes"/>
      <point x="364" y="440" type="line"/>
    </contour>
  </outline>
</glyph>
<glyph name="uniE0B0" format="1">
  <advance width="600"/>
  <unicode hex="E0B0"/>
  <outline>
    <contour>
      <point x="20" y="-340" type="line"/>
      <point x="620" y="300" type="line"/>
      <point x="20" y="940" type="line"/>
    </contour>
  </outline>
</glyph>
<glyph name="uniE0B3" format="1">
  <advance width="600"/>
  <unicode hex="E0B3"/>
  <outline>
    <contour>
      <point x="556" y="-312" type="line"/>
      <point x="584" y="-282" type="line"/>
      <point x="34" y="300" type="line"/>
      <point x="584" y="882" type="line"/>
      <point x="556" y="912" type="line"/>
      <point x="-20" y="300" type="line"/>
    </contour>
  </outline>
</glyph>
<glyph name="uniE0B3" format="1">
  <advance width="600"/>
  <unicode hex="E0B3"/>
  <outline>
    <contour>
      <point x="558" y="-225" type="line"/>
      <point x="607" y="-177" type="line"/>
      <point x="78" y="380" type="line"/>
      <point x="607" y="937" type="line"/>
      <point x="558" y="985" type="line"/>
      <point x="-11" y="380" type="line"/>
    </contour>
  </outline>
</glyph>
<glyph name="B" format="1">
  <advance width="600"/>
  <outline>
    <contour>
      <point x="99" y="0" type="line"/>
      <point x="300" y="0" type="line"/>
      <point x="447" y="0"/>
      <point x="547" y="63"/>
      <point x="547" y="192" type="curve" smooth="yes"/>
      <point x="547" y="282"/>
      <point x="491" y="334"/>
      <point x="395" y="349" type="curve"/>
      <point x="395" y="353" type="line"/>
      <point x="473" y="373"/>
      <point x="510" y="431"/>
      <point x="510" y="496" type="curve" smooth="yes"/>
      <point x="510" y="611"/>
      <point x="419" y="656"/>
      <point x="285" y="656" type="curve" smooth="yes"/>
      <point x="99" y="656" type="line"/>
    </contour>
    <contour>
      <point x="182" y="380" type="line"/>
      <point x="182" y="586" type="line"/>
      <point x="275" y="586" type="line"/>
      <point x="376" y="586"/>
      <point x="428" y="560"/>
      <point x="428" y="489" type="curve" smooth="yes"/>
      <point x="428" y="416"/>
      <point x="383" y="380"/>
      <point x="271" y="380" type="curve" smooth="yes"/>
    </contour>
    <contour>
      <point x="182" y="70" type="line"/>
      <point x="182" y="310" type="line"/>
      <point x="288" y="310" type="line"/>
      <point x="403" y="310"/>
      <point x="465" y="277"/>
      <point x="465" y="196" type="curve" smooth="yes"/>
      <point x="465" y="107"/>
      <point x="400" y="70"/>
      <point x="288" y="70" type="curve" smooth="yes"/>
    </contour>
    <contour>
      <point x="301" y="676" type="move" name="aboveUC"/>
    </contour>
    <contour>
      <point x="307" y="-20" type="move" name="belowLC"/>
    </contour>
  </outline>
</glyph>
<glyph name="Be" format="1">
  <advance width="600"/>
  <outline>
    <contour>
      <point x="99" y="0" type="line"/>
      <point x="312" y="0" type="line"/>
      <point x="456" y="0"/>
      <point x="547" y="62"/>
      <point x="547" y="199" type="curve" smooth="yes"/>
      <point x="547" y="330"/>
      <point x="447" y="380"/>
      <point x="308" y="380" type="curve" smooth="yes"/>
      <point x="182" y="380" type="line"/>
      <point x="182" y="586" type="line"/>
      <point x="504" y="586" type="line"/>
      <point x="504" y="656" type="line"/>
      <point x="99" y="656" type="line"/>
    </contour>
    <contour>
      <point x="182" y="70" type="line"/>
      <point x="182" y="310" type="line"/>
      <point x="296" y="310" type="line"/>
      <point x="408" y="310"/>
      <point x="465" y="278"/>
      <point x="465" y="194" type="curve" smooth="yes"/>
      <point x="465" y="104"/>
      <point x="410" y="70"/>
      <point x="298" y="70" type="curve" smooth="yes"/>
    </contour>
  </outline>
</glyph>
<glyph name="C" format="1">
  <advance width="600"/>
  <outline>
    <contour>
      <point x="366" y="-12" type="curve" smooth="yes"/>
      <point x="446.38277512" y="-12.0"/>
      <point x="520.77534621" y="19.7385846804"/>
      <point x="576" y="84" type="curve"/>
      <point x="482" y="188" type="line"/>
      <point x="453.749314789" y="157.731408703"/>
      <point x="418.4" y="136.0"/>
      <point x="376" y="136" type="curve" smooth="yes"/>
      <point x="287.589403974" y="136.0"/>
      <point x="226.0" y="204.0"/>
      <point x="226" y="326" type="curve" smooth="yes"/>
      <point x="226.0" y="444.0"/>
      <point x="287.566433566" y="514.0"/>
      <point x="368" y="514" type="curve" smooth="yes"/>
      <point x="412.419047619" y="514.0"/>
      <point x="443.670538822" y="498.285533021"/>
      <point x="474" y="472" type="curve"/>
      <point x="568" y="578" type="line"/>
      <point x="521.757356383" y="622.232093894"/>
      <point x="452.422110553" y="662.0"/>
      <point x="368" y="662" type="curve" smooth="yes"/>
      <point x="191.554858934" y="662.0"/>
      <point x="50.0" y="538.0"/>
      <point x="50" y="320" type="curve" smooth="yes"/>
      <point x="50.0" y="98.0"/>
      <point x="195.539432177" y="-12.0"/>
    </contour>
    <contour>
      <point x="356" y="670" type="move" name="aboveUC"/>
    </contour>
    <contour>
      <point x="348" y="0" type="move" name="baseLC"/>
    </contour>
    <contour>
      <point x="348" y="-20" type="move" name="belowLC"/>
    </contour>
  </outline>
</glyph>
<glyph name="Chedescender" format="1">
  <advance width="600"/>
  <outline>
    <contour>
      <point x="337" y="0" type="line"/>
      <point x="509" y="0" type="line"/>
      <point x="509" y="650" type="line"/>
      <point x="337" y="650" type="line"/>
      <point x="337" y="388" type="line"/>
      <point x="319" y="384"/>
      <point x="299" y="382"/>
      <point x="265" y="382" type="curve" smooth="yes"/>
      <point x="193" y="382"/>
      <point x="165" y="412"/>
      <point x="165" y="494" type="curve" smooth="yes"/>
      <point x="165" y="650" type="line"/>
      <point x="-3" y="650" type="line"/>
      <point x="-3" y="494" type="line" smooth="yes"/>
      <point x="-3" y="312"/>
      <point x="91" y="246"/>
      <point x="247" y="246" type="curve" smooth="yes"/>
      <point x="287" y="246"/>
      <point x="309" y="248"/>
      <point x="337" y="252" type="curve"/>
    </contour>
    <contour>
      <point x="427" y="-188" type="line"/>
      <point x="577" y="-188" type="line"/>
      <point x="591" y="36" type="line"/>
      <point x="591" y="144" type="line"/>
      <point x="399" y="144" type="line"/>
      <point x="399" y="0" type="line"/>
      <point x="427" y="0" type="line"/>
    </contour>
  </outline>
</glyph>
<glyph name="D" format="1">
  <advance width="600"/>
  <outline>
    <contour>
      <point x="64" y="0" type="line"/>
      <point x="261" y="0" type="line" smooth="yes"/>
      <point x="437" y="0"/>
      <point x="568" y="98"/>
      <point x="568" y="328" type="curve" smooth="yes"/>
      <point x="568" y="558"/>
      <point x="437" y="650"/>
      <point x="251" y="650" type="curve" smooth="yes"/>
      <point x="64" y="650" type="line"/>
    </contour>
    <contour>
      <point x="236" y="138" type="line"/>
      <point x="236" y="512" type="line"/>
      <point x="242" y="512" type="line" smooth="yes"/>
      <point x="325" y="512"/>
      <point x="392" y="480"/>
      <point x="392" y="328" type="curve" smooth="yes"/>
      <point x="392" y="176"/>
      <point x="325" y="138"/>
      <point x="242" y="138" type="curve" smooth="yes"/>
    </contour>
    <contour>
      <point x="296" y="672" type="move" name="aboveUC"/>
    </contour>
    <contour>
      <point x="290" y="-22" type="move" name="belowLC"/>
    </contour>
  </outline>
</glyph>
<glyph name="De" format="1">
  <advance width="600"/>
  <outline>
    <contour>
      <point x="339" y="0" type="line"/>
      <point x="511" y="0" type="line"/>
      <point x="511" y="650" type="line"/>
      <point x="183" y="650" type="line"/>
      <point x="162" y="532"/>
      <point x="152" y="474"/>
      <point x="131" y="366" type="curve" smooth="yes"/>
      <point x="101" y="214"/>
      <point x="67" y="154"/>
      <point x="37" y="144" type="curve"/>
      <point x="59" y="36" type="line"/>
      <point x="181" y="36"/>
      <point x="249" y="158"/>
      <point x="285" y="344" type="curve" smooth="yes"/>
      <point x="298" y="412"/>
      <point x="303" y="440"/>
      <point x="315" y="506" type="curve"/>
      <point x="339" y="506" type="line"/>
    </contour>
    <contour>
      <point x="21" y="-188" type="line"/>
      <point x="175" y="-188" type="line"/>
      <point x="175" y="0" type="line"/>
      <point x="573" y="0" type="line"/>
      <point x="573" y="144" type="line"/>
      <point x="7" y="144" type="line"/>
      <point x="7" y="36" type="line"/>
    </contour>
    <contour>
      <point x="425" y="-188" type="line"/>
      <point x="579" y="-188" type="line"/>
      <point x="593" y="36" type="line"/>
      <point x="593" y="144" type="line"/>
      <point x="37" y="144" type="line"/>
      <point x="37" y="0" type="line"/>
      <point x="425" y="0" type="line"/>
    </contour>
  </outline>
</glyph>
<glyph name="Dje" format="1">
  <advance width="600"/>
  <outline>
    <contour>
      <point x="415" y="-12" type="curve" smooth="yes"/>
      <point x="531" y="-12"/>
      <point x="609" y="49"/>
      <point x="609" y="192" type="curve" smooth="yes"/>
      <point x="609" y="350"/>
      <point x="493" y="410"/>
      <point x="375" y="410" type="curve" smooth="yes"/>
      <point x="329" y="410"/>
      <point x="315" y="408"/>
      <point x="285" y="404" type="curve"/>
      <point x="285" y="506" type="line"/>
      <point x="483" y="506" type="line"/>
      <point x="483" y="650" type="line"/>
      <point x="-39" y="650" type="line"/>
      <point x="-39" y="506" type="line"/>
      <point x="113" y="506" type="line"/>
      <point x="113" y="0" type="line"/>
      <point x="285" y="0" type="line"/>
      <point x="285" y="268" type="line"/>
      <point x="305" y="272"/>
      <point x="317" y="274"/>
      <point x="349" y="274" type="curve" smooth="yes"/>
      <point x="409" y="274"/>
      <point x="441" y="246"/>
      <point x="441" y="190" type="curve" smooth="yes"/>
      <point x="441" y="144"/>
      <point x="415" y="124"/>
      <point x="393" y="124" type="curve" smooth="yes"/>
      <point x="385" y="124"/>
      <point x="381" y="124"/>
      <point x="371" y="128" type="curve"/>
      <point x="345" y="-2" type="line"/>
      <point x="365" y="-10"/>
      <point x="387" y="-12"/>
    </contour>
  </outline>
</glyph>
<glyph name="Dzhe" format="1">
  <advance width="600"/>
  <outline>
    <contour>
      <point x="58" y="0" type="line"/>
      <point x="542" y="0" type="line"/>
      <point x="542" y="650" type="line"/>
      <point x="370" y="650" type="line"/>
      <point x="370" y="144" type="line"/>
      <point x="230" y="144" type="line"/>
      <point x="230" y="650" type="line"/>
      <point x="58" y="650" type="line"/>
    </contour>
    <contour>
      <point x="230" y="-188" type="line"/>
      <point x="372" y="-188" type="line"/>
      <point x="386" y="24" type="line"/>
      <point x="230" y="0" type="line"/>
    </contour>
  </outline>
</glyph>
<glyph name="Ecyr" format="1">
  <advance width="600"/>
  <outline>
    <contour>
      <point x="245" y="-12" type="curve" smooth="yes"/>
      <point x="409" y="-12"/>
      <point x="549" y="86"/>
      <point x="549" y="320" type="curve" smooth="yes"/>
      <point x="549" y="554"/>
      <point x="415" y="662"/>
      <point x="249" y="662" type="curve" smooth="yes"/>
      <point x="161" y="662"/>
      <point x="83" y="622"/>
      <point x="33" y="576" type="curve"/>
      <point x="123" y="466" type="line"/>
      <point x="160" y="496"/>
      <point x="193" y="514"/>
      <point x="239" y="514" type="curve" smooth="yes"/>
      <point x="327" y="514"/>
      <point x="379" y="462"/>
      <point x="379" y="326" type="curve" smooth="yes"/>
      <point x="379" y="186"/>
      <point x="327" y="136"/>
      <point x="243" y="136" type="curve" smooth="yes"/>
      <point x="189" y="136"/>
      <point x="147" y="162"/>
      <point x="115" y="192" type="curve"/>
      <point x="25" y="84" type="line"/>
      <point x="85" y="20"/>
      <point x="161" y="-12"/>
    </contour>
    <contour>
      <point x="167" y="260" type="line"/>
      <point x="449" y="260" type="line"/>
      <point x="449" y="404" type="line"/>
      <point x="167" y="404" type="line"/>
    </contour>
    <contour>
      <point x="270" y="672" type="move" name="aboveUC"/>
    </contour>
    <contour>
      <point x="270" y="-22" type="move" name="belowLC"/>
    </contour>
  </outline>
</glyph>
<glyph name="Ef" format="1">
  <advance width="600"/>
  <outline>
    <contour>
      <point x="296" y="72" type="curve"/>
      <point x="304" y="72" type="line" smooth="yes"/>
      <point x="484" y="72"/>
      <point x="588" y="154"/>
      <point x="588" y="328" type="curve" smooth="yes"/>
      <point x="588" y="502"/>
      <point x="484" y="580"/>
      <point x="304" y="580" type="curve" smooth="yes"/>
      <point x="296" y="580" type="line" smooth="yes"/>
      <point x="116" y="580"/>
      <point x="12" y="502"/>
      <point x="12" y="328" type="curve" smooth="yes"/>
      <point x="12" y="154"/>
      <point x="116" y="72"/>
    </contour>
    <contour>
      <point x="282" y="198" type="line" smooth="yes"/>
      <point x="200" y="198"/>
      <point x="162" y="236"/>
      <point x="162" y="328" type="curve" smooth="yes"/>
      <point x="162" y="420"/>
      <point x="200" y="454"/>
      <point x="282" y="454" type="curve" smooth="yes"/>
      <point x="318" y="454" type="line" smooth="yes"/>
      <point x="400" y="454"/>
      <point x="438" y="420"/>
      <point x="438" y="328" type="curve" smooth="yes"/>
      <point x="438" y="236"/>
      <point x="400" y="198"/>
      <point x="318" y="198" type="curve" smooth="yes"/>
    </contour>
    <contour>
      <point x="234" y="-12" type="line"/>
      <point x="366" y="-12" type="line"/>
      <point x="366" y="662" type="line"/>
      <point x="234" y="662" type="line"/>
    </contour>
  </outline>
</glyph>
<glyph name="Endescender" format="1">
  <advance width="600"/>
  <outline>
    <contour>
      <point x="456" y="-188" type="line"/>
      <point x="610" y="-188" type="line"/>
      <point x="624" y="36" type="line"/>
      <point x="624" y="144" type="line"/>
      <point x="432" y="144" type="line"/>
      <point x="432" y="0" type="line"/>
      <point x="456" y="0" type="line"/>
    </contour>
    <contour>
      <point x="58" y="0" type="line"/>
      <point x="230" y="0" type="line"/>
      <point x="230" y="258" type="line"/>
      <point x="370" y="258" type="line"/>
      <point x="370" y="0" type="line"/>
      <point x="542" y="0" type="line"/>
      <point x="542" y="650" type="line"/>
      <point x="370" y="650" type="line"/>
      <point x="370" y="408" type="line"/>
      <point x="230" y="408" type="line"/>
      <point x="230" y="650" type="line"/>
      <point x="58" y="650" type="line"/>
    </contour>
  </outline>
</glyph>
<glyph name="Eng.a" format="1">
  <advance width="600"/>
  <outline>
    <contour>
      <point x="397" y="-165" type="curve" smooth="yes"/>
      <point x="482" y="-165"/>
      <point x="518" y="-103"/>
      <point x="518" y="-3" type="curve"/>
      <point x="518" y="656" type="line"/>
      <point x="438" y="656" type="line"/>
      <point x="438" y="316" type="line"/>
      <point x="438" y="247"/>
      <point x="446" y="173"/>
      <point x="449" y="108" type="curve"/>
      <point x="447" y="108" type="line"/>
      <point x="384" y="244" type="line"/>
      <point x="174" y="656" type="line"/>
      <point x="82" y="656" type="line"/>
      <point x="82" y="0" type="line"/>
      <point x="162" y="0" type="line"/>
      <point x="162" y="343" type="line"/>
      <point x="162" y="411"/>
      <point x="154" y="481"/>
      <point x="151" y="548" type="curve"/>
      <point x="153" y="548" type="line"/>
      <point x="216" y="412" type="line"/>
      <point x="426" y="0" type="line"/>
      <point x="438" y="0" type="line"/>
      <point x="438" y="-58"/>
      <point x="429" y="-96"/>
      <point x="386" y="-96" type="curve" smooth="yes"/>
      <point x="371" y="-96"/>
      <point x="356" y="-91"/>
      <point x="344" y="-87" type="curve"/>
      <point x="328" y="-153" type="line"/>
      <point x="344" y="-159"/>
      <point x="368" y="-165"/>
    </contour>
    <contour>
      <point x="310" y="676" type="move" name="aboveUC"/>
    </contour>
  </outline>
</glyph>
<glyph name="Eogonek" format="1">
  <advance width="600"/>
  <outline>
    <contour>
      <point x="444" y="-228" type="curve" smooth="yes"/>
      <point x="482" y="-228"/>
      <point x="530" y="-212"/>
      <point x="558" y="-190" type="curve"/>
      <point x="520" y="-104" type="line"/>
      <point x="511" y="-110"/>
      <point x="498" y="-118"/>
      <point x="486" y="-118" type="curve" smooth="yes"/>
      <point x="466" y="-118"/>
      <point x="446" y="-108"/>
      <point x="446" y="-84" type="curve" smooth="yes"/>
      <point x="446" y="-43"/>
      <point x="484" y="0"/>
      <point x="530" y="0" type="curve" smooth="yes"/>
      <point x="536" y="0" type="line"/>
      <point x="536" y="144" type="line"/>
      <point x="258" y="144" type="line"/>
      <point x="258" y="260" type="line"/>
      <point x="486" y="260" type="line"/>
      <point x="486" y="404" type="line"/>
      <point x="258" y="404" type="line"/>
      <point x="258" y="506" type="line"/>
      <point x="526" y="506" type="line"/>
      <point x="526" y="650" type="line"/>
      <point x="86" y="650" type="line"/>
      <point x="86" y="0" type="line"/>
      <point x="402" y="0" type="line"/>
      <point x="369" y="-20"/>
      <point x="322" y="-67"/>
      <point x="322" y="-130" type="curve" smooth="yes"/>
      <point x="322" y="-192"/>
      <point x="376" y="-228"/>
    </contour>
    <contour>
      <point x="318" y="672" type="move" name="aboveUC"/>
    </contour>
  </outline>
</glyph>
<glyph name="Epsilontonos" format="1">
  <advance width="600"/>
  <outline>
    <contour>
      <point x="214" y="0" type="line"/>
      <point x="536" y="0" type="line"/>
      <point x="536" y="144" type="line"/>
      <point x="366" y="144" type="line"/>
      <point x="366" y="260" type="line"/>
      <point x="486" y="260" type="line"/>
      <point x="486" y="404" type="line"/>
      <point x="366" y="404" type="line"/>
      <point x="366" y="506" type="line"/>
      <point x="526" y="506" type="line"/>
      <point x="526" y="650" type="line"/>
      <point x="214" y="650" type="line"/>
    </contour>
    <contour>
      <point x="4" y="430" type="line"/>
      <point x="116" y="430" type="line"/>
      <point x="184" y="660" type="line"/>
      <point x="34" y="660" type="line"/>
    </contour>
  </outline>
</glyph>
<glyph name="Etatonos" format="1">
  <advance width="600"/>
  <outline>
    <contour>
      <point x="198" y="0" type="line"/>
      <point x="350" y="0" type="line"/>
      <point x="350" y="258" type="line"/>
      <point x="410" y="258" type="line"/>
      <point x="410" y="0" type="line"/>
      <point x="562" y="0" type="line"/>
      <point x="562" y="650" type="line"/>
      <point x="410" y="650" type="line"/>
      <point x="410" y="408" type="line"/>
      <point x="350" y="408" type="line"/>
      <point x="350" y="650" type="line"/>
      <point x="198" y="650" type="line"/>
    </contour>
    <component base="tonos.cap" xOffset="-210"/>
  </outline>
</glyph>
<glyph name="Germandbls" format="1">
  <advance width="600"/>
  <outline>
    <contour>
      <point x="394" y="-12" type="curve" smooth="yes"/>
      <point x="528" y="-12"/>
      <point x="584" y="68"/>
      <point x="584" y="170" type="curve" smooth="yes"/>
      <point x="584" y="262"/>
      <point x="542" y="316"/>
      <point x="444" y="374" type="curve"/>
      <point x="452" y="332" type="line"/>
      <point x="536" y="468" type="line"/>
      <point x="512" y="584"/>
      <point x="426" y="662"/>
      <point x="300" y="662" type="curve" smooth="yes"/>
      <point x="128" y="662"/>
      <point x="58" y="564"/>
      <point x="58" y="436" type="curve" smooth="yes"/>
      <point x="58" y="0" type="line"/>
      <point x="230" y="0" type="line"/>
      <point x="230" y="414" type="line" smooth="yes"/>
      <point x="230" y="488"/>
      <point x="252" y="524"/>
      <point x="302" y="524" type="curve" smooth="yes"/>
      <point x="336" y="524"/>
      <point x="368" y="507"/>
      <point x="370" y="452" type="curve"/>
      <point x="384" y="500" type="line"/>
      <point x="296" y="360" type="line"/>
      <point x="308" y="262" type="line"/>
      <point x="374" y="242"/>
      <point x="406" y="208"/>
      <point x="406" y="172" type="curve" smooth="yes"/>
      <point x="406" y="144"/>
      <point x="388" y="126"/>
      <point x="370" y="126" type="curve" smooth="yes"/>
      <point x="348" y="126"/>
      <point x="330" y="134"/>
      <point x="312" y="152" type="curve"/>
      <point x="244" y="48" type="line"/>
      <point x="274" y="14"/>
      <point x="328" y="-12"/>
    </contour>
  </outline>
</glyph>
<glyph name="Ghook" format="1">
  <advance width="600"/>
  <outline>
    <contour>
      <point x="540" y="578" type="line"/>
      <point x="526" y="594"/>
      <point x="510" y="614"/>
      <point x="510" y="644" type="curve" smooth="yes"/>
      <point x="510" y="676"/>
      <point x="532" y="690"/>
      <point x="560" y="690" type="curve" smooth="yes"/>
      <point x="570" y="690"/>
      <point x="576" y="688"/>
      <point x="586" y="684" type="curve"/>
      <point x="616" y="810" type="line"/>
      <point x="594" y="817"/>
      <point x="568" y="824"/>
      <point x="522" y="824" type="curve" smooth="yes"/>
      <point x="424.564102564" y="824.0"/>
      <point x="370.0" y="756.675324675"/>
      <point x="370" y="680" type="curve" smooth="yes"/>
      <point x="370.0" y="649.142857143"/>
      <point x="384" y="604"/>
      <point x="402" y="572" type="curve"/>
    </contour>
    <component base="G"/>
  </outline>
</glyph>
<glyph name="Gsmall" format="1">
  <advance width="600"/>
  <outline>
    <contour>
      <point x="329" y="-12" type="curve" smooth="yes"/>
      <point x="411.241025641" y="-12.0"/>
      <point x="488.023336374" y="15.1141888046"/>
      <point x="532" y="55" type="curve"/>
      <point x="532" y="310" type="line"/>
      <point x="312" y="310" type="line"/>
      <point x="312" y="198" type="line"/>
      <point x="386" y="198" type="line"/>
      <point x="386" y="126" type="line"/>
      <point x="374.324777491" y="118.994866495"/>
      <point x="359.111111111" y="118.0"/>
      <point x="342" y="118" type="curve" smooth="yes"/>
      <point x="279.265306122" y="118.0"/>
      <point x="236.0" y="164.0"/>
      <point x="236" y="247" type="curve" smooth="yes"/>
      <point x="236.0" y="344.0"/>
      <point x="296.710280374" y="382.0"/>
      <point x="352" y="382" type="curve" smooth="yes"/>
      <point x="402.032" y="382.0"/>
      <point x="421.407797701" y="368.518278338"/>
      <point x="458" y="346" type="curve"/>
      <point x="534" y="448" type="line"/>
      <point x="484.562790696" y="485.804924762"/>
      <point x="432.901408451" y="512.0"/>
      <point x="340" y="512" type="curve" smooth="yes"/>
      <point x="202.550185874" y="512.0"/>
      <point x="62.0" y="418.0"/>
      <point x="62" y="247" type="curve" smooth="yes"/>
      <point x="62.0" y="67.0"/>
      <point x="193.953667954" y="-12.0"/>
    </contour>
    <contour>
      <point x="332" y="522" type="move" name="aboveUC"/>
    </contour>
    <contour>
      <point x="330" y="-22" type="move" name="belowLC"/>
    </contour>
  </outline>
</glyph>
<glyph name="Hadescender" format="1">
  <advance width="600"/>
  <outline>
    <contour>
      <point x="-3" y="0" type="line"/>
      <point x="181" y="0" type="line"/>
      <point x="229" y="116" type="line" smooth="yes"/>
      <point x="243" y="150"/>
      <point x="257" y="184"/>
      <point x="271" y="224" type="curve"/>
      <point x="275" y="224" type="line"/>
      <point x="291" y="184"/>
      <point x="305" y="150"/>
      <point x="321" y="116" type="curve" smooth="yes"/>
      <point x="373" y="0" type="line"/>
      <point x="565" y="0" type="line"/>
      <point x="389" y="326" type="line"/>
      <point x="555" y="650" type="line"/>
      <point x="371" y="650" type="line"/>
      <point x="333" y="544" type="line"/>
      <point x="321" y="514"/>
      <point x="307" y="478"/>
      <point x="293" y="436" type="curve"/>
      <point x="289" y="436" type="line"/>
      <point x="271" y="478"/>
      <point x="257" y="514"/>
      <point x="243" y="544" type="curve"/>
      <point x="199" y="650" type="line"/>
      <point x="7" y="650" type="line"/>
      <point x="173" y="334" type="line"/>
    </contour>
    <contour>
      <point x="441" y="-188" type="line"/>
      <point x="591" y="-188" type="line"/>
      <point x="605" y="36" type="line"/>
      <point x="605" y="144" type="line"/>
      <point x="407" y="144" type="line"/>
      <point x="407" y="0" type="line"/>
      <point x="441" y="0" type="line"/>
    </contour>
  </outline>
</glyph>
<glyph name="Hard" format="1">
  <advance width="600"/>
  <outline>
    <contour>
      <point x="141" y="0" type="line"/>
      <point x="373" y="0" type="line" smooth="yes"/>
      <point x="513" y="0"/>
      <point x="633" y="54"/>
      <point x="633" y="218" type="curve" smooth="yes"/>
      <point x="633" y="363"/>
      <point x="507" y="424"/>
      <point x="369" y="424" type="curve" smooth="yes"/>
      <point x="313" y="424" type="line"/>
      <point x="313" y="650" type="line"/>
      <point x="-43" y="650" type="line"/>
      <point x="-43" y="506" type="line"/>
      <point x="141" y="506" type="line"/>
    </contour>
    <contour>
      <point x="313" y="136" type="line"/>
      <point x="313" y="288" type="line"/>
      <point x="361" y="288" type="line" smooth="yes"/>
      <point x="431" y="288"/>
      <point x="465" y="262"/>
      <point x="465" y="216" type="curve" smooth="yes"/>
      <point x="465" y="158"/>
      <point x="429" y="136"/>
      <point x="365" y="136" type="curve" smooth="yes"/>
    </contour>
  </outline>
</glyph>
<glyph name="Icyr" format="1">
  <advance width="600"/>
  <outline>
    <contour>
      <point x="78" y="0" type="line"/>
      <point x="170" y="0" type="line"/>
      <point x="388" y="412" type="line"/>
      <point x="451" y="548" type="line"/>
      <point x="453" y="548" type="line"/>
      <point x="450" y="481"/>
      <point x="442" y="411"/>
      <point x="442" y="343" type="curve"/>
      <point x="442" y="0" type="line"/>
      <point x="522" y="0" type="line"/>
      <point x="522" y="656" type="line"/>
      <point x="430" y="656" type="line"/>
      <point x="212" y="244" type="line"/>
      <point x="149" y="108" type="line"/>
      <point x="147" y="108" type="line"/>
      <point x="150" y="173"/>
      <point x="158" y="247"/>
      <point x="158" y="316" type="curve"/>
      <point x="158" y="656" type="line"/>
      <point x="78" y="656" type="line"/>
    </contour>
    <contour>
      <point x="304" y="676" type="move" name="aboveUC"/>
    </contour>
  </outline>
</glyph>
<glyph name="Iotatonos" format="1">
  <advance width="600"/>
  <outline>
    <contour>
      <point x="206" y="0" type="line"/>
      <point x="534" y="0" type="line"/>
      <point x="534" y="144" type="line"/>
      <point x="456" y="144" type="line"/>
      <point x="456" y="506" type="line"/>
      <point x="534" y="506" type="line"/>
      <point x="534" y="650" type="line"/>
      <point x="206" y="650" type="line"/>
      <point x="206" y="506" type="line"/>
      <point x="284" y="506" type="line"/>
      <point x="284" y="144" type="line"/>
      <point x="206" y="144" type="line"/>
    </contour>
    <contour>
      <point x="4" y="430" type="line"/>
      <point x="116" y="430" type="line"/>
      <point x="184" y="660" type="line"/>
      <point x="34" y="660" type="line"/>
    </contour>
  </outline>
</glyph>
<glyph name="Ismall" format="1">
  <advance width="600"/>
  <outline>
    <contour>
      <point x="76" y="0" type="line"/>
      <point x="524" y="0" type="line"/>
      <point x="524" y="134" type="line"/>
      <point x="386" y="134" type="line"/>
      <point x="386" y="366" type="line"/>
      <point x="524" y="366" type="line"/>
      <point x="524" y="500" type="line"/>
      <point x="76" y="500" type="line"/>
      <point x="76" y="366" type="line"/>
      <point x="214" y="366" type="line"/>
      <point x="214" y="134" type="line"/>
      <point x="76" y="134" type="line"/>
    </contour>
    <contour>
      <point x="300" y="522" type="move" name="aboveLC"/>
    </contour>
    <contour>
      <point x="300" y="-22" type="move" name="belowLC"/>
    </contour>
    <contour>
      <point x="282" y="0" type="move" name="ogonekUC"/>
    </contour>
  </outline>
</glyph>
<glyph name="K" format="1">
  <advance width="600"/>
  <outline>
    <contour>
      <point x="56" y="0" type="line"/>
      <point x="230" y="0" type="line"/>
      <point x="230" y="162" type="line"/>
      <point x="292" y="250" type="line"/>
      <point x="410" y="0" type="line"/>
      <point x="600" y="0" type="line"/>
      <point x="392" y="386" type="line"/>
      <point x="584" y="650" type="line"/>
      <point x="394" y="650" type="line"/>
      <point x="234" y="408" type="line"/>
      <point x="230" y="408" type="line"/>
      <point x="230" y="650" type="line"/>
      <point x="56" y="650" type="line"/>
    </contour>
    <contour>
      <point x="308" y="672" type="move" name="aboveUC"/>
    </contour>
    <contour>
      <point x="318" y="-22" type="move" name="belowLC"/>
    </contour>
  </outline>
</glyph>
<glyph name="Ka" format="1">
  <advance width="600"/>
  <outline>
    <contour>
      <point x="53" y="0" type="line"/>
      <point x="225" y="0" type="line"/>
      <point x="225" y="264" type="line"/>
      <point x="281" y="264" type="line"/>
      <point x="443" y="0" type="line"/>
      <point x="623" y="0" type="line"/>
      <point x="381" y="402" type="line"/>
      <point x="225" y="402" type="line"/>
      <point x="225" y="650" type="line"/>
      <point x="53" y="650" type="line"/>
    </contour>
    <contour>
      <point x="413" y="340" type="line"/>
      <point x="479" y="452" type="line" smooth="yes"/>
      <point x="500" y="488"/>
      <point x="517" y="502"/>
      <point x="547" y="502" type="curve" smooth="yes"/>
      <point x="553" y="502"/>
      <point x="565" y="502"/>
      <point x="577" y="498" type="curve"/>
      <point x="605" y="652" type="line"/>
      <point x="589" y="660"/>
      <point x="565" y="662"/>
      <point x="545" y="662" type="curve" smooth="yes"/>
      <point x="465" y="662"/>
      <point x="411" y="630"/>
      <point x="363" y="546" type="curve" smooth="yes"/>
      <point x="265" y="374" type="line"/>
    </contour>
  </outline>
</glyph>
<glyph name="Kadescender" format="1">
  <advance width="600"/>
  <outline>
    <contour>
      <point x="31" y="0" type="line"/>
      <point x="203" y="0" type="line"/>
      <point x="203" y="264" type="line"/>
      <point x="259" y="264" type="line"/>
      <point x="421" y="0" type="line"/>
      <point x="601" y="0" type="line"/>
      <point x="359" y="402" type="line"/>
      <point x="203" y="402" type="line"/>
      <point x="203" y="650" type="line"/>
      <point x="31" y="650" type="line"/>
    </contour>
    <contour>
      <point x="391" y="340" type="line"/>
      <point x="457" y="452" type="line" smooth="yes"/>
      <point x="478" y="488"/>
      <point x="495" y="502"/>
      <point x="525" y="502" type="curve" smooth="yes"/>
      <point x="531" y="502"/>
      <point x="543" y="502"/>
      <point x="555" y="498" type="curve"/>
      <point x="583" y="652" type="line"/>
      <point x="567" y="660"/>
      <point x="543" y="662"/>
      <point x="523" y="662" type="curve" smooth="yes"/>
      <point x="443" y="662"/>
      <point x="389" y="630"/>
      <point x="341" y="546" type="curve" smooth="yes"/>
      <point x="243" y="374" type="line"/>
    </contour>
    <contour>
      <point x="465" y="-188" type="line"/>
      <point x="619" y="-188" type="line"/>
      <point x="633" y="36" type="line"/>
      <point x="633" y="144" type="line"/>
      <point x="435" y="144" type="line"/>
      <point x="435" y="0" type="line"/>
      <point x="465" y="0" type="line"/>
    </contour>
  </outline>
</glyph>
<glyph name="Lcat" format="1">
  <advance width="600"/>
  <outline>
    <contour>
      <point x="26" y="0" type="line"/>
      <point x="274" y="0" type="line"/>
      <point x="274" y="144" type="line"/>
      <point x="178" y="144" type="line"/>
      <point x="178" y="650" type="line"/>
      <point x="26" y="650" type="line"/>
    </contour>
    <contour>
      <point x="258" y="306" type="curve" smooth="yes"/>
      <point x="300" y="306"/>
      <point x="328" y="337"/>
      <point x="328" y="376" type="curve" smooth="yes"/>
      <point x="328" y="414"/>
      <point x="300" y="446"/>
      <point x="258" y="446" type="curve" smooth="yes"/>
      <point x="216" y="446"/>
      <point x="188" y="414"/>
      <point x="188" y="376" type="curve" smooth="yes"/>
      <point x="188" y="337"/>
      <point x="216" y="306"/>
    </contour>
    <contour>
      <point x="338" y="0" type="line"/>
      <point x="586" y="0" type="line"/>
      <point x="586" y="144" type="line"/>
      <point x="490" y="144" type="line"/>
      <point x="490" y="650" type="line"/>
      <point x="338" y="650" type="line"/>
    </contour>
  </outline>
</glyph>
<glyph name="Lje" format="1">
  <advance width="600"/>
  <outline>
    <contour>
      <point x="-77" y="-12" type="curve" smooth="yes"/>
      <point x="37" y="-12"/>
      <point x="97" y="52"/>
      <point x="141" y="278" type="curve" smooth="yes"/>
      <point x="155" y="352"/>
      <point x="167" y="424"/>
      <point x="181" y="506" type="curve"/>
      <point x="257" y="506" type="line"/>
      <point x="257" y="0" type="line"/>
      <point x="429" y="0" type="line"/>
      <point x="429" y="650" type="line"/>
      <point x="49" y="650" type="line"/>
      <point x="27" y="532"/>
      <point x="7" y="412"/>
      <point x="-19" y="296" type="curve" smooth="yes"/>
      <point x="-49" y="162"/>
      <point x="-71" y="148"/>
      <point x="-103" y="148" type="curve" smooth="yes"/>
      <point x="-115" y="148"/>
      <point x="-123" y="150"/>
      <point x="-131" y="152" type="curve"/>
      <point x="-161" y="-2" type="line"/>
      <point x="-139" y="-10"/>
      <point x="-117" y="-12"/>
    </contour>
    <contour>
      <point x="257" y="0" type="line"/>
      <point x="465" y="0" type="line" smooth="yes"/>
      <point x="609" y="0"/>
      <point x="729" y="54"/>
      <point x="729" y="218" type="curve" smooth="yes"/>
      <point x="729" y="366"/>
      <point x="617" y="424"/>
      <point x="469" y="424" type="curve" smooth="yes"/>
      <point x="429" y="424" type="line"/>
      <point x="429" y="650" type="line"/>
      <point x="257" y="650" type="line"/>
    </contour>
    <contour>
      <point x="429" y="136" type="line"/>
      <point x="429" y="288" type="line"/>
      <point x="457" y="288" type="line" smooth="yes"/>
      <point x="527" y="288"/>
      <point x="561" y="264"/>
      <point x="561" y="216" type="curve" smooth="yes"/>
      <point x="561" y="158"/>
      <point x="521" y="136"/>
      <point x="457" y="136" type="curve" smooth="yes"/>
    </contour>
  </outline>
</glyph>
<glyph name="Lslash" format="1">
  <advance width="600"/>
  <outline>
    <contour>
      <point x="44" y="166" type="line"/>
      <point x="115" y="210" type="line"/>
      <point x="251" y="268" type="line"/>
      <point x="494" y="402" type="line"/>
      <point x="436" y="504" type="line"/>
      <point x="251" y="400" type="line"/>
      <point x="115" y="342" type="line"/>
      <point x="-14" y="268" type="line"/>
    </contour>
    <component base="L"/>
    <contour>
      <point x="300" y="670" type="move" name="aboveUC"/>
    </contour>
    <contour>
      <point x="300" y="-20" type="move" name="belowLC"/>
    </contour>
  </outline>
</glyph>
<glyph name="Lsmall" format="1">
  <advance width="600"/>
  <outline>
    <contour>
      <point x="110" y="0" type="line"/>
      <point x="538" y="0" type="line"/>
      <point x="538" y="134" type="line"/>
      <point x="282" y="134" type="line"/>
      <point x="282" y="500" type="line"/>
      <point x="110" y="500" type="line"/>
    </contour>
    <contour>
      <point x="194" y="522" type="move" name="aboveUC"/>
    </contour>
    <contour>
      <point x="322" y="-22" type="move" name="belowLC"/>
    </contour>
  </outline>
</glyph>
<glyph name="M" format="1">
  <advance width="600"/>
  <outline>
    <contour>
      <point x="52" y="0" type="line"/>
      <point x="192" y="0" type="line"/>
      <point x="192" y="153" type="line" smooth="yes"/>
      <point x="192" y="230"/>
      <point x="178" y="407"/>
      <point x="170" y="483" type="curve"/>
      <point x="174" y="483" type="line"/>
      <point x="224" y="290" type="line"/>
      <point x="260" y="172" type="line"/>
      <point x="336" y="172" type="line"/>
      <point x="370" y="290" type="line"/>
      <point x="425" y="483" type="line"/>
      <point x="428" y="483" type="line"/>
      <point x="420" y="407"/>
      <point x="406" y="230"/>
      <point x="406" y="153" type="curve" smooth="yes"/>
      <point x="406" y="0" type="line"/>
      <point x="548" y="0" type="line"/>
      <point x="548" y="650" type="line"/>
      <point x="373" y="650" type="line"/>
      <point x="320" y="438" type="line"/>
      <point x="302" y="354" type="line"/>
      <point x="298" y="354" type="line"/>
      <point x="280" y="438" type="line"/>
      <point x="227" y="650" type="line"/>
      <point x="52" y="650" type="line"/>
    </contour>
    <contour>
      <point x="300" y="670" type="move" name="aboveUC"/>
    </contour>
    <contour>
      <point x="478" y="0" type="move" name="baseLC"/>
    </contour>
    <contour>
      <point x="300" y="-20" type="move" name="belowLC"/>
    </contour>
  </outline>
</glyph>
<glyph name="Nje" format="1">
  <advance width="600"/>
  <outline>
    <contour>
      <point x="-95" y="0" type="line"/>
      <point x="77" y="0" type="line"/>
      <point x="77" y="258" type="line"/>
      <point x="261" y="258" type="line"/>
      <point x="261" y="0" type="line"/>
      <point x="433" y="0" type="line"/>
      <point x="433" y="650" type="line"/>
      <point x="261" y="650" type="line"/>
      <point x="261" y="408" type="line"/>
      <point x="77" y="408" type="line"/>
      <point x="77" y="650" type="line"/>
      <point x="-95" y="650" type="line"/>
    </contour>
    <contour>
      <point x="261" y="0" type="line"/>
      <point x="469" y="0" type="line" smooth="yes"/>
      <point x="613" y="0"/>
      <point x="733" y="54"/>
      <point x="733" y="218" type="curve" smooth="yes"/>
      <point x="733" y="366"/>
      <point x="621" y="424"/>
      <point x="473" y="424" type="curve" smooth="yes"/>
      <point x="433" y="424" type="line"/>
      <point x="433" y="650" type="line"/>
      <point x="261" y="650" type="line"/>
    </contour>
    <contour>
      <point x="433" y="136" type="line"/>
      <point x="433" y="288" type="line"/>
      <point x="461" y="288" type="line" smooth="yes"/>
      <point x="531" y="288"/>
      <point x="565" y="264"/>
      <point x="565" y="216" type="curve" smooth="yes"/>
      <point x="565" y="158"/>
      <point x="525" y="136"/>
      <point x="461" y="136" type="curve" smooth="yes"/>
    </contour>
  </outline>
</glyph>
<glyph name="Omega" format="1">
  <advance width="600"/>
  <outline>
    <contour>
      <point x="28" y="0" type="line"/>
      <point x="262" y="0" type="line"/>
      <point x="262" y="124" type="line"/>
      <point x="220" y="204"/>
      <point x="210.0" y="254.0"/>
      <point x="210" y="342" type="curve" smooth="yes"/>
      <point x="210.0" y="444.0"/>
      <point x="241.764705882" y="514.0"/>
      <point x="300" y="514" type="curve" smooth="yes"/>
      <point x="358.235294118" y="514.0"/>
      <point x="390.0" y="444.0"/>
      <point x="390" y="342" type="curve" smooth="yes"/>
      <point x="390.0" y="254.0"/>
      <point x="380" y="204"/>
      <point x="338" y="124" type="curve"/>
      <point x="338" y="0" type="line"/>
      <point x="572" y="0" type="line"/>
      <point x="572" y="138" type="line"/>
      <point x="480" y="138" type="line"/>
      <point x="480" y="142" type="line"/>
      <point x="518" y="182"/>
      <point x="566" y="262"/>
      <point x="566" y="360" type="curve" smooth="yes"/>
      <point x="566.0" y="540.0"/>
      <point x="460.748201439" y="662.0"/>
      <point x="300" y="662" type="curve" smooth="yes"/>
      <point x="139.251798561" y="662.0"/>
      <point x="34.0" y="540.0"/>
      <point x="34" y="360" type="curve" smooth="yes"/>
      <point x="34" y="262"/>
      <point x="82" y="182"/>
      <point x="120" y="142" type="curve"/>
      <point x="120" y="138" type="line"/>
      <point x="28" y="138" type="line"/>
    </contour>
    <contour>
      <point x="300" y="670" type="move" name="aboveUC"/>
    </contour>
    <contour>
      <point x="300" y="-20" type="move" name="belowLC"/>
    </contour>
  </outline>
</glyph>
<glyph name="Omegatonos" format="1">
  <advance width="600"/>
  <outline>
    <contour>
      <point x="138" y="0" type="line"/>
      <point x="338" y="0" type="line"/>
      <point x="338" y="124" type="line"/>
      <point x="312" y="212"/>
      <point x="308" y="254"/>
      <point x="308" y="342" type="curve" smooth="yes"/>
      <point x="308" y="464"/>
      <point x="325.538461538" y="514.0"/>
      <point x="356" y="514" type="curve" smooth="yes"/>
      <point x="387.384615385" y="514.0"/>
      <point x="404" y="464"/>
      <point x="404" y="342" type="curve" smooth="yes"/>
      <point x="404" y="254"/>
      <point x="400" y="212"/>
      <point x="374" y="124" type="curve"/>
      <point x="374" y="0" type="line"/>
      <point x="574" y="0" type="line"/>
      <point x="574" y="138" type="line"/>
      <point x="498" y="138" type="line"/>
      <point x="498" y="142" type="line"/>
      <point x="533.884207027" y="202.554599359"/>
      <point x="564.0" y="273.009174312"/>
      <point x="564" y="380" type="curve" smooth="yes"/>
      <point x="564.0" y="548.079470199"/>
      <point x="481.894736842" y="662.0"/>
      <point x="356" y="662" type="curve" smooth="yes"/>
      <point x="230.105263158" y="662.0"/>
      <point x="148.0" y="548.079470199"/>
      <point x="148" y="380" type="curve" smooth="yes"/>
      <point x="148.0" y="273.009174312"/>
      <point x="178.115792973" y="202.554599359"/>
      <point x="214" y="142" type="curve"/>
      <point x="214" y="138" type="line"/>
      <point x="138" y="138" type="line"/>
    </contour>
    <component base="tonos.cap" xOffset="-210"/>
  </outline>
</glyph>
<glyph name="Omicrontonos" format="1">
  <advance width="600"/>
  <outline>
    <contour>
      <point x="356" y="-12" type="curve" smooth="yes"/>
      <point x="480.811320755" y="-12.0"/>
      <point x="566" y="104"/>
      <point x="566" y="328" type="curve" smooth="yes"/>
      <point x="566" y="552"/>
      <point x="480.811320755" y="662.0"/>
      <point x="356" y="662" type="curve" smooth="yes"/>
      <point x="231.631067961" y="662.0"/>
      <point x="146" y="552"/>
      <point x="146" y="328" type="curve" smooth="yes"/>
      <point x="146" y="114"/>
      <point x="231.631067961" y="-12.0"/>
    </contour>
    <contour>
      <point x="356" y="136" type="curve" smooth="yes"/>
      <point x="326.24" y="136.0"/>
      <point x="308" y="180"/>
      <point x="308" y="328" type="curve" smooth="yes"/>
      <point x="308" y="476"/>
      <point x="326.24" y="514.0"/>
      <point x="356" y="514" type="curve" smooth="yes"/>
      <point x="386.72" y="514.0"/>
      <point x="404" y="476"/>
      <point x="404" y="328" type="curve" smooth="yes"/>
      <point x="404" y="180"/>
      <point x="386.72" y="136.0"/>
    </contour>
    <component base="tonos.cap" xOffset="-210"/>
  </outline>
</glyph>
<glyph name="P" format="1">
  <advance width="600"/>
  <outline>
    <contour>
      <point x="64" y="0" type="line"/>
      <point x="236" y="0" type="line"/>
      <point x="236" y="206" type="line"/>
      <point x="308" y="206" type="line" smooth="yes"/>
      <point x="444" y="206"/>
      <point x="568" y="275"/>
      <point x="568" y="434" type="curve" smooth="yes"/>
      <point x="568" y="598"/>
      <point x="448" y="650"/>
      <point x="308" y="650" type="curve" smooth="yes"/>
      <point x="64" y="650" type="line"/>
    </contour>
    <contour>
      <point x="236" y="342" type="line"/>
      <point x="236" y="514" type="line"/>
      <point x="300" y="514" type="line" smooth="yes"/>
      <point x="364" y="514"/>
      <point x="400" y="492"/>
      <point x="400" y="434" type="curve" smooth="yes"/>
      <point x="400" y="376"/>
      <point x="368" y="342"/>
      <point x="300" y="342" type="curve" smooth="yes"/>
    </contour>
    <contour>
      <point x="320" y="670" type="move" name="aboveUC"/>
    </contour>
    <contour>
      <point x="140" y="-20" type="move" name="belowLC"/>
    </contour>
  </outline>
</glyph>
<glyph name="Psi" format="1">
  <advance width="600"/>
  <outline>
    <contour>
      <point x="281" y="242" type="curve"/>
      <point x="319" y="242" type="line"/>
      <point x="466" y="242"/>
      <point x="556" y="317"/>
      <point x="556" y="480" type="curve" smooth="yes"/>
      <point x="556" y="656" type="line"/>
      <point x="476" y="656" type="line"/>
      <point x="476" y="484" type="line"/>
      <point x="476" y="367"/>
      <point x="425" y="309"/>
      <point x="322" y="309" type="curve" smooth="yes"/>
      <point x="278" y="309" type="line"/>
      <point x="175" y="309"/>
      <point x="124" y="367"/>
      <point x="124" y="484" type="curve" smooth="yes"/>
      <point x="124" y="656" type="line"/>
      <point x="44" y="656" type="line"/>
      <point x="44" y="480" type="line"/>
      <point x="44" y="317"/>
      <point x="134" y="242"/>
    </contour>
    <contour>
      <point x="258" y="0" type="line"/>
      <point x="342" y="0" type="line"/>
      <point x="342" y="656" type="line"/>
      <point x="258" y="656" type="line"/>
    </contour>
  </outline>
</glyph>
<glyph name="Q" format="1">
  <advance width="600"/>
  <outline>
    <contour>
      <point x="300" y="-12" type="curve" smooth="yes"/>
      <point x="458" y="-12"/>
      <point x="566" y="102"/>
      <point x="566" y="328" type="curve" smooth="yes"/>
      <point x="566" y="548"/>
      <point x="458" y="662"/>
      <point x="300" y="662" type="curve" smooth="yes"/>
      <point x="142" y="662"/>
      <point x="34" y="548"/>
      <point x="34" y="328" type="curve" smooth="yes"/>
      <point x="34" y="102"/>
      <point x="142" y="-12"/>
    </contour>
    <contour>
      <point x="300" y="128" type="curve" smooth="yes"/>
      <point x="244" y="128"/>
      <point x="210" y="186"/>
      <point x="210" y="328" type="curve" smooth="yes"/>
      <point x="210" y="452"/>
      <point x="244" y="514"/>
      <point x="300" y="514" type="curve" smooth="yes"/>
      <point x="356" y="514"/>
      <point x="390" y="452"/>
      <point x="390" y="328" type="curve" smooth="yes"/>
      <point x="390" y="186"/>
      <point x="356" y="128"/>
    </contour>
    <contour>
      <point x="490" y="-184" type="curve" smooth="yes"/>
      <point x="536" y="-184"/>
      <point x="572" y="-174"/>
      <point x="594" y="-160" type="curve"/>
      <point x="564" y="-34" type="line"/>
      <point x="550" y="-41"/>
      <point x="530" y="-48"/>
      <point x="510" y="-48" type="curve" smooth="yes"/>
      <point x="466" y="-48"/>
      <point x="410" y="-34"/>
      <point x="392" y="24" type="curve"/>
      <point x="218" y="6" type="line"/>
      <point x="260" y="-106"/>
      <point x="355" y="-184"/>
    </contour>
    <contour>
      <point x="306" y="672" type="move" name="aboveUC"/>
    </contour>
  </outline>
</glyph>
<glyph name="Rsmallinverted" format="1">
  <advance width="600"/>
  <outline>
    <contour>
      <point x="277" y="0" type="curve" smooth="yes"/>
      <point x="534" y="0" type="line"/>
      <point x="534" y="500" type="line"/>
      <point x="362" y="500" type="line"/>
      <point x="362" y="350" type="line"/>
      <point x="280" y="350" type="line"/>
      <point x="184" y="350"/>
      <point x="64" y="302"/>
      <point x="64" y="172" type="curve" smooth="yes"/>
      <point x="64" y="42"/>
      <point x="160" y="0"/>
    </contour>
    <contour>
      <point x="298" y="124" type="line" smooth="yes"/>
      <point x="253" y="124"/>
      <point x="233" y="142"/>
      <point x="233" y="177" type="curve" smooth="yes"/>
      <point x="233" y="211"/>
      <point x="253" y="236"/>
      <point x="298" y="236" type="curve" smooth="yes"/>
      <point x="362" y="236" type="line"/>
      <point x="362" y="124" type="line"/>
    </contour>
    <contour>
      <point x="188" y="258" type="line"/>
      <point x="348" y="304" type="line"/>
      <point x="216" y="500" type="line"/>
      <point x="14" y="500" type="line"/>
    </contour>
    <contour>
      <point x="290" y="522" type="move" name="aboveUC"/>
    </contour>
    <contour>
      <point x="310" y="-22" type="move" name="belowLC"/>
    </contour>
  </outline>
</glyph>
<glyph name="Sha" format="1">
  <advance width="600"/>
  <outline>
    <contour>
      <point x="26" y="0" type="line"/>
      <point x="574" y="0" type="line"/>
      <point x="574" y="650" type="line"/>
      <point x="412" y="650" type="line"/>
      <point x="412" y="144" type="line"/>
      <point x="362" y="144" type="line"/>
      <point x="362" y="650" type="line"/>
      <point x="238" y="650" type="line"/>
      <point x="238" y="144" type="line"/>
      <point x="188" y="144" type="line"/>
      <point x="188" y="650" type="line"/>
      <point x="26" y="650" type="line"/>
    </contour>
  </outline>
</glyph>
<glyph name="Shcha" format="1">
  <advance width="600"/>
  <outline>
    <contour>
      <point x="-101" y="0" type="line"/>
      <point x="683" y="0" type="line"/>
      <point x="683" y="650" type="line"/>
      <point x="515" y="650" type="line"/>
      <point x="515" y="144" type="line"/>
      <point x="373" y="144" type="line"/>
      <point x="373" y="650" type="line"/>
      <point x="209" y="650" type="line"/>
      <point x="209" y="144" type="line"/>
      <point x="67" y="144" type="line"/>
      <point x="67" y="650" type="line"/>
      <point x="-101" y="650" type="line"/>
    </contour>
    <contour>
      <point x="597" y="-188" type="line"/>
      <point x="751" y="-188" type="line"/>
      <point x="765" y="36" type="line"/>
      <point x="765" y="144" type="line"/>
      <point x="573" y="144" type="line"/>
      <point x="573" y="0" type="line"/>
      <point x="597" y="0" type="line"/>
    </contour>
  </outline>
</glyph>
<glyph name="Soft" format="1">
  <advance width="600"/>
  <outline>
    <contour>
      <point x="64" y="0" type="line"/>
      <point x="304" y="0" type="line" smooth="yes"/>
      <point x="448" y="0"/>
      <point x="568" y="54"/>
      <point x="568" y="218" type="curve" smooth="yes"/>
      <point x="568" y="366"/>
      <point x="456" y="424"/>
      <point x="308" y="424" type="curve" smooth="yes"/>
      <point x="236" y="424" type="line"/>
      <point x="236" y="650" type="line"/>
      <point x="64" y="650" type="line"/>
    </contour>
    <contour>
      <point x="236" y="136" type="line"/>
      <point x="236" y="288" type="line"/>
      <point x="296" y="288" type="line" smooth="yes"/>
      <point x="366" y="288"/>
      <point x="400" y="264"/>
      <point x="400" y="216" type="curve" smooth="yes"/>
      <point x="400" y="158"/>
      <point x="360" y="136"/>
      <point x="296" y="136" type="curve" smooth="yes"/>
    </contour>
  </outline>
</glyph>
<glyph name="T" format="1">
  <advance width="600"/>
  <outline>
    <contour>
      <point x="258" y="0" type="line"/>
      <point x="342" y="0" type="line"/>
      <point x="342" y="586" type="line"/>
      <point x="558" y="586" type="line"/>
      <point x="558" y="656" type="line"/>
      <point x="42" y="656" type="line"/>
      <point x="42" y="586" type="line"/>
      <point x="258" y="586" type="line"/>
    </contour>
    <contour>
      <point x="300" y="676" type="move" name="aboveUC"/>
    </contour>
    <contour>
      <point x="300" y="0" type="move" name="baseLC"/>
    </contour>
    <contour>
      <point x="300" y="-20" type="move" name="belowLC"/>
    </contour>
  </outline>
</glyph>
<glyph name="Tshe" format="1">
  <advance width="600"/>
  <outline>
    <contour>
      <point x="113" y="0" type="line"/>
      <point x="285" y="0" type="line"/>
      <point x="285" y="268" type="line"/>
      <point x="305" y="272"/>
      <point x="325" y="274"/>
      <point x="345" y="274" type="curve" smooth="yes"/>
      <point x="413" y="274"/>
      <point x="437" y="244"/>
      <point x="437" y="182" type="curve" smooth="yes"/>
      <point x="437" y="0" type="line"/>
      <point x="605" y="0" type="line"/>
      <point x="605" y="182" type="line" smooth="yes"/>
      <point x="605" y="344"/>
      <point x="509" y="410"/>
      <point x="364" y="410" type="curve" smooth="yes"/>
      <point x="337" y="410"/>
      <point x="315" y="408"/>
      <point x="285" y="404" type="curve"/>
      <point x="285" y="650" type="line"/>
      <point x="113" y="650" type="line"/>
    </contour>
    <contour>
      <point x="-39" y="506" type="line"/>
      <point x="483" y="506" type="line"/>
      <point x="483" y="650" type="line"/>
      <point x="-39" y="650" type="line"/>
    </contour>
  </outline>
</glyph>
<glyph name="Uhorn" format="1">
  <advance width="600"/>
  <outline>
    <contour>
      <point x="542" y="589" type="line"/>
      <point x="626" y="604"/>
      <point x="672.0" y="648.0"/>
      <point x="672" y="732" type="curve" smooth="yes"/>
      <point x="672" y="776"/>
      <point x="656" y="816"/>
      <point x="640" y="838" type="curve"/>
      <point x="514" y="788" type="line"/>
      <point x="521" y="773"/>
      <point x="530" y="748"/>
      <point x="530" y="720" type="curve" smooth="yes"/>
      <point x="530.0" y="657.0"/>
      <point x="492" y="650"/>
      <point x="460" y="650" type="curve"/>
    </contour>
    <component base="U"/>
    <contour>
      <point x="300" y="670" type="move" name="aboveUC"/>
    </contour>
    <contour>
      <point x="300" y="-20" type="move" name="belowLC"/>
    </contour>
  </outline>
</glyph>
<glyph name="W" format="1">
  <advance width="600"/>
  <outline>
    <contour>
      <point x="110" y="0" type="line"/>
      <point x="212" y="0" type="line"/>
      <point x="276" y="264" type="line" smooth="yes"/>
      <point x="286" y="304"/>
      <point x="292" y="342"/>
      <point x="299" y="382" type="curve"/>
      <point x="302" y="382" type="line"/>
      <point x="308" y="342"/>
      <point x="316" y="304"/>
      <point x="326" y="264" type="curve" smooth="yes"/>
      <point x="390" y="0" type="line"/>
      <point x="494" y="0" type="line"/>
      <point x="590" y="657" type="line"/>
      <point x="500" y="657" type="line"/>
      <point x="454" y="244" type="line"/>
      <point x="448" y="190"/>
      <point x="446" y="158"/>
      <point x="442" y="93" type="curve"/>
      <point x="438" y="93" type="line"/>
      <point x="426" y="158"/>
      <point x="420" y="190"/>
      <point x="406" y="244" type="curve" smooth="yes"/>
      <point x="344" y="488" type="line"/>
      <point x="264" y="488" type="line"/>
      <point x="200" y="244" type="line"/>
      <point x="187" y="190"/>
      <point x="180" y="158"/>
      <point x="168" y="93" type="curve"/>
      <point x="165" y="93" type="line"/>
      <point x="162" y="158"/>
      <point x="158" y="190"/>
      <point x="152" y="245" type="curve"/>
      <point x="104" y="657" type="line"/>
      <point x="10" y="657" type="line"/>
    </contour>
    <contour>
      <point x="300" y="676" type="move" name="aboveUC"/>
    </contour>
    <contour>
      <point x="303" y="-20" type="move" name="belowLC"/>
    </contour>
  </outline>
</glyph>
<glyph name="Xi" format="1">
  <advance width="600"/>
  <outline>
    <contour>
      <point x="64" y="0" type="line"/>
      <point x="536" y="0" type="line"/>
      <point x="536" y="144" type="line"/>
      <point x="64" y="144" type="line"/>
    </contour>
    <contour>
      <point x="130" y="260" type="line"/>
      <point x="470" y="260" type="line"/>
      <point x="470" y="404" type="line"/>
      <point x="130" y="404" type="line"/>
    </contour>
    <contour>
      <point x="74" y="506" type="line"/>
      <point x="526" y="506" type="line"/>
      <point x="526" y="650" type="line"/>
      <point x="74" y="650" type="line"/>
    </contour>
  </outline>
</glyph>
<glyph name="Yeru" format="1">
  <advance width="600"/>
  <outline>
    <contour>
      <point x="26" y="0" type="line"/>
      <point x="182" y="0" type="line" smooth="yes"/>
      <point x="290.421052632" y="0"/>
      <point x="382.0" y="54.0"/>
      <point x="382" y="218" type="curve" smooth="yes"/>
      <point x="382.0" y="366.0"/>
      <point x="297.698924731" y="424"/>
      <point x="186" y="424" type="curve" smooth="yes"/>
      <point x="178" y="424" type="line"/>
      <point x="178" y="650" type="line"/>
      <point x="26" y="650" type="line"/>
    </contour>
    <contour>
      <point x="178" y="136" type="line"/>
      <point x="178" y="288" type="line"/>
      <point x="184" y="288" type="line" smooth="yes"/>
      <point x="221" y="288"/>
      <point x="238" y="264"/>
      <point x="238" y="216" type="curve" smooth="yes"/>
      <point x="238" y="158"/>
      <point x="217" y="136"/>
      <point x="184" y="136" type="curve" smooth="yes"/>
    </contour>
    <contour>
      <point x="422" y="0" type="line"/>
      <point x="574" y="0" type="line"/>
      <point x="574" y="650" type="line"/>
      <point x="422" y="650" type="line"/>
    </contour>
  </outline>
</glyph>
<glyph name="Yu" format="1">
  <advance width="600"/>
  <outline>
    <contour>
      <point x="48" y="0" type="line"/>
      <point x="186" y="0" type="line"/>
      <point x="186" y="258" type="line"/>
      <point x="306" y="258" type="line"/>
      <point x="306" y="408" type="line"/>
      <point x="186" y="408" type="line"/>
      <point x="186" y="650" type="line"/>
      <point x="48" y="650" type="line"/>
    </contour>
    <contour>
      <point x="400" y="-12" type="curve" smooth="yes"/>
      <point x="509" y="-12"/>
      <point x="574" y="94"/>
      <point x="574" y="328" type="curve" smooth="yes"/>
      <point x="574" y="562"/>
      <point x="509" y="662"/>
      <point x="400" y="662" type="curve" smooth="yes"/>
      <point x="290" y="662"/>
      <point x="226" y="562"/>
      <point x="226" y="328" type="curve" smooth="yes"/>
      <point x="226" y="94"/>
      <point x="290" y="-12"/>
    </contour>
    <contour>
      <point x="388" y="136" type="curve" smooth="yes"/>
      <point x="359" y="136"/>
      <point x="344" y="190"/>
      <point x="344" y="328" type="curve" smooth="yes"/>
      <point x="344" y="466"/>
      <point x="359" y="514"/>
      <point x="388" y="514" type="curve" smooth="yes"/>
      <point x="418" y="514"/>
      <point x="432" y="466"/>
      <point x="432" y="328" type="curve" smooth="yes"/>
      <point x="432" y="190"/>
      <point x="418" y="136"/>
    </contour>
  </outline>
</glyph>
<glyph name="Ze" format="1">
  <advance width="600"/>
  <outline>
    <contour>
      <point x="290" y="-12" type="curve" smooth="yes"/>
      <point x="444.545454545" y="-12.0"/>
      <point x="562.0" y="57.0"/>
      <point x="562" y="194" type="curve" smooth="yes"/>
      <point x="562" y="268"/>
      <point x="516" y="324"/>
      <point x="455" y="342" type="curve"/>
      <point x="455" y="346" type="line"/>
      <point x="506" y="372"/>
      <point x="532" y="424"/>
      <point x="532" y="484" type="curve" smooth="yes"/>
      <point x="532.0" y="594.0"/>
      <point x="449.333333333" y="662.0"/>
      <point x="284" y="662" type="curve" smooth="yes"/>
      <point x="201.064220183" y="662.0"/>
      <point x="122.381334695" y="634.205927115"/>
      <point x="58" y="578" type="curve"/>
      <point x="144" y="464" type="line"/>
      <point x="191.285619397" y="495.866395681"/>
      <point x="226.952380952" y="514.0"/>
      <point x="278" y="514" type="curve" smooth="yes"/>
      <point x="328.717948718" y="514.0"/>
      <point x="364.0" y="499.0"/>
      <point x="364" y="455" type="curve" smooth="yes"/>
      <point x="364.0" y="419.0"/>
      <point x="339.953488372" y="396"/>
      <point x="270" y="396" type="curve" smooth="yes"/>
      <point x="198" y="396" type="line"/>
      <point x="198" y="270" type="line"/>
      <point x="290" y="270" type="line" smooth="yes"/>
      <point x="363.666666667" y="270"/>
      <point x="394.0" y="252.0"/>
      <point x="394" y="208" type="curve" smooth="yes"/>
      <point x="394.0" y="162.0"/>
      <point x="352.897959184" y="136.0"/>
      <point x="288" y="136" type="curve" smooth="yes"/>
      <point x="233.226666667" y="136.0"/>
      <point x="178.42733619" y="155.754876941"/>
      <point x="130" y="198" type="curve"/>
      <point x="40" y="80" type="line"/>
      <point x="112.489356208" y="13.6365048802"/>
      <point x="205.289256198" y="-12.0"/>
    </contour>
    <contour>
      <point x="320" y="670" type="move" name="aboveUC"/>
    </contour>
  </outline>
</glyph>
<glyph name="Zedescender" format="1">
  <advance width="600"/>
  <outline>
    <contour>
      <point x="222" y="-188" type="line"/>
      <point x="376" y="-188" type="line"/>
      <point x="390" y="24" type="line"/>
      <point x="222" y="0" type="line"/>
    </contour>
    <component base="Ze"/>
  </outline>
</glyph>
<glyph name="Zhe" format="1">
  <advance width="600"/>
  <outline>
    <contour>
      <point x="-146" y="0" type="line"/>
      <point x="38" y="0" type="line"/>
      <point x="162" y="264" type="line"/>
      <point x="218" y="264" type="line"/>
      <point x="218" y="0" type="line"/>
      <point x="382" y="0" type="line"/>
      <point x="382" y="264" type="line"/>
      <point x="438" y="264" type="line"/>
      <point x="562" y="0" type="line"/>
      <point x="746" y="0" type="line"/>
      <point x="528" y="402" type="line"/>
      <point x="382" y="402" type="line"/>
      <point x="382" y="650" type="line"/>
      <point x="218" y="650" type="line"/>
      <point x="218" y="402" type="line"/>
      <point x="72" y="402" type="line"/>
    </contour>
    <contour>
      <point x="38" y="340" type="line"/>
      <point x="186" y="374" type="line"/>
      <point x="104" y="546" type="line"/>
      <point x="60" y="633"/>
      <point x="2" y="662"/>
      <point x="-78" y="662" type="curve" smooth="yes"/>
      <point x="-98" y="662"/>
      <point x="-122" y="660"/>
      <point x="-138" y="652" type="curve"/>
      <point x="-110" y="498" type="line"/>
      <point x="-98" y="502"/>
      <point x="-86" y="502"/>
      <point x="-80" y="502" type="curve" smooth="yes"/>
      <point x="-50" y="502"/>
      <point x="-30" y="490"/>
      <point x="-12" y="452" type="curve"/>
    </contour>
    <contour>
      <point x="562" y="340" type="line"/>
      <point x="612" y="452" type="line"/>
      <point x="630" y="490"/>
      <point x="650" y="502"/>
      <point x="680" y="502" type="curve" smooth="yes"/>
      <point x="686" y="502"/>
      <point x="698" y="502"/>
      <point x="710" y="498" type="curve"/>
      <point x="738" y="652" type="line"/>
      <point x="722" y="660"/>
      <point x="698" y="662"/>
      <point x="678" y="662" type="curve" smooth="yes"/>
      <point x="598" y="662"/>
      <point x="540" y="633"/>
      <point x="496" y="546" type="curve"/>
      <point x="414" y="374" type="line"/>
    </contour>
  </outline>
</glyph>
<glyph name="Zhedescender" format="1">
  <advance width="600"/>
  <outline>
    <contour>
      <point x="484" y="-188" type="line"/>
      <point x="598" y="-188" type="line"/>
      <point x="612" y="36" type="line"/>
      <point x="612" y="144" type="line"/>
      <point x="474" y="144" type="line"/>
      <point x="474" y="0" type="line"/>
      <point x="484" y="0" type="line"/>
    </contour>
    <component base="Zhe"/>
  </outline>
</glyph>
<glyph name="a.a" format="1">
  <advance width="600"/>
  <outline>
    <component base="alphalatin"/>
    <contour>
      <point x="430" y="0" type="move" name="ogonekLC"/>
    </contour>
    <contour>
      <point x="304" y="507" type="move" name="aboveLC"/>
    </contour>
    <contour>
      <point x="465" y="0" type="move" name="baseLC"/>
    </contour>
    <contour>
      <point x="304" y="-20" type="move" name="belowLC"/>
    </contour>
  </outline>
</glyph>
<glyph name="a.alt" format="1">
  <advance width="600"/>
  <outline>
    <component base="alphalatin"/>
    <contour>
      <point x="430" y="0" type="move" name="ogonekLC"/>
    </contour>
    <contour>
      <point x="304" y="507" type="move" name="aboveLC"/>
    </contour>
    <contour>
      <point x="465" y="0" type="move" name="baseLC"/>
    </contour>
    <contour>
      <point x="304" y="-20" type="move" name="belowLC"/>
    </contour>
  </outline>
</glyph>
<glyph name="a.sups" format="1">
  <advance width="600"/>
  <outline>
    <contour>
      <point x="254" y="360" type="curve" smooth="yes"/>
      <point x="289" y="360"/>
      <point x="322" y="376"/>
      <point x="349" y="399" type="curve"/>
      <point x="352" y="399" type="line"/>
      <point x="360" y="368" type="line"/>
      <point x="457" y="368" type="line"/>
      <point x="457" y="551" type="line" smooth="yes"/>
      <point x="457" y="661"/>
      <point x="399" y="707"/>
      <point x="312" y="707" type="curve" smooth="yes"/>
      <point x="260" y="707"/>
      <point x="207" y="691"/>
      <point x="159" y="663" type="curve"/>
      <point x="201" y="586" type="line"/>
      <point x="236" y="605"/>
      <point x="265" y="614"/>
      <point x="288" y="614" type="curve" smooth="yes"/>
      <point x="316" y="614"/>
      <point x="335" y="605"/>
      <point x="338" y="583" type="curve"/>
      <point x="204" y="570"/>
      <point x="149" y="531"/>
      <point x="149" y="462" type="curve" smooth="yes"/>
      <point x="149" y="409"/>
      <point x="190" y="360"/>
    </contour>
    <contour>
      <point x="293" y="450" type="curve" smooth="yes"/>
      <point x="274" y="450"/>
      <point x="263" y="458"/>
      <point x="263" y="472" type="curve" smooth="yes"/>
      <point x="263" y="489"/>
      <point x="281" y="505"/>
      <point x="338" y="513" type="curve"/>
      <point x="338" y="471" type="line"/>
      <point x="327" y="459"/>
      <point x="311" y="450"/>
    </contour>
  </outline>
</glyph>
<glyph name="acutecmb.cap" format="1">
  <advance width="600"/>
  <outline>
    <contour>
      <point x="271" y="697" type="line"/>
      <point x="423" y="812" type="line"/>
      <point x="376" y="867" type="line"/>
      <point x="235" y="739" type="line"/>
    </contour>
    <contour>
      <point x="300" y="676" type="move" name="_aboveUC"/>
    </contour>
  </outline>
</glyph>
<glyph name="acutecmb" format="1">
  <advance width="600"/>
  <outline>
    <contour>
      <point x="474" y="748" type="line"/>
      <point x="300" y="748" type="line"/>
      <point x="212" y="574" type="line"/>
      <point x="336" y="574" type="line"/>
    </contour>
    <contour>
      <point x="300" y="522" type="move" name="_aboveLC"/>
    </contour>
  </outline>
</glyph>
<glyph name="acyr.a" format="1">
  <advance width="600"/>
  <outline>
    <component base="a.a"/>
    <contour>
      <point x="304" y="507" type="move" name="aboveLC"/>
    </contour>
  </outline>
</glyph>
<glyph name="adieresis.a" format="1">
  <advance width="600"/>
  <outline>
    <component base="a.a"/>
    <component base="dieresiscmb" xOffset="4"/>
    <contour>
      <point x="430" y="0" type="move" name="ogonekLC"/>
    </contour>
  </outline>
</glyph>
<glyph name="anoteleia" format="1">
  <advance width="600"/>
  <outline>
    <contour>
      <point x="300" y="298" type="curve" smooth="yes"/>
      <point x="358" y="298"/>
      <point x="400" y="344"/>
      <point x="400" y="402" type="curve" smooth="yes"/>
      <point x="400" y="460"/>
      <point x="358" y="506"/>
      <point x="300" y="506" type="curve" smooth="yes"/>
      <point x="242" y="506"/>
      <point x="200" y="460"/>
      <point x="200" y="402" type="curve" smooth="yes"/>
      <point x="200" y="344"/>
      <point x="242" y="298"/>
    </contour>
  </outline>
</glyph>
<glyph name="anoteleia.cap" format="1">
  <advance width="600"/>
  <outline>
    <contour>
      <point x="300" y="454" type="curve" smooth="yes"/>
      <point x="358" y="454"/>
      <point x="400" y="500"/>
      <point x="400" y="558" type="curve" smooth="yes"/>
      <point x="400" y="616"/>
      <point x="358" y="662"/>
      <point x="300" y="662" type="curve" smooth="yes"/>
      <point x="242" y="662"/>
      <point x="200" y="616"/>
      <point x="200" y="558" type="curve" smooth="yes"/>
      <point x="200" y="500"/>
      <point x="242" y="454"/>
    </contour>
  </outline>
</glyph>
